%TF.GenerationSoftware,KiCad,Pcbnew,(6.0.11)*%
%TF.CreationDate,2023-04-06T20:22:20+02:00*%
%TF.ProjectId,ProjetCapteur,50726f6a-6574-4436-9170-746575722e6b,rev?*%
%TF.SameCoordinates,Original*%
%TF.FileFunction,Copper,L2,Bot*%
%TF.FilePolarity,Positive*%
%FSLAX46Y46*%
G04 Gerber Fmt 4.6, Leading zero omitted, Abs format (unit mm)*
G04 Created by KiCad (PCBNEW (6.0.11)) date 2023-04-06 20:22:20*
%MOMM*%
%LPD*%
G01*
G04 APERTURE LIST*
%TA.AperFunction,ComponentPad*%
%ADD10C,2.000000*%
%TD*%
%TA.AperFunction,ComponentPad*%
%ADD11R,1.700000X1.700000*%
%TD*%
%TA.AperFunction,ComponentPad*%
%ADD12O,1.700000X1.700000*%
%TD*%
%TA.AperFunction,ComponentPad*%
%ADD13R,2.000000X2.000000*%
%TD*%
%TA.AperFunction,Conductor*%
%ADD14C,1.000000*%
%TD*%
%TA.AperFunction,Conductor*%
%ADD15C,0.400000*%
%TD*%
G04 APERTURE END LIST*
D10*
%TO.P,R4,2*%
%TO.N,IN-*%
X130226000Y-65710000D03*
%TO.P,R4,1*%
%TO.N,Net-(C3-Pad1)*%
X130226000Y-73330000D03*
%TD*%
%TO.P,C3,2*%
%TO.N,IN-*%
X125146000Y-65770000D03*
%TO.P,C3,1*%
%TO.N,Net-(C3-Pad1)*%
X125146000Y-73270000D03*
%TD*%
%TO.P,R6,2*%
%TO.N,GND*%
X117526000Y-62154000D03*
%TO.P,R6,1*%
%TO.N,IN-*%
X125146000Y-62154000D03*
%TD*%
%TO.P,C4,2*%
%TO.N,GND*%
X117526000Y-66258000D03*
%TO.P,C4,1*%
%TO.N,ADC*%
X117526000Y-71258000D03*
%TD*%
%TO.P,U2,4,SDA*%
%TO.N,SDA*%
X153848000Y-79268000D03*
%TO.P,U2,3,SCL*%
%TO.N,SCL*%
X151308000Y-79268000D03*
%TO.P,U2,2,VCC*%
%TO.N,VCC*%
X148768000Y-79268000D03*
%TO.P,U2,1,GND*%
%TO.N,GND*%
X146228000Y-79268000D03*
%TD*%
D11*
%TO.P,J1,1,Pin_1*%
%TO.N,unconnected-(J1-Pad1)*%
X127940000Y-97460000D03*
D12*
%TO.P,J1,2,Pin_2*%
%TO.N,/IOREF*%
X130480000Y-97460000D03*
%TO.P,J1,3,Pin_3*%
%TO.N,/~{RESET}*%
X133020000Y-97460000D03*
%TO.P,J1,4,Pin_4*%
%TO.N,+3V3*%
X135560000Y-97460000D03*
%TO.P,J1,5,Pin_5*%
%TO.N,+5V*%
X138100000Y-97460000D03*
%TO.P,J1,6,Pin_6*%
%TO.N,GND*%
X140640000Y-97460000D03*
%TO.P,J1,7,Pin_7*%
X143180000Y-97460000D03*
%TO.P,J1,8,Pin_8*%
%TO.N,VCC*%
X145720000Y-97460000D03*
%TD*%
D11*
%TO.P,J3,1,Pin_1*%
%TO.N,ADC*%
X150800000Y-97460000D03*
D12*
%TO.P,J3,2,Pin_2*%
%TO.N,/A1*%
X153340000Y-97460000D03*
%TO.P,J3,3,Pin_3*%
%TO.N,/A2*%
X155880000Y-97460000D03*
%TO.P,J3,4,Pin_4*%
%TO.N,/A3*%
X158420000Y-97460000D03*
%TO.P,J3,5,Pin_5*%
%TO.N,SDA*%
X160960000Y-97460000D03*
%TO.P,J3,6,Pin_6*%
%TO.N,SCL*%
X163500000Y-97460000D03*
%TD*%
D11*
%TO.P,J2,1,Pin_1*%
%TO.N,SCL*%
X118796000Y-49200000D03*
D12*
%TO.P,J2,2,Pin_2*%
%TO.N,SDA*%
X121336000Y-49200000D03*
%TO.P,J2,3,Pin_3*%
%TO.N,/AREF*%
X123876000Y-49200000D03*
%TO.P,J2,4,Pin_4*%
%TO.N,GND*%
X126416000Y-49200000D03*
%TO.P,J2,5,Pin_5*%
%TO.N,/13*%
X128956000Y-49200000D03*
%TO.P,J2,6,Pin_6*%
%TO.N,/12*%
X131496000Y-49200000D03*
%TO.P,J2,7,Pin_7*%
%TO.N,RX_TX*%
X134036000Y-49200000D03*
%TO.P,J2,8,Pin_8*%
%TO.N,TX_RX*%
X136576000Y-49200000D03*
%TO.P,J2,9,Pin_9*%
%TO.N,RX_TX*%
X139116000Y-49200000D03*
%TO.P,J2,10,Pin_10*%
%TO.N,/8*%
X141656000Y-49200000D03*
%TD*%
D11*
%TO.P,J4,1,Pin_1*%
%TO.N,/7*%
X145720000Y-49200000D03*
D12*
%TO.P,J4,2,Pin_2*%
%TO.N,/\u002A6*%
X148260000Y-49200000D03*
%TO.P,J4,3,Pin_3*%
%TO.N,SWITCH*%
X150800000Y-49200000D03*
%TO.P,J4,4,Pin_4*%
%TO.N,DATA*%
X153340000Y-49200000D03*
%TO.P,J4,5,Pin_5*%
%TO.N,CLK*%
X155880000Y-49200000D03*
%TO.P,J4,6,Pin_6*%
%TO.N,/2*%
X158420000Y-49200000D03*
%TO.P,J4,7,Pin_7*%
%TO.N,/TX{slash}1*%
X160960000Y-49200000D03*
%TO.P,J4,8,Pin_8*%
%TO.N,/RX{slash}0*%
X163500000Y-49200000D03*
%TD*%
D10*
%TO.P,R2,2*%
%TO.N,IN+*%
X121082000Y-80950000D03*
%TO.P,R2,1*%
%TO.N,Net-(R1-Pad1)*%
X128702000Y-80950000D03*
%TD*%
%TO.P,R3,2*%
%TO.N,GND*%
X128702000Y-88824000D03*
%TO.P,R3,1*%
%TO.N,IN+*%
X121082000Y-88824000D03*
%TD*%
%TO.P,U4,1,CLK*%
%TO.N,CLK*%
X155880000Y-53518000D03*
%TO.P,U4,2,DATA*%
%TO.N,DATA*%
X153340000Y-53518000D03*
%TO.P,U4,3,SWITCH*%
%TO.N,SWITCH*%
X150800000Y-53518000D03*
%TO.P,U4,4,VCC*%
%TO.N,VCC*%
X148260000Y-53518000D03*
%TO.P,U4,5,GND*%
%TO.N,GND*%
X145720000Y-53518000D03*
%TD*%
%TO.P,U1,1,KEY*%
%TO.N,unconnected-(U1-Pad1)*%
X141656000Y-53518000D03*
%TO.P,U1,2,VCC*%
%TO.N,VCC*%
X139116000Y-53518000D03*
%TO.P,U1,3,GND*%
%TO.N,GND*%
X136576000Y-53518000D03*
%TO.P,U1,4,TX_RX*%
%TO.N,TX_RX*%
X134036000Y-53518000D03*
%TO.P,U1,5,RX_TX*%
%TO.N,RX_TX*%
X131496000Y-53518000D03*
%TO.P,U1,6,STATE*%
%TO.N,unconnected-(U1-Pad6)*%
X128956000Y-53518000D03*
%TD*%
%TO.P,R5,2*%
%TO.N,ADC*%
X117526000Y-76378000D03*
%TO.P,R5,1*%
%TO.N,Net-(C3-Pad1)*%
X125146000Y-76378000D03*
%TD*%
%TO.P,R1,2*%
%TO.N,+5V*%
X131496000Y-92380000D03*
%TO.P,R1,1*%
%TO.N,Net-(R1-Pad1)*%
X131496000Y-84760000D03*
%TD*%
D13*
%TO.P,U3,1,NC_2*%
%TO.N,unconnected-(U3-Pad1)*%
X141148000Y-66268000D03*
D10*
%TO.P,U3,2,IN-*%
%TO.N,IN-*%
X138608000Y-66268000D03*
%TO.P,U3,3,IN+*%
%TO.N,IN+*%
X136068000Y-66268000D03*
%TO.P,U3,4,V-*%
%TO.N,GND*%
X133528000Y-66268000D03*
%TO.P,U3,5,CLOCK*%
%TO.N,unconnected-(U3-Pad5)*%
X133528000Y-73788000D03*
%TO.P,U3,6,OUT*%
%TO.N,Net-(C3-Pad1)*%
X136068000Y-73788000D03*
%TO.P,U3,7,V+*%
%TO.N,+5V*%
X138608000Y-73788000D03*
%TO.P,U3,8,NC*%
%TO.N,unconnected-(U3-Pad8)*%
X141148000Y-73788000D03*
%TD*%
%TO.P,C2,2*%
%TO.N,GND*%
X123916000Y-92380000D03*
%TO.P,C2,1*%
%TO.N,+5V*%
X128916000Y-92380000D03*
%TD*%
%TO.P,C1,2*%
%TO.N,GND*%
X126082000Y-84760000D03*
%TO.P,C1,1*%
%TO.N,IN+*%
X121082000Y-84760000D03*
%TD*%
D14*
%TO.N,SDA*%
X160960000Y-98984000D02*
X160960000Y-97460000D01*
X161214000Y-99238000D02*
X160960000Y-98984000D01*
X165278000Y-99238000D02*
X161214000Y-99238000D01*
X165278000Y-95682000D02*
X165278000Y-99238000D01*
X164770000Y-95682000D02*
X165278000Y-95682000D01*
X153848000Y-84760000D02*
X164770000Y-95682000D01*
X153848000Y-79268000D02*
X153848000Y-84760000D01*
%TO.N,ADC*%
X149022000Y-99238000D02*
X119050000Y-99238000D01*
X119050000Y-99238000D02*
X117526000Y-97714000D01*
X117526000Y-97714000D02*
X117526000Y-76378000D01*
X150800000Y-97460000D02*
X149022000Y-99238000D01*
%TO.N,CLK*%
X155880000Y-49200000D02*
X155880000Y-53518000D01*
%TO.N,DATA*%
X153340000Y-49200000D02*
X153340000Y-53518000D01*
%TO.N,SWITCH*%
X150800000Y-49200000D02*
X150800000Y-53518000D01*
%TO.N,+5V*%
X138100000Y-94412000D02*
X138100000Y-97460000D01*
X136068000Y-92380000D02*
X138100000Y-94412000D01*
X128916000Y-92380000D02*
X131496000Y-92380000D01*
X136068000Y-92380000D02*
X131496000Y-92380000D01*
X138608000Y-89840000D02*
X136068000Y-92380000D01*
X138608000Y-73788000D02*
X138608000Y-89840000D01*
%TO.N,Net-(C3-Pad1)*%
X136068000Y-77140000D02*
X136068000Y-73788000D01*
X134036000Y-77140000D02*
X136068000Y-77140000D01*
X130226000Y-73330000D02*
X134036000Y-77140000D01*
X125146000Y-73270000D02*
X130166000Y-73270000D01*
D15*
X130166000Y-73270000D02*
X130226000Y-73330000D01*
D14*
X125146000Y-76378000D02*
X125146000Y-73270000D01*
%TO.N,Net-(R1-Pad1)*%
X128702000Y-81966000D02*
X131496000Y-84760000D01*
X128702000Y-80950000D02*
X128702000Y-81966000D01*
%TO.N,IN+*%
X121082000Y-84760000D02*
X121082000Y-88824000D01*
X121082000Y-80950000D02*
X121082000Y-84760000D01*
X121082000Y-71298000D02*
X121082000Y-80950000D01*
X122606000Y-69774000D02*
X121082000Y-71298000D01*
X136068000Y-68504000D02*
X134798000Y-69774000D01*
X134798000Y-69774000D02*
X122606000Y-69774000D01*
X136068000Y-66268000D02*
X136068000Y-68504000D01*
%TO.N,IN-*%
X138608000Y-64948000D02*
X138608000Y-66268000D01*
X132258000Y-63678000D02*
X137338000Y-63678000D01*
X137338000Y-63678000D02*
X138608000Y-64948000D01*
X130226000Y-65710000D02*
X132258000Y-63678000D01*
X125146000Y-65770000D02*
X130166000Y-65770000D01*
X130166000Y-65770000D02*
X130226000Y-65710000D01*
X125146000Y-62154000D02*
X125146000Y-65770000D01*
%TO.N,ADC*%
X117526000Y-71258000D02*
X117526000Y-76378000D01*
%TO.N,VCC*%
X148768000Y-94412000D02*
X145720000Y-97460000D01*
X148768000Y-79268000D02*
X148768000Y-94412000D01*
%TO.N,SCL*%
X151308000Y-85014000D02*
X151308000Y-79268000D01*
X151562000Y-85268000D02*
X151308000Y-85014000D01*
X151562000Y-85522000D02*
X151562000Y-85268000D01*
X163500000Y-97460000D02*
X151562000Y-85522000D01*
%TO.N,VCC*%
X148768000Y-60376000D02*
X148768000Y-79268000D01*
X148260000Y-59868000D02*
X148768000Y-60376000D01*
X148260000Y-59868000D02*
X148260000Y-53518000D01*
X139116000Y-58598000D02*
X140386000Y-59868000D01*
X140386000Y-59868000D02*
X148260000Y-59868000D01*
X139116000Y-53518000D02*
X139116000Y-58598000D01*
%TO.N,TX_RX*%
X134798000Y-50978000D02*
X136576000Y-49200000D01*
X134798000Y-52756000D02*
X134798000Y-50978000D01*
X134036000Y-53518000D02*
X134798000Y-52756000D01*
%TO.N,RX_TX*%
X132766000Y-50470000D02*
X134036000Y-49200000D01*
X131496000Y-53518000D02*
X132766000Y-52248000D01*
X132766000Y-52248000D02*
X132766000Y-50470000D01*
%TD*%
%TA.AperFunction,Conductor*%
%TO.N,GND*%
G36*
X163391206Y-46980185D02*
G01*
X163411848Y-46996819D01*
X165703181Y-49288152D01*
X165736666Y-49349475D01*
X165739500Y-49375833D01*
X165739500Y-59307545D01*
X165739295Y-59310331D01*
X165737575Y-59315342D01*
X165738004Y-59326778D01*
X165738004Y-59326780D01*
X165739413Y-59364308D01*
X165739500Y-59368959D01*
X165739500Y-59387948D01*
X165740378Y-59392662D01*
X165740613Y-59396292D01*
X165741774Y-59427208D01*
X165746293Y-59437726D01*
X165747196Y-59441734D01*
X165751220Y-59454979D01*
X165752696Y-59458803D01*
X165754791Y-59470053D01*
X165760797Y-59479797D01*
X165760798Y-59479799D01*
X165767803Y-59491164D01*
X165776175Y-59507279D01*
X165785964Y-59530063D01*
X165789978Y-59534949D01*
X165792270Y-59537241D01*
X165792362Y-59537357D01*
X165794151Y-59539330D01*
X165794017Y-59539451D01*
X165801746Y-59549229D01*
X165807523Y-59555600D01*
X165813532Y-59565348D01*
X165835425Y-59581996D01*
X165848040Y-59593011D01*
X168243181Y-61988152D01*
X168276666Y-62049475D01*
X168279500Y-62075833D01*
X168279500Y-96014167D01*
X168259815Y-96081206D01*
X168243181Y-96101848D01*
X166290181Y-98054848D01*
X166228858Y-98088333D01*
X166159166Y-98083349D01*
X166103233Y-98041477D01*
X166078816Y-97976013D01*
X166078500Y-97967167D01*
X166078500Y-95737302D01*
X166079372Y-95722620D01*
X166082196Y-95698938D01*
X166083545Y-95687624D01*
X166078733Y-95641841D01*
X166078500Y-95638943D01*
X166078500Y-95636845D01*
X166073919Y-95596006D01*
X166073825Y-95595144D01*
X166065439Y-95515349D01*
X166065438Y-95515345D01*
X166064773Y-95509017D01*
X166063861Y-95506339D01*
X166063546Y-95503528D01*
X166061451Y-95497511D01*
X166061448Y-95497499D01*
X166035058Y-95421720D01*
X166034775Y-95420900D01*
X166008954Y-95345048D01*
X166008952Y-95345044D01*
X166006897Y-95339007D01*
X166005415Y-95336599D01*
X166004485Y-95333927D01*
X165958568Y-95260444D01*
X165958164Y-95259792D01*
X165916132Y-95191471D01*
X165912794Y-95186045D01*
X165910815Y-95184024D01*
X165909316Y-95181625D01*
X165904837Y-95177115D01*
X165904835Y-95177112D01*
X165875435Y-95147507D01*
X165848275Y-95120156D01*
X165847834Y-95119710D01*
X165787141Y-95057732D01*
X165784762Y-95056199D01*
X165782770Y-95054193D01*
X165777398Y-95050784D01*
X165777392Y-95050779D01*
X165709653Y-95007790D01*
X165708925Y-95007325D01*
X165641533Y-94963894D01*
X165641534Y-94963894D01*
X165636183Y-94960446D01*
X165633523Y-94959478D01*
X165631136Y-94957963D01*
X165549434Y-94928871D01*
X165548911Y-94928682D01*
X165473393Y-94901195D01*
X165473391Y-94901194D01*
X165467422Y-94899022D01*
X165464614Y-94898667D01*
X165461951Y-94897719D01*
X165455653Y-94896968D01*
X165375951Y-94887464D01*
X165375093Y-94887358D01*
X165332585Y-94881988D01*
X165332575Y-94881987D01*
X165328717Y-94881500D01*
X165326614Y-94881500D01*
X165323748Y-94881239D01*
X165283624Y-94876455D01*
X165276735Y-94877179D01*
X165276731Y-94877179D01*
X165242083Y-94880821D01*
X165229122Y-94881500D01*
X165152940Y-94881500D01*
X165085901Y-94861815D01*
X165065259Y-94845181D01*
X162643311Y-92423233D01*
X164134906Y-92423233D01*
X164135333Y-92427708D01*
X164135333Y-92427709D01*
X164152939Y-92612232D01*
X164161102Y-92697792D01*
X164162170Y-92702156D01*
X164192596Y-92826496D01*
X164226657Y-92965694D01*
X164228340Y-92969850D01*
X164228342Y-92969855D01*
X164327517Y-93214704D01*
X164330199Y-93221326D01*
X164469558Y-93459335D01*
X164641816Y-93674732D01*
X164843364Y-93863008D01*
X164921926Y-93917508D01*
X165066281Y-94017651D01*
X165066285Y-94017653D01*
X165069979Y-94020216D01*
X165074004Y-94022218D01*
X165074005Y-94022219D01*
X165312887Y-94141062D01*
X165312892Y-94141064D01*
X165316914Y-94143065D01*
X165578998Y-94228980D01*
X165605192Y-94233528D01*
X165847004Y-94275514D01*
X165847009Y-94275515D01*
X165850738Y-94276162D01*
X165888373Y-94278036D01*
X165936340Y-94280424D01*
X165936359Y-94280424D01*
X165937876Y-94280500D01*
X166110070Y-94280500D01*
X166315083Y-94265625D01*
X166319464Y-94264658D01*
X166319469Y-94264657D01*
X166431093Y-94240012D01*
X166584403Y-94206164D01*
X166588594Y-94204576D01*
X166588598Y-94204575D01*
X166820432Y-94116741D01*
X166842319Y-94108449D01*
X167083428Y-93974525D01*
X167204896Y-93881823D01*
X167299112Y-93809920D01*
X167299116Y-93809916D01*
X167302678Y-93807198D01*
X167495477Y-93609974D01*
X167500931Y-93602482D01*
X167655143Y-93390616D01*
X167657787Y-93386984D01*
X167659872Y-93383021D01*
X167659877Y-93383013D01*
X167784117Y-93146869D01*
X167786206Y-93142899D01*
X167878045Y-92882832D01*
X167913656Y-92702156D01*
X167930511Y-92616643D01*
X167930512Y-92616638D01*
X167931380Y-92612232D01*
X167939118Y-92456801D01*
X167944871Y-92341252D01*
X167944871Y-92341248D01*
X167945094Y-92336767D01*
X167927590Y-92153308D01*
X167919325Y-92066680D01*
X167919324Y-92066676D01*
X167918898Y-92062208D01*
X167888685Y-91938737D01*
X167854411Y-91798669D01*
X167854409Y-91798664D01*
X167853343Y-91794306D01*
X167824391Y-91722827D01*
X167751486Y-91542833D01*
X167751484Y-91542828D01*
X167749801Y-91538674D01*
X167610442Y-91300665D01*
X167438184Y-91085268D01*
X167236636Y-90896992D01*
X167079807Y-90788196D01*
X167013719Y-90742349D01*
X167013715Y-90742347D01*
X167010021Y-90739784D01*
X166829467Y-90649959D01*
X166767113Y-90618938D01*
X166767108Y-90618936D01*
X166763086Y-90616935D01*
X166501002Y-90531020D01*
X166420051Y-90516965D01*
X166232996Y-90484486D01*
X166232991Y-90484485D01*
X166229262Y-90483838D01*
X166191627Y-90481964D01*
X166143660Y-90479576D01*
X166143641Y-90479576D01*
X166142124Y-90479500D01*
X165969930Y-90479500D01*
X165764917Y-90494375D01*
X165760536Y-90495342D01*
X165760531Y-90495343D01*
X165648907Y-90519988D01*
X165495597Y-90553836D01*
X165491406Y-90555424D01*
X165491402Y-90555425D01*
X165372175Y-90600596D01*
X165237681Y-90651551D01*
X164996572Y-90785475D01*
X164993007Y-90788196D01*
X164780888Y-90950080D01*
X164780884Y-90950084D01*
X164777322Y-90952802D01*
X164584523Y-91150026D01*
X164581881Y-91153655D01*
X164581879Y-91153658D01*
X164571013Y-91168587D01*
X164422213Y-91373016D01*
X164420128Y-91376979D01*
X164420123Y-91376987D01*
X164343145Y-91523300D01*
X164293794Y-91617101D01*
X164292301Y-91621328D01*
X164292300Y-91621331D01*
X164256458Y-91722827D01*
X164201955Y-91877168D01*
X164201088Y-91881569D01*
X164201087Y-91881571D01*
X164150300Y-92139246D01*
X164148620Y-92147768D01*
X164148397Y-92152253D01*
X164136431Y-92392607D01*
X164134906Y-92423233D01*
X162643311Y-92423233D01*
X154684819Y-84464741D01*
X154651334Y-84403418D01*
X154648500Y-84377060D01*
X154648500Y-80357675D01*
X154668185Y-80290636D01*
X154687635Y-80268543D01*
X154687139Y-80268047D01*
X154848047Y-80107139D01*
X154851149Y-80102708D01*
X154851153Y-80102704D01*
X154975460Y-79925173D01*
X154975461Y-79925171D01*
X154978568Y-79920734D01*
X155039002Y-79791134D01*
X155072450Y-79719406D01*
X155072452Y-79719400D01*
X155074739Y-79714496D01*
X155133635Y-79494692D01*
X155153468Y-79268000D01*
X155133635Y-79041308D01*
X155074739Y-78821504D01*
X155072452Y-78816600D01*
X155072450Y-78816594D01*
X154980858Y-78620177D01*
X154978568Y-78615266D01*
X154975460Y-78610827D01*
X154851153Y-78433296D01*
X154851149Y-78433292D01*
X154848047Y-78428861D01*
X154687139Y-78267953D01*
X154682708Y-78264851D01*
X154682704Y-78264847D01*
X154505173Y-78140540D01*
X154505171Y-78140539D01*
X154500734Y-78137432D01*
X154479761Y-78127652D01*
X154299406Y-78043550D01*
X154299400Y-78043548D01*
X154294496Y-78041261D01*
X154074692Y-77982365D01*
X154069307Y-77981894D01*
X154069302Y-77981893D01*
X153853395Y-77963004D01*
X153848000Y-77962532D01*
X153842605Y-77963004D01*
X153626698Y-77981893D01*
X153626693Y-77981894D01*
X153621308Y-77982365D01*
X153401504Y-78041261D01*
X153396600Y-78043548D01*
X153396594Y-78043550D01*
X153216239Y-78127652D01*
X153195266Y-78137432D01*
X153190829Y-78140539D01*
X153190827Y-78140540D01*
X153013296Y-78264847D01*
X153013292Y-78264851D01*
X153008861Y-78267953D01*
X152847953Y-78428861D01*
X152844851Y-78433292D01*
X152844847Y-78433296D01*
X152720540Y-78610827D01*
X152717432Y-78615266D01*
X152715142Y-78620177D01*
X152690382Y-78673275D01*
X152644210Y-78725714D01*
X152577016Y-78744866D01*
X152510135Y-78724650D01*
X152465618Y-78673275D01*
X152440858Y-78620177D01*
X152438568Y-78615266D01*
X152435460Y-78610827D01*
X152311153Y-78433296D01*
X152311149Y-78433292D01*
X152308047Y-78428861D01*
X152147139Y-78267953D01*
X152142708Y-78264851D01*
X152142704Y-78264847D01*
X151965173Y-78140540D01*
X151965171Y-78140539D01*
X151960734Y-78137432D01*
X151939761Y-78127652D01*
X151759406Y-78043550D01*
X151759400Y-78043548D01*
X151754496Y-78041261D01*
X151534692Y-77982365D01*
X151529307Y-77981894D01*
X151529302Y-77981893D01*
X151313395Y-77963004D01*
X151308000Y-77962532D01*
X151302605Y-77963004D01*
X151086698Y-77981893D01*
X151086693Y-77981894D01*
X151081308Y-77982365D01*
X150861504Y-78041261D01*
X150856600Y-78043548D01*
X150856594Y-78043550D01*
X150676239Y-78127652D01*
X150655266Y-78137432D01*
X150650829Y-78140539D01*
X150650827Y-78140540D01*
X150473296Y-78264847D01*
X150473292Y-78264851D01*
X150468861Y-78267953D01*
X150307953Y-78428861D01*
X150304851Y-78433292D01*
X150304847Y-78433296D01*
X150180540Y-78610827D01*
X150177432Y-78615266D01*
X150175142Y-78620177D01*
X150150382Y-78673275D01*
X150104210Y-78725714D01*
X150037016Y-78744866D01*
X149970135Y-78724650D01*
X149925618Y-78673275D01*
X149900858Y-78620177D01*
X149898568Y-78615266D01*
X149895460Y-78610827D01*
X149771153Y-78433296D01*
X149771149Y-78433292D01*
X149768047Y-78428861D01*
X149607139Y-78267953D01*
X149608391Y-78266701D01*
X149574089Y-78215134D01*
X149568500Y-78178325D01*
X149568500Y-64483233D01*
X164134906Y-64483233D01*
X164135333Y-64487708D01*
X164135333Y-64487709D01*
X164159227Y-64738135D01*
X164161102Y-64757792D01*
X164163961Y-64769477D01*
X164224650Y-65017491D01*
X164226657Y-65025694D01*
X164228340Y-65029850D01*
X164228342Y-65029855D01*
X164313824Y-65240898D01*
X164330199Y-65281326D01*
X164469558Y-65519335D01*
X164641816Y-65734732D01*
X164843364Y-65923008D01*
X164957111Y-66001917D01*
X165066281Y-66077651D01*
X165066285Y-66077653D01*
X165069979Y-66080216D01*
X165074004Y-66082218D01*
X165074005Y-66082219D01*
X165312887Y-66201062D01*
X165312892Y-66201064D01*
X165316914Y-66203065D01*
X165578998Y-66288980D01*
X165659949Y-66303035D01*
X165847004Y-66335514D01*
X165847009Y-66335515D01*
X165850738Y-66336162D01*
X165888373Y-66338036D01*
X165936340Y-66340424D01*
X165936359Y-66340424D01*
X165937876Y-66340500D01*
X166110070Y-66340500D01*
X166315083Y-66325625D01*
X166319464Y-66324658D01*
X166319469Y-66324657D01*
X166431093Y-66300012D01*
X166584403Y-66266164D01*
X166588594Y-66264576D01*
X166588598Y-66264575D01*
X166716371Y-66216166D01*
X166842319Y-66168449D01*
X166863839Y-66156496D01*
X167079505Y-66036704D01*
X167083428Y-66034525D01*
X167160450Y-65975743D01*
X167299112Y-65869920D01*
X167299116Y-65869916D01*
X167302678Y-65867198D01*
X167495477Y-65669974D01*
X167657787Y-65446984D01*
X167659872Y-65443021D01*
X167659877Y-65443013D01*
X167777320Y-65219788D01*
X167786206Y-65202899D01*
X167788052Y-65197673D01*
X167843781Y-65039859D01*
X167878045Y-64942832D01*
X167878913Y-64938429D01*
X167930511Y-64676643D01*
X167930512Y-64676638D01*
X167931380Y-64672232D01*
X167940483Y-64489386D01*
X167944871Y-64401252D01*
X167944871Y-64401248D01*
X167945094Y-64396767D01*
X167937622Y-64318451D01*
X167919325Y-64126680D01*
X167919324Y-64126676D01*
X167918898Y-64122208D01*
X167853343Y-63854306D01*
X167783281Y-63681331D01*
X167751486Y-63602833D01*
X167751484Y-63602828D01*
X167749801Y-63598674D01*
X167610442Y-63360665D01*
X167438184Y-63145268D01*
X167236636Y-62956992D01*
X167079807Y-62848196D01*
X167013719Y-62802349D01*
X167013715Y-62802347D01*
X167010021Y-62799784D01*
X166815893Y-62703206D01*
X166767113Y-62678938D01*
X166767108Y-62678936D01*
X166763086Y-62676935D01*
X166525757Y-62599135D01*
X166505270Y-62592419D01*
X166505269Y-62592419D01*
X166501002Y-62591020D01*
X166420051Y-62576965D01*
X166232996Y-62544486D01*
X166232991Y-62544485D01*
X166229262Y-62543838D01*
X166191627Y-62541964D01*
X166143660Y-62539576D01*
X166143641Y-62539576D01*
X166142124Y-62539500D01*
X165969930Y-62539500D01*
X165764917Y-62554375D01*
X165760536Y-62555342D01*
X165760531Y-62555343D01*
X165648907Y-62579988D01*
X165495597Y-62613836D01*
X165491406Y-62615424D01*
X165491402Y-62615425D01*
X165372175Y-62660596D01*
X165237681Y-62711551D01*
X164996572Y-62845475D01*
X164932028Y-62894734D01*
X164780888Y-63010080D01*
X164780884Y-63010084D01*
X164777322Y-63012802D01*
X164584523Y-63210026D01*
X164581881Y-63213655D01*
X164581879Y-63213658D01*
X164503368Y-63321521D01*
X164422213Y-63433016D01*
X164420128Y-63436979D01*
X164420123Y-63436987D01*
X164380025Y-63513202D01*
X164293794Y-63677101D01*
X164201955Y-63937168D01*
X164201088Y-63941569D01*
X164201087Y-63941571D01*
X164165484Y-64122208D01*
X164148620Y-64207768D01*
X164148397Y-64212253D01*
X164135142Y-64478500D01*
X164134906Y-64483233D01*
X149568500Y-64483233D01*
X149568500Y-60385062D01*
X149568507Y-60383763D01*
X149569368Y-60301530D01*
X149569441Y-60294593D01*
X149567976Y-60287816D01*
X149567975Y-60287808D01*
X149560362Y-60252598D01*
X149558334Y-60240215D01*
X149554319Y-60204418D01*
X149554319Y-60204417D01*
X149553546Y-60197528D01*
X149542611Y-60166127D01*
X149538515Y-60151556D01*
X149532954Y-60125833D01*
X149532953Y-60125831D01*
X149531489Y-60119058D01*
X149513334Y-60080124D01*
X149508616Y-60068503D01*
X149496767Y-60034479D01*
X149496766Y-60034476D01*
X149494485Y-60027927D01*
X149476866Y-59999730D01*
X149469644Y-59986429D01*
X149458519Y-59962574D01*
X149455590Y-59956292D01*
X149429261Y-59922349D01*
X149422082Y-59912058D01*
X149402988Y-59881502D01*
X149399316Y-59875625D01*
X149370997Y-59847107D01*
X149370416Y-59846486D01*
X149369901Y-59845823D01*
X149344041Y-59819963D01*
X149272770Y-59748193D01*
X149271746Y-59747543D01*
X149270529Y-59746451D01*
X149096819Y-59572741D01*
X149063334Y-59511418D01*
X149060500Y-59485060D01*
X149060500Y-54607675D01*
X149080185Y-54540636D01*
X149099635Y-54518543D01*
X149099139Y-54518047D01*
X149260047Y-54357139D01*
X149263149Y-54352708D01*
X149263153Y-54352704D01*
X149387460Y-54175173D01*
X149387461Y-54175171D01*
X149390568Y-54170734D01*
X149417618Y-54112724D01*
X149463790Y-54060286D01*
X149530984Y-54041134D01*
X149597865Y-54061350D01*
X149642382Y-54112724D01*
X149669432Y-54170734D01*
X149672539Y-54175171D01*
X149672540Y-54175173D01*
X149796847Y-54352704D01*
X149796851Y-54352708D01*
X149799953Y-54357139D01*
X149960861Y-54518047D01*
X149965292Y-54521149D01*
X149965296Y-54521153D01*
X150088864Y-54607675D01*
X150147266Y-54648568D01*
X150152177Y-54650858D01*
X150348594Y-54742450D01*
X150348600Y-54742452D01*
X150353504Y-54744739D01*
X150573308Y-54803635D01*
X150578693Y-54804106D01*
X150578698Y-54804107D01*
X150794605Y-54822996D01*
X150800000Y-54823468D01*
X150805395Y-54822996D01*
X151021302Y-54804107D01*
X151021307Y-54804106D01*
X151026692Y-54803635D01*
X151246496Y-54744739D01*
X151251400Y-54742452D01*
X151251406Y-54742450D01*
X151447823Y-54650858D01*
X151452734Y-54648568D01*
X151511136Y-54607675D01*
X151634704Y-54521153D01*
X151634708Y-54521149D01*
X151639139Y-54518047D01*
X151800047Y-54357139D01*
X151803149Y-54352708D01*
X151803153Y-54352704D01*
X151927460Y-54175173D01*
X151927461Y-54175171D01*
X151930568Y-54170734D01*
X151957618Y-54112724D01*
X152003790Y-54060286D01*
X152070984Y-54041134D01*
X152137865Y-54061350D01*
X152182382Y-54112724D01*
X152209432Y-54170734D01*
X152212539Y-54175171D01*
X152212540Y-54175173D01*
X152336847Y-54352704D01*
X152336851Y-54352708D01*
X152339953Y-54357139D01*
X152500861Y-54518047D01*
X152505292Y-54521149D01*
X152505296Y-54521153D01*
X152628864Y-54607675D01*
X152687266Y-54648568D01*
X152692177Y-54650858D01*
X152888594Y-54742450D01*
X152888600Y-54742452D01*
X152893504Y-54744739D01*
X153113308Y-54803635D01*
X153118693Y-54804106D01*
X153118698Y-54804107D01*
X153334605Y-54822996D01*
X153340000Y-54823468D01*
X153345395Y-54822996D01*
X153561302Y-54804107D01*
X153561307Y-54804106D01*
X153566692Y-54803635D01*
X153786496Y-54744739D01*
X153791400Y-54742452D01*
X153791406Y-54742450D01*
X153987823Y-54650858D01*
X153992734Y-54648568D01*
X154051136Y-54607675D01*
X154174704Y-54521153D01*
X154174708Y-54521149D01*
X154179139Y-54518047D01*
X154340047Y-54357139D01*
X154343149Y-54352708D01*
X154343153Y-54352704D01*
X154467460Y-54175173D01*
X154467461Y-54175171D01*
X154470568Y-54170734D01*
X154497618Y-54112724D01*
X154543790Y-54060286D01*
X154610984Y-54041134D01*
X154677865Y-54061350D01*
X154722382Y-54112724D01*
X154749432Y-54170734D01*
X154752539Y-54175171D01*
X154752540Y-54175173D01*
X154876847Y-54352704D01*
X154876851Y-54352708D01*
X154879953Y-54357139D01*
X155040861Y-54518047D01*
X155045292Y-54521149D01*
X155045296Y-54521153D01*
X155168864Y-54607675D01*
X155227266Y-54648568D01*
X155232177Y-54650858D01*
X155428594Y-54742450D01*
X155428600Y-54742452D01*
X155433504Y-54744739D01*
X155653308Y-54803635D01*
X155658693Y-54804106D01*
X155658698Y-54804107D01*
X155874605Y-54822996D01*
X155880000Y-54823468D01*
X155885395Y-54822996D01*
X156101302Y-54804107D01*
X156101307Y-54804106D01*
X156106692Y-54803635D01*
X156326496Y-54744739D01*
X156331400Y-54742452D01*
X156331406Y-54742450D01*
X156527823Y-54650858D01*
X156532734Y-54648568D01*
X156591136Y-54607675D01*
X156714704Y-54521153D01*
X156714708Y-54521149D01*
X156719139Y-54518047D01*
X156880047Y-54357139D01*
X156883149Y-54352708D01*
X156883153Y-54352704D01*
X157007460Y-54175173D01*
X157007461Y-54175171D01*
X157010568Y-54170734D01*
X157071002Y-54041134D01*
X157104450Y-53969406D01*
X157104452Y-53969400D01*
X157106739Y-53964496D01*
X157165635Y-53744692D01*
X157185468Y-53518000D01*
X157171519Y-53358559D01*
X157166107Y-53296698D01*
X157166106Y-53296693D01*
X157165635Y-53291308D01*
X157106739Y-53071504D01*
X157104452Y-53066600D01*
X157104450Y-53066594D01*
X157012858Y-52870177D01*
X157010568Y-52865266D01*
X156969572Y-52806717D01*
X156883153Y-52683296D01*
X156883149Y-52683292D01*
X156880047Y-52678861D01*
X156719139Y-52517953D01*
X156720391Y-52516701D01*
X156686089Y-52465134D01*
X156680500Y-52428325D01*
X156680500Y-50081692D01*
X156700185Y-50014653D01*
X156709163Y-50002402D01*
X156828584Y-49858813D01*
X156828585Y-49858811D01*
X156832219Y-49854442D01*
X156931946Y-49676368D01*
X156932756Y-49674922D01*
X156932759Y-49674916D01*
X156935537Y-49669955D01*
X156951232Y-49623721D01*
X157001675Y-49475118D01*
X157003504Y-49469730D01*
X157008941Y-49432232D01*
X157027820Y-49302033D01*
X157056921Y-49238512D01*
X157110225Y-49204346D01*
X157190974Y-49204346D01*
X157244347Y-49238736D01*
X157273296Y-49302327D01*
X157274271Y-49311707D01*
X157278796Y-49380749D01*
X157330845Y-49585690D01*
X157333219Y-49590841D01*
X157333221Y-49590845D01*
X157416989Y-49772552D01*
X157419369Y-49777714D01*
X157541405Y-49950391D01*
X157545476Y-49954357D01*
X157545477Y-49954358D01*
X157554245Y-49962899D01*
X157692865Y-50097937D01*
X157697588Y-50101093D01*
X157697592Y-50101096D01*
X157768663Y-50148584D01*
X157868677Y-50215411D01*
X158062953Y-50298878D01*
X158098277Y-50306871D01*
X158263638Y-50344289D01*
X158263642Y-50344290D01*
X158269186Y-50345544D01*
X158395315Y-50350500D01*
X158474789Y-50353623D01*
X158474791Y-50353623D01*
X158480470Y-50353846D01*
X158486090Y-50353031D01*
X158486092Y-50353031D01*
X158684103Y-50324320D01*
X158684104Y-50324320D01*
X158689730Y-50323504D01*
X158725644Y-50311313D01*
X158884565Y-50257367D01*
X158884568Y-50257366D01*
X158889955Y-50255537D01*
X158894916Y-50252759D01*
X158894922Y-50252756D01*
X159001530Y-50193052D01*
X159074442Y-50152219D01*
X159112165Y-50120846D01*
X159232645Y-50020644D01*
X159237012Y-50017012D01*
X159285535Y-49958669D01*
X159368584Y-49858813D01*
X159368585Y-49858811D01*
X159372219Y-49854442D01*
X159471946Y-49676368D01*
X159472756Y-49674922D01*
X159472759Y-49674916D01*
X159475537Y-49669955D01*
X159491232Y-49623721D01*
X159541675Y-49475118D01*
X159543504Y-49469730D01*
X159548941Y-49432232D01*
X159567820Y-49302033D01*
X159596921Y-49238512D01*
X159650225Y-49204346D01*
X159730974Y-49204346D01*
X159784347Y-49238736D01*
X159813296Y-49302327D01*
X159814271Y-49311707D01*
X159818796Y-49380749D01*
X159870845Y-49585690D01*
X159873219Y-49590841D01*
X159873221Y-49590845D01*
X159956989Y-49772552D01*
X159959369Y-49777714D01*
X160081405Y-49950391D01*
X160085476Y-49954357D01*
X160085477Y-49954358D01*
X160094245Y-49962899D01*
X160232865Y-50097937D01*
X160237588Y-50101093D01*
X160237592Y-50101096D01*
X160308663Y-50148584D01*
X160408677Y-50215411D01*
X160602953Y-50298878D01*
X160638277Y-50306871D01*
X160803638Y-50344289D01*
X160803642Y-50344290D01*
X160809186Y-50345544D01*
X160935315Y-50350500D01*
X161014789Y-50353623D01*
X161014791Y-50353623D01*
X161020470Y-50353846D01*
X161026090Y-50353031D01*
X161026092Y-50353031D01*
X161224103Y-50324320D01*
X161224104Y-50324320D01*
X161229730Y-50323504D01*
X161265644Y-50311313D01*
X161424565Y-50257367D01*
X161424568Y-50257366D01*
X161429955Y-50255537D01*
X161434916Y-50252759D01*
X161434922Y-50252756D01*
X161541530Y-50193052D01*
X161614442Y-50152219D01*
X161652165Y-50120846D01*
X161772645Y-50020644D01*
X161777012Y-50017012D01*
X161825535Y-49958669D01*
X161908584Y-49858813D01*
X161908585Y-49858811D01*
X161912219Y-49854442D01*
X162011946Y-49676368D01*
X162012756Y-49674922D01*
X162012759Y-49674916D01*
X162015537Y-49669955D01*
X162031232Y-49623721D01*
X162081675Y-49475118D01*
X162083504Y-49469730D01*
X162088941Y-49432232D01*
X162107820Y-49302033D01*
X162136921Y-49238512D01*
X162190225Y-49204346D01*
X162270974Y-49204346D01*
X162324347Y-49238736D01*
X162353296Y-49302327D01*
X162354271Y-49311707D01*
X162358796Y-49380749D01*
X162410845Y-49585690D01*
X162413219Y-49590841D01*
X162413221Y-49590845D01*
X162496989Y-49772552D01*
X162499369Y-49777714D01*
X162621405Y-49950391D01*
X162625476Y-49954357D01*
X162625477Y-49954358D01*
X162634245Y-49962899D01*
X162772865Y-50097937D01*
X162777588Y-50101093D01*
X162777592Y-50101096D01*
X162848663Y-50148584D01*
X162948677Y-50215411D01*
X163142953Y-50298878D01*
X163178277Y-50306871D01*
X163343638Y-50344289D01*
X163343642Y-50344290D01*
X163349186Y-50345544D01*
X163475315Y-50350500D01*
X163554789Y-50353623D01*
X163554791Y-50353623D01*
X163560470Y-50353846D01*
X163566090Y-50353031D01*
X163566092Y-50353031D01*
X163764103Y-50324320D01*
X163764104Y-50324320D01*
X163769730Y-50323504D01*
X163805644Y-50311313D01*
X163964565Y-50257367D01*
X163964568Y-50257366D01*
X163969955Y-50255537D01*
X163974916Y-50252759D01*
X163974922Y-50252756D01*
X164081530Y-50193052D01*
X164154442Y-50152219D01*
X164192165Y-50120846D01*
X164312645Y-50020644D01*
X164317012Y-50017012D01*
X164365535Y-49958669D01*
X164448584Y-49858813D01*
X164448585Y-49858811D01*
X164452219Y-49854442D01*
X164551946Y-49676368D01*
X164552756Y-49674922D01*
X164552759Y-49674916D01*
X164555537Y-49669955D01*
X164571232Y-49623721D01*
X164621675Y-49475118D01*
X164623504Y-49469730D01*
X164653846Y-49260470D01*
X164655429Y-49200000D01*
X164636081Y-48989440D01*
X164578686Y-48785931D01*
X164485165Y-48596290D01*
X164358651Y-48426867D01*
X164354481Y-48423012D01*
X164354478Y-48423009D01*
X164284880Y-48358674D01*
X164203381Y-48283337D01*
X164197574Y-48279673D01*
X164029363Y-48173539D01*
X164029361Y-48173538D01*
X164024554Y-48170505D01*
X163828160Y-48092152D01*
X163822579Y-48091042D01*
X163822576Y-48091041D01*
X163724468Y-48071527D01*
X163620775Y-48050901D01*
X163615088Y-48050827D01*
X163615083Y-48050826D01*
X163415034Y-48048207D01*
X163415029Y-48048207D01*
X163409346Y-48048133D01*
X163403742Y-48049096D01*
X163403741Y-48049096D01*
X163206550Y-48082979D01*
X163206547Y-48082980D01*
X163200953Y-48083941D01*
X163002575Y-48157127D01*
X162997697Y-48160029D01*
X162997695Y-48160030D01*
X162825740Y-48262332D01*
X162825737Y-48262334D01*
X162820856Y-48265238D01*
X162661881Y-48404655D01*
X162658362Y-48409119D01*
X162658359Y-48409122D01*
X162632968Y-48441331D01*
X162530976Y-48570708D01*
X162432523Y-48757836D01*
X162430837Y-48763267D01*
X162430835Y-48763271D01*
X162392516Y-48886680D01*
X162369820Y-48959773D01*
X162352851Y-49103140D01*
X162325425Y-49167398D01*
X162270974Y-49204346D01*
X162190225Y-49204346D01*
X162190667Y-49204063D01*
X162138057Y-49172081D01*
X162107453Y-49109271D01*
X162106232Y-49099909D01*
X162096601Y-48995100D01*
X162096081Y-48989440D01*
X162038686Y-48785931D01*
X161945165Y-48596290D01*
X161818651Y-48426867D01*
X161814481Y-48423012D01*
X161814478Y-48423009D01*
X161744880Y-48358674D01*
X161663381Y-48283337D01*
X161657574Y-48279673D01*
X161489363Y-48173539D01*
X161489361Y-48173538D01*
X161484554Y-48170505D01*
X161288160Y-48092152D01*
X161282579Y-48091042D01*
X161282576Y-48091041D01*
X161184468Y-48071527D01*
X161080775Y-48050901D01*
X161075088Y-48050827D01*
X161075083Y-48050826D01*
X160875034Y-48048207D01*
X160875029Y-48048207D01*
X160869346Y-48048133D01*
X160863742Y-48049096D01*
X160863741Y-48049096D01*
X160666550Y-48082979D01*
X160666547Y-48082980D01*
X160660953Y-48083941D01*
X160462575Y-48157127D01*
X160457697Y-48160029D01*
X160457695Y-48160030D01*
X160285740Y-48262332D01*
X160285737Y-48262334D01*
X160280856Y-48265238D01*
X160121881Y-48404655D01*
X160118362Y-48409119D01*
X160118359Y-48409122D01*
X160092968Y-48441331D01*
X159990976Y-48570708D01*
X159892523Y-48757836D01*
X159890837Y-48763267D01*
X159890835Y-48763271D01*
X159852516Y-48886680D01*
X159829820Y-48959773D01*
X159812851Y-49103140D01*
X159785425Y-49167398D01*
X159730974Y-49204346D01*
X159650225Y-49204346D01*
X159650667Y-49204063D01*
X159598057Y-49172081D01*
X159567453Y-49109271D01*
X159566232Y-49099909D01*
X159556601Y-48995100D01*
X159556081Y-48989440D01*
X159498686Y-48785931D01*
X159405165Y-48596290D01*
X159278651Y-48426867D01*
X159274481Y-48423012D01*
X159274478Y-48423009D01*
X159204880Y-48358674D01*
X159123381Y-48283337D01*
X159117574Y-48279673D01*
X158949363Y-48173539D01*
X158949361Y-48173538D01*
X158944554Y-48170505D01*
X158748160Y-48092152D01*
X158742579Y-48091042D01*
X158742576Y-48091041D01*
X158644468Y-48071527D01*
X158540775Y-48050901D01*
X158535088Y-48050827D01*
X158535083Y-48050826D01*
X158335034Y-48048207D01*
X158335029Y-48048207D01*
X158329346Y-48048133D01*
X158323742Y-48049096D01*
X158323741Y-48049096D01*
X158126550Y-48082979D01*
X158126547Y-48082980D01*
X158120953Y-48083941D01*
X157922575Y-48157127D01*
X157917697Y-48160029D01*
X157917695Y-48160030D01*
X157745740Y-48262332D01*
X157745737Y-48262334D01*
X157740856Y-48265238D01*
X157581881Y-48404655D01*
X157578362Y-48409119D01*
X157578359Y-48409122D01*
X157552968Y-48441331D01*
X157450976Y-48570708D01*
X157352523Y-48757836D01*
X157350837Y-48763267D01*
X157350835Y-48763271D01*
X157312516Y-48886680D01*
X157289820Y-48959773D01*
X157272851Y-49103140D01*
X157245425Y-49167398D01*
X157190974Y-49204346D01*
X157110225Y-49204346D01*
X157110667Y-49204063D01*
X157058057Y-49172081D01*
X157027453Y-49109271D01*
X157026232Y-49099909D01*
X157016601Y-48995100D01*
X157016081Y-48989440D01*
X156958686Y-48785931D01*
X156865165Y-48596290D01*
X156738651Y-48426867D01*
X156734481Y-48423012D01*
X156734478Y-48423009D01*
X156664880Y-48358674D01*
X156583381Y-48283337D01*
X156577574Y-48279673D01*
X156409363Y-48173539D01*
X156409361Y-48173538D01*
X156404554Y-48170505D01*
X156208160Y-48092152D01*
X156202579Y-48091042D01*
X156202576Y-48091041D01*
X156104468Y-48071527D01*
X156000775Y-48050901D01*
X155995088Y-48050827D01*
X155995083Y-48050826D01*
X155795034Y-48048207D01*
X155795029Y-48048207D01*
X155789346Y-48048133D01*
X155783742Y-48049096D01*
X155783741Y-48049096D01*
X155586550Y-48082979D01*
X155586547Y-48082980D01*
X155580953Y-48083941D01*
X155382575Y-48157127D01*
X155377697Y-48160029D01*
X155377695Y-48160030D01*
X155205740Y-48262332D01*
X155205737Y-48262334D01*
X155200856Y-48265238D01*
X155041881Y-48404655D01*
X155038362Y-48409119D01*
X155038359Y-48409122D01*
X155012968Y-48441331D01*
X154910976Y-48570708D01*
X154812523Y-48757836D01*
X154810837Y-48763267D01*
X154810835Y-48763271D01*
X154772516Y-48886680D01*
X154749820Y-48959773D01*
X154732851Y-49103140D01*
X154705425Y-49167398D01*
X154650974Y-49204346D01*
X154704347Y-49238736D01*
X154733296Y-49302327D01*
X154734271Y-49311707D01*
X154738796Y-49380749D01*
X154790845Y-49585690D01*
X154793219Y-49590841D01*
X154793221Y-49590845D01*
X154876989Y-49772552D01*
X154879369Y-49777714D01*
X155001405Y-49950391D01*
X155042028Y-49989964D01*
X155076311Y-50050841D01*
X155079500Y-50078783D01*
X155079500Y-52428325D01*
X155059815Y-52495364D01*
X155040365Y-52517457D01*
X155040861Y-52517953D01*
X154879953Y-52678861D01*
X154876851Y-52683292D01*
X154876847Y-52683296D01*
X154790428Y-52806717D01*
X154749432Y-52865266D01*
X154747142Y-52870177D01*
X154722382Y-52923275D01*
X154676210Y-52975714D01*
X154609016Y-52994866D01*
X154542135Y-52974650D01*
X154497618Y-52923275D01*
X154472858Y-52870177D01*
X154470568Y-52865266D01*
X154429572Y-52806717D01*
X154343153Y-52683296D01*
X154343149Y-52683292D01*
X154340047Y-52678861D01*
X154179139Y-52517953D01*
X154180391Y-52516701D01*
X154146089Y-52465134D01*
X154140500Y-52428325D01*
X154140500Y-50081692D01*
X154160185Y-50014653D01*
X154169163Y-50002402D01*
X154288584Y-49858813D01*
X154288585Y-49858811D01*
X154292219Y-49854442D01*
X154391946Y-49676368D01*
X154392756Y-49674922D01*
X154392759Y-49674916D01*
X154395537Y-49669955D01*
X154411232Y-49623721D01*
X154461675Y-49475118D01*
X154463504Y-49469730D01*
X154468941Y-49432232D01*
X154487820Y-49302033D01*
X154516921Y-49238512D01*
X154570667Y-49204063D01*
X154518057Y-49172081D01*
X154487453Y-49109271D01*
X154486232Y-49099909D01*
X154476601Y-48995100D01*
X154476081Y-48989440D01*
X154418686Y-48785931D01*
X154325165Y-48596290D01*
X154198651Y-48426867D01*
X154194481Y-48423012D01*
X154194478Y-48423009D01*
X154124880Y-48358674D01*
X154043381Y-48283337D01*
X154037574Y-48279673D01*
X153869363Y-48173539D01*
X153869361Y-48173538D01*
X153864554Y-48170505D01*
X153668160Y-48092152D01*
X153662579Y-48091042D01*
X153662576Y-48091041D01*
X153564468Y-48071527D01*
X153460775Y-48050901D01*
X153455088Y-48050827D01*
X153455083Y-48050826D01*
X153255034Y-48048207D01*
X153255029Y-48048207D01*
X153249346Y-48048133D01*
X153243742Y-48049096D01*
X153243741Y-48049096D01*
X153046550Y-48082979D01*
X153046547Y-48082980D01*
X153040953Y-48083941D01*
X152842575Y-48157127D01*
X152837697Y-48160029D01*
X152837695Y-48160030D01*
X152665740Y-48262332D01*
X152665737Y-48262334D01*
X152660856Y-48265238D01*
X152501881Y-48404655D01*
X152498362Y-48409119D01*
X152498359Y-48409122D01*
X152472968Y-48441331D01*
X152370976Y-48570708D01*
X152272523Y-48757836D01*
X152270837Y-48763267D01*
X152270835Y-48763271D01*
X152232516Y-48886680D01*
X152209820Y-48959773D01*
X152192851Y-49103140D01*
X152165425Y-49167398D01*
X152110974Y-49204346D01*
X152164347Y-49238736D01*
X152193296Y-49302327D01*
X152194271Y-49311707D01*
X152198796Y-49380749D01*
X152250845Y-49585690D01*
X152253219Y-49590841D01*
X152253221Y-49590845D01*
X152336989Y-49772552D01*
X152339369Y-49777714D01*
X152461405Y-49950391D01*
X152502028Y-49989964D01*
X152536311Y-50050841D01*
X152539500Y-50078783D01*
X152539500Y-52428325D01*
X152519815Y-52495364D01*
X152500365Y-52517457D01*
X152500861Y-52517953D01*
X152339953Y-52678861D01*
X152336851Y-52683292D01*
X152336847Y-52683296D01*
X152250428Y-52806717D01*
X152209432Y-52865266D01*
X152207142Y-52870177D01*
X152182382Y-52923275D01*
X152136210Y-52975714D01*
X152069016Y-52994866D01*
X152002135Y-52974650D01*
X151957618Y-52923275D01*
X151932858Y-52870177D01*
X151930568Y-52865266D01*
X151889572Y-52806717D01*
X151803153Y-52683296D01*
X151803149Y-52683292D01*
X151800047Y-52678861D01*
X151639139Y-52517953D01*
X151640391Y-52516701D01*
X151606089Y-52465134D01*
X151600500Y-52428325D01*
X151600500Y-50081692D01*
X151620185Y-50014653D01*
X151629163Y-50002402D01*
X151748584Y-49858813D01*
X151748585Y-49858811D01*
X151752219Y-49854442D01*
X151851946Y-49676368D01*
X151852756Y-49674922D01*
X151852759Y-49674916D01*
X151855537Y-49669955D01*
X151871232Y-49623721D01*
X151921675Y-49475118D01*
X151923504Y-49469730D01*
X151928941Y-49432232D01*
X151947820Y-49302033D01*
X151976921Y-49238512D01*
X152030667Y-49204063D01*
X151978057Y-49172081D01*
X151947453Y-49109271D01*
X151946232Y-49099909D01*
X151936601Y-48995100D01*
X151936081Y-48989440D01*
X151878686Y-48785931D01*
X151785165Y-48596290D01*
X151658651Y-48426867D01*
X151654481Y-48423012D01*
X151654478Y-48423009D01*
X151584880Y-48358674D01*
X151503381Y-48283337D01*
X151497574Y-48279673D01*
X151329363Y-48173539D01*
X151329361Y-48173538D01*
X151324554Y-48170505D01*
X151128160Y-48092152D01*
X151122579Y-48091042D01*
X151122576Y-48091041D01*
X151024468Y-48071527D01*
X150920775Y-48050901D01*
X150915088Y-48050827D01*
X150915083Y-48050826D01*
X150715034Y-48048207D01*
X150715029Y-48048207D01*
X150709346Y-48048133D01*
X150703742Y-48049096D01*
X150703741Y-48049096D01*
X150506550Y-48082979D01*
X150506547Y-48082980D01*
X150500953Y-48083941D01*
X150302575Y-48157127D01*
X150297697Y-48160029D01*
X150297695Y-48160030D01*
X150125740Y-48262332D01*
X150125737Y-48262334D01*
X150120856Y-48265238D01*
X149961881Y-48404655D01*
X149958362Y-48409119D01*
X149958359Y-48409122D01*
X149932968Y-48441331D01*
X149830976Y-48570708D01*
X149732523Y-48757836D01*
X149730837Y-48763267D01*
X149730835Y-48763271D01*
X149692516Y-48886680D01*
X149669820Y-48959773D01*
X149652851Y-49103140D01*
X149625425Y-49167398D01*
X149570974Y-49204346D01*
X149624347Y-49238736D01*
X149653296Y-49302327D01*
X149654271Y-49311707D01*
X149658796Y-49380749D01*
X149710845Y-49585690D01*
X149713219Y-49590841D01*
X149713221Y-49590845D01*
X149796989Y-49772552D01*
X149799369Y-49777714D01*
X149921405Y-49950391D01*
X149962028Y-49989964D01*
X149996311Y-50050841D01*
X149999500Y-50078783D01*
X149999500Y-52428325D01*
X149979815Y-52495364D01*
X149960365Y-52517457D01*
X149960861Y-52517953D01*
X149799953Y-52678861D01*
X149796851Y-52683292D01*
X149796847Y-52683296D01*
X149710428Y-52806717D01*
X149669432Y-52865266D01*
X149667142Y-52870177D01*
X149642382Y-52923275D01*
X149596210Y-52975714D01*
X149529016Y-52994866D01*
X149462135Y-52974650D01*
X149417618Y-52923275D01*
X149392858Y-52870177D01*
X149390568Y-52865266D01*
X149349572Y-52806717D01*
X149263153Y-52683296D01*
X149263149Y-52683292D01*
X149260047Y-52678861D01*
X149099139Y-52517953D01*
X149094708Y-52514851D01*
X149094704Y-52514847D01*
X148917173Y-52390540D01*
X148917171Y-52390539D01*
X148912734Y-52387432D01*
X148891761Y-52377652D01*
X148711406Y-52293550D01*
X148711400Y-52293548D01*
X148706496Y-52291261D01*
X148486692Y-52232365D01*
X148481307Y-52231894D01*
X148481302Y-52231893D01*
X148265395Y-52213004D01*
X148260000Y-52212532D01*
X148254605Y-52213004D01*
X148038698Y-52231893D01*
X148038693Y-52231894D01*
X148033308Y-52232365D01*
X147813504Y-52291261D01*
X147808600Y-52293548D01*
X147808594Y-52293550D01*
X147628239Y-52377652D01*
X147607266Y-52387432D01*
X147602829Y-52390539D01*
X147602827Y-52390540D01*
X147425296Y-52514847D01*
X147425292Y-52514851D01*
X147420861Y-52517953D01*
X147259953Y-52678861D01*
X147256851Y-52683292D01*
X147256847Y-52683296D01*
X147211641Y-52747858D01*
X147157064Y-52791483D01*
X147087566Y-52798677D01*
X147025211Y-52767154D01*
X147005953Y-52744089D01*
X146953381Y-52662824D01*
X146942865Y-52653769D01*
X146933451Y-52658102D01*
X146086160Y-53505393D01*
X146078668Y-53519113D01*
X146078797Y-53520919D01*
X146082979Y-53527426D01*
X146930066Y-54374513D01*
X146941884Y-54380966D01*
X146953437Y-54372140D01*
X147010158Y-54293205D01*
X147011442Y-54294128D01*
X147057634Y-54251593D01*
X147126461Y-54239566D01*
X147190864Y-54266659D01*
X147214103Y-54291658D01*
X147256847Y-54352704D01*
X147256851Y-54352708D01*
X147259953Y-54357139D01*
X147420861Y-54518047D01*
X147419609Y-54519299D01*
X147453911Y-54570866D01*
X147459500Y-54607675D01*
X147459500Y-58943500D01*
X147439815Y-59010539D01*
X147387011Y-59056294D01*
X147335500Y-59067500D01*
X140768940Y-59067500D01*
X140701901Y-59047815D01*
X140681259Y-59031181D01*
X139952819Y-58302741D01*
X139919334Y-58241418D01*
X139916500Y-58215060D01*
X139916500Y-54607675D01*
X139936185Y-54540636D01*
X139955635Y-54518543D01*
X139955139Y-54518047D01*
X140116047Y-54357139D01*
X140119149Y-54352708D01*
X140119153Y-54352704D01*
X140243460Y-54175173D01*
X140243461Y-54175171D01*
X140246568Y-54170734D01*
X140273618Y-54112724D01*
X140319790Y-54060286D01*
X140386984Y-54041134D01*
X140453865Y-54061350D01*
X140498382Y-54112724D01*
X140525432Y-54170734D01*
X140528539Y-54175171D01*
X140528540Y-54175173D01*
X140652847Y-54352704D01*
X140652851Y-54352708D01*
X140655953Y-54357139D01*
X140816861Y-54518047D01*
X140821292Y-54521149D01*
X140821296Y-54521153D01*
X140944864Y-54607675D01*
X141003266Y-54648568D01*
X141008177Y-54650858D01*
X141204594Y-54742450D01*
X141204600Y-54742452D01*
X141209504Y-54744739D01*
X141429308Y-54803635D01*
X141434693Y-54804106D01*
X141434698Y-54804107D01*
X141650605Y-54822996D01*
X141656000Y-54823468D01*
X141661395Y-54822996D01*
X141877302Y-54804107D01*
X141877307Y-54804106D01*
X141882692Y-54803635D01*
X142102496Y-54744739D01*
X142103821Y-54744121D01*
X144853370Y-54744121D01*
X144858999Y-54752048D01*
X144861083Y-54753508D01*
X145065256Y-54872818D01*
X145074408Y-54877202D01*
X145295321Y-54961560D01*
X145305064Y-54964391D01*
X145536800Y-55011539D01*
X145546870Y-55012739D01*
X145783199Y-55021406D01*
X145793320Y-55020946D01*
X146027893Y-54990896D01*
X146037806Y-54988789D01*
X146264325Y-54920830D01*
X146273752Y-54917136D01*
X146486126Y-54813095D01*
X146494841Y-54807900D01*
X146574592Y-54751014D01*
X146582860Y-54740482D01*
X146575984Y-54727537D01*
X145732607Y-53884160D01*
X145718887Y-53876668D01*
X145717081Y-53876797D01*
X145710574Y-53880979D01*
X144860512Y-54731041D01*
X144853370Y-54744121D01*
X142103821Y-54744121D01*
X142107400Y-54742452D01*
X142107406Y-54742450D01*
X142303823Y-54650858D01*
X142308734Y-54648568D01*
X142367136Y-54607675D01*
X142490704Y-54521153D01*
X142490708Y-54521149D01*
X142495139Y-54518047D01*
X142656047Y-54357139D01*
X142659149Y-54352708D01*
X142659153Y-54352704D01*
X142783460Y-54175173D01*
X142783461Y-54175171D01*
X142786568Y-54170734D01*
X142847002Y-54041134D01*
X142880450Y-53969406D01*
X142880452Y-53969400D01*
X142882739Y-53964496D01*
X142941635Y-53744692D01*
X142961468Y-53518000D01*
X142958695Y-53486309D01*
X144215601Y-53486309D01*
X144229214Y-53722394D01*
X144230626Y-53732439D01*
X144282615Y-53963135D01*
X144285647Y-53972810D01*
X144374617Y-54191918D01*
X144379194Y-54200978D01*
X144485490Y-54374437D01*
X144495784Y-54383749D01*
X144504421Y-54380026D01*
X145353840Y-53530607D01*
X145361332Y-53516887D01*
X145361203Y-53515081D01*
X145357021Y-53508574D01*
X144509747Y-52661300D01*
X144498396Y-52655102D01*
X144486307Y-52664573D01*
X144414156Y-52770344D01*
X144409144Y-52779166D01*
X144309581Y-52993658D01*
X144306076Y-53003183D01*
X144242878Y-53231064D01*
X144240979Y-53241020D01*
X144215849Y-53476166D01*
X144215601Y-53486309D01*
X142958695Y-53486309D01*
X142947519Y-53358559D01*
X142942107Y-53296698D01*
X142942106Y-53296693D01*
X142941635Y-53291308D01*
X142882739Y-53071504D01*
X142880452Y-53066600D01*
X142880450Y-53066594D01*
X142788858Y-52870177D01*
X142786568Y-52865266D01*
X142745572Y-52806717D01*
X142659153Y-52683296D01*
X142659149Y-52683292D01*
X142656047Y-52678861D01*
X142495139Y-52517953D01*
X142490708Y-52514851D01*
X142490704Y-52514847D01*
X142313173Y-52390540D01*
X142313171Y-52390539D01*
X142308734Y-52387432D01*
X142287761Y-52377652D01*
X142111412Y-52295418D01*
X144856468Y-52295418D01*
X144863105Y-52307552D01*
X145707393Y-53151840D01*
X145721113Y-53159332D01*
X145722919Y-53159203D01*
X145729426Y-53155021D01*
X146577860Y-52306587D01*
X146584767Y-52293937D01*
X146577117Y-52283436D01*
X146556927Y-52267491D01*
X146548478Y-52261877D01*
X146341447Y-52147590D01*
X146332190Y-52143431D01*
X146109283Y-52064494D01*
X146099468Y-52061901D01*
X145866656Y-52020431D01*
X145856562Y-52019477D01*
X145620097Y-52016587D01*
X145609972Y-52017295D01*
X145376222Y-52053065D01*
X145366348Y-52055417D01*
X145141569Y-52128886D01*
X145132220Y-52132816D01*
X144922461Y-52242009D01*
X144913876Y-52247416D01*
X144864786Y-52284273D01*
X144856468Y-52295418D01*
X142111412Y-52295418D01*
X142107406Y-52293550D01*
X142107400Y-52293548D01*
X142102496Y-52291261D01*
X141882692Y-52232365D01*
X141877307Y-52231894D01*
X141877302Y-52231893D01*
X141661395Y-52213004D01*
X141656000Y-52212532D01*
X141650605Y-52213004D01*
X141434698Y-52231893D01*
X141434693Y-52231894D01*
X141429308Y-52232365D01*
X141209504Y-52291261D01*
X141204600Y-52293548D01*
X141204594Y-52293550D01*
X141024239Y-52377652D01*
X141003266Y-52387432D01*
X140998829Y-52390539D01*
X140998827Y-52390540D01*
X140821296Y-52514847D01*
X140821292Y-52514851D01*
X140816861Y-52517953D01*
X140655953Y-52678861D01*
X140652851Y-52683292D01*
X140652847Y-52683296D01*
X140566428Y-52806717D01*
X140525432Y-52865266D01*
X140523142Y-52870177D01*
X140498382Y-52923275D01*
X140452210Y-52975714D01*
X140385016Y-52994866D01*
X140318135Y-52974650D01*
X140273618Y-52923275D01*
X140248858Y-52870177D01*
X140246568Y-52865266D01*
X140205572Y-52806717D01*
X140119153Y-52683296D01*
X140119149Y-52683292D01*
X140116047Y-52678861D01*
X139955139Y-52517953D01*
X139950708Y-52514851D01*
X139950704Y-52514847D01*
X139773173Y-52390540D01*
X139773171Y-52390539D01*
X139768734Y-52387432D01*
X139747761Y-52377652D01*
X139567406Y-52293550D01*
X139567400Y-52293548D01*
X139562496Y-52291261D01*
X139342692Y-52232365D01*
X139337307Y-52231894D01*
X139337302Y-52231893D01*
X139121395Y-52213004D01*
X139116000Y-52212532D01*
X139110605Y-52213004D01*
X138894698Y-52231893D01*
X138894693Y-52231894D01*
X138889308Y-52232365D01*
X138669504Y-52291261D01*
X138664600Y-52293548D01*
X138664594Y-52293550D01*
X138484239Y-52377652D01*
X138463266Y-52387432D01*
X138458829Y-52390539D01*
X138458827Y-52390540D01*
X138281296Y-52514847D01*
X138281292Y-52514851D01*
X138276861Y-52517953D01*
X138115953Y-52678861D01*
X138112851Y-52683292D01*
X138112847Y-52683296D01*
X138067641Y-52747858D01*
X138013064Y-52791483D01*
X137943566Y-52798677D01*
X137881211Y-52767154D01*
X137861953Y-52744089D01*
X137809381Y-52662824D01*
X137798865Y-52653769D01*
X137789451Y-52658102D01*
X136942160Y-53505393D01*
X136934668Y-53519113D01*
X136934797Y-53520919D01*
X136938979Y-53527426D01*
X137786066Y-54374513D01*
X137797884Y-54380966D01*
X137809437Y-54372140D01*
X137866158Y-54293205D01*
X137867442Y-54294128D01*
X137913634Y-54251593D01*
X137982461Y-54239566D01*
X138046864Y-54266659D01*
X138070103Y-54291658D01*
X138112847Y-54352704D01*
X138112851Y-54352708D01*
X138115953Y-54357139D01*
X138276861Y-54518047D01*
X138275609Y-54519299D01*
X138309911Y-54570866D01*
X138315500Y-54607675D01*
X138315500Y-58588938D01*
X138315493Y-58590237D01*
X138314559Y-58679407D01*
X138316024Y-58686184D01*
X138316025Y-58686192D01*
X138323638Y-58721402D01*
X138325665Y-58733782D01*
X138330454Y-58776472D01*
X138341389Y-58807873D01*
X138345485Y-58822444D01*
X138351046Y-58848169D01*
X138351048Y-58848175D01*
X138352511Y-58854942D01*
X138355439Y-58861222D01*
X138355440Y-58861224D01*
X138370669Y-58893883D01*
X138375382Y-58905490D01*
X138389515Y-58946073D01*
X138393188Y-58951952D01*
X138393190Y-58951955D01*
X138407135Y-58974271D01*
X138414356Y-58987569D01*
X138428409Y-59017707D01*
X138432660Y-59023187D01*
X138454736Y-59051646D01*
X138461918Y-59061941D01*
X138481007Y-59092492D01*
X138481012Y-59092498D01*
X138484684Y-59098375D01*
X138513003Y-59126893D01*
X138513584Y-59127514D01*
X138514099Y-59128177D01*
X138539959Y-59154037D01*
X138611230Y-59225807D01*
X138612254Y-59226457D01*
X138613471Y-59227549D01*
X139813496Y-60427574D01*
X139814410Y-60428497D01*
X139876859Y-60492268D01*
X139882684Y-60496022D01*
X139882689Y-60496026D01*
X139912971Y-60515541D01*
X139923160Y-60522862D01*
X139956734Y-60549664D01*
X139986667Y-60564134D01*
X139999867Y-60571541D01*
X140027817Y-60589554D01*
X140068188Y-60604248D01*
X140079742Y-60609129D01*
X140118422Y-60627827D01*
X140125174Y-60629386D01*
X140125180Y-60629388D01*
X140150817Y-60635306D01*
X140165325Y-60639603D01*
X140196578Y-60650978D01*
X140224038Y-60654447D01*
X140239202Y-60656363D01*
X140251550Y-60658563D01*
X140286653Y-60666666D01*
X140286654Y-60666666D01*
X140293411Y-60668226D01*
X140315290Y-60668303D01*
X140333574Y-60668367D01*
X140334457Y-60668396D01*
X140335283Y-60668500D01*
X140371745Y-60668500D01*
X140372178Y-60668501D01*
X140469511Y-60668841D01*
X140469514Y-60668841D01*
X140473000Y-60668853D01*
X140474186Y-60668588D01*
X140475807Y-60668500D01*
X147843500Y-60668500D01*
X147910539Y-60688185D01*
X147956294Y-60740989D01*
X147967500Y-60792500D01*
X147967500Y-78178325D01*
X147947815Y-78245364D01*
X147928365Y-78267457D01*
X147928861Y-78267953D01*
X147767953Y-78428861D01*
X147764851Y-78433292D01*
X147764847Y-78433296D01*
X147719641Y-78497858D01*
X147665064Y-78541483D01*
X147595566Y-78548677D01*
X147533211Y-78517154D01*
X147513953Y-78494089D01*
X147461381Y-78412824D01*
X147450865Y-78403769D01*
X147441451Y-78408102D01*
X146594160Y-79255393D01*
X146586668Y-79269113D01*
X146586797Y-79270919D01*
X146590979Y-79277426D01*
X147438066Y-80124513D01*
X147449884Y-80130966D01*
X147461437Y-80122140D01*
X147518158Y-80043205D01*
X147519442Y-80044128D01*
X147565634Y-80001593D01*
X147634461Y-79989566D01*
X147698864Y-80016659D01*
X147722103Y-80041658D01*
X147764847Y-80102704D01*
X147764851Y-80102708D01*
X147767953Y-80107139D01*
X147928861Y-80268047D01*
X147927609Y-80269299D01*
X147961911Y-80320866D01*
X147967500Y-80357675D01*
X147967500Y-94029060D01*
X147947815Y-94096099D01*
X147931181Y-94116741D01*
X145775355Y-96272567D01*
X145714032Y-96306052D01*
X145686052Y-96308875D01*
X145635035Y-96308207D01*
X145635030Y-96308207D01*
X145629346Y-96308133D01*
X145623742Y-96309096D01*
X145623741Y-96309096D01*
X145426550Y-96342979D01*
X145426547Y-96342980D01*
X145420953Y-96343941D01*
X145222575Y-96417127D01*
X145217697Y-96420029D01*
X145217695Y-96420030D01*
X145045740Y-96522332D01*
X145045737Y-96522334D01*
X145040856Y-96525238D01*
X144881881Y-96664655D01*
X144878362Y-96669119D01*
X144878359Y-96669122D01*
X144852968Y-96701331D01*
X144750976Y-96830708D01*
X144696214Y-96934793D01*
X144668685Y-96987117D01*
X144620050Y-97037281D01*
X144552015Y-97053187D01*
X144486181Y-97029786D01*
X144446565Y-96981786D01*
X144355890Y-96787333D01*
X144350492Y-96777983D01*
X144221216Y-96593357D01*
X144214281Y-96585093D01*
X144054909Y-96425721D01*
X144046643Y-96418785D01*
X143862008Y-96289502D01*
X143852676Y-96284114D01*
X143648397Y-96188857D01*
X143638264Y-96185168D01*
X143447221Y-96133978D01*
X143433347Y-96134309D01*
X143430000Y-96142125D01*
X143430000Y-97586000D01*
X143410315Y-97653039D01*
X143357511Y-97698794D01*
X143306000Y-97710000D01*
X140514000Y-97710000D01*
X140446961Y-97690315D01*
X140401206Y-97637511D01*
X140390000Y-97586000D01*
X140390000Y-97192170D01*
X140890000Y-97192170D01*
X140894404Y-97207169D01*
X140895774Y-97208356D01*
X140903332Y-97210000D01*
X142912170Y-97210000D01*
X142927169Y-97205596D01*
X142928356Y-97204226D01*
X142930000Y-97196668D01*
X142930000Y-96147194D01*
X142926090Y-96133877D01*
X142917674Y-96132667D01*
X142721736Y-96185168D01*
X142711603Y-96188857D01*
X142507333Y-96284110D01*
X142497983Y-96289508D01*
X142313357Y-96418784D01*
X142305093Y-96425719D01*
X142145719Y-96585093D01*
X142138789Y-96593352D01*
X142011575Y-96775032D01*
X141956998Y-96818656D01*
X141887499Y-96825849D01*
X141825145Y-96794327D01*
X141808425Y-96775032D01*
X141681211Y-96593352D01*
X141674281Y-96585093D01*
X141514909Y-96425721D01*
X141506643Y-96418785D01*
X141322008Y-96289502D01*
X141312676Y-96284114D01*
X141108397Y-96188857D01*
X141098264Y-96185168D01*
X140907221Y-96133978D01*
X140893347Y-96134309D01*
X140890000Y-96142125D01*
X140890000Y-97192170D01*
X140390000Y-97192170D01*
X140390000Y-96147194D01*
X140386090Y-96133877D01*
X140377674Y-96132667D01*
X140181736Y-96185168D01*
X140171603Y-96188857D01*
X139967333Y-96284110D01*
X139957983Y-96289508D01*
X139773357Y-96418784D01*
X139765093Y-96425719D01*
X139605719Y-96585093D01*
X139598784Y-96593357D01*
X139469508Y-96777983D01*
X139464110Y-96787333D01*
X139372664Y-96983438D01*
X139326491Y-97035877D01*
X139259298Y-97055029D01*
X139192417Y-97034813D01*
X139149071Y-96985878D01*
X139085165Y-96856290D01*
X138958651Y-96686867D01*
X138954480Y-96683012D01*
X138954477Y-96683008D01*
X138940328Y-96669929D01*
X138904462Y-96609968D01*
X138900500Y-96578874D01*
X138900500Y-94421062D01*
X138900507Y-94419763D01*
X138901368Y-94337530D01*
X138901441Y-94330593D01*
X138899976Y-94323816D01*
X138899975Y-94323808D01*
X138892362Y-94288598D01*
X138890334Y-94276215D01*
X138890256Y-94275514D01*
X138885546Y-94233528D01*
X138874611Y-94202127D01*
X138870515Y-94187556D01*
X138864954Y-94161831D01*
X138864952Y-94161825D01*
X138863489Y-94155058D01*
X138845331Y-94116117D01*
X138840618Y-94104510D01*
X138826485Y-94063927D01*
X138808865Y-94035729D01*
X138801644Y-94022431D01*
X138787591Y-93992293D01*
X138761260Y-93958348D01*
X138754082Y-93948059D01*
X138734993Y-93917508D01*
X138734988Y-93917502D01*
X138731316Y-93911625D01*
X138702997Y-93883107D01*
X138702416Y-93882486D01*
X138701901Y-93881823D01*
X138676041Y-93855963D01*
X138604770Y-93784193D01*
X138603746Y-93783543D01*
X138602529Y-93782451D01*
X137287759Y-92467681D01*
X137254274Y-92406358D01*
X137259258Y-92336666D01*
X137287759Y-92292319D01*
X139167574Y-90412504D01*
X139168497Y-90411590D01*
X139227318Y-90353988D01*
X139232268Y-90349141D01*
X139255547Y-90313019D01*
X139262860Y-90302842D01*
X139289663Y-90269266D01*
X139292678Y-90263029D01*
X139292682Y-90263023D01*
X139304131Y-90239339D01*
X139311540Y-90226137D01*
X139325797Y-90204014D01*
X139325800Y-90204009D01*
X139329554Y-90198183D01*
X139331922Y-90191677D01*
X139331927Y-90191667D01*
X139344252Y-90157804D01*
X139349133Y-90146248D01*
X139364810Y-90113819D01*
X139367827Y-90107578D01*
X139375306Y-90075183D01*
X139379606Y-90060668D01*
X139388608Y-90035934D01*
X139388608Y-90035932D01*
X139390978Y-90029422D01*
X139396363Y-89986798D01*
X139398563Y-89974447D01*
X139406667Y-89939344D01*
X139406667Y-89939342D01*
X139408226Y-89932590D01*
X139408367Y-89892426D01*
X139408396Y-89891543D01*
X139408500Y-89890717D01*
X139408500Y-89854109D01*
X139408853Y-89753000D01*
X139408588Y-89751814D01*
X139408500Y-89750193D01*
X139408500Y-80494121D01*
X145361370Y-80494121D01*
X145366999Y-80502048D01*
X145369083Y-80503508D01*
X145573256Y-80622818D01*
X145582408Y-80627202D01*
X145803321Y-80711560D01*
X145813064Y-80714391D01*
X146044800Y-80761539D01*
X146054870Y-80762739D01*
X146291199Y-80771406D01*
X146301320Y-80770946D01*
X146535893Y-80740896D01*
X146545806Y-80738789D01*
X146772325Y-80670830D01*
X146781752Y-80667136D01*
X146994126Y-80563095D01*
X147002841Y-80557900D01*
X147082592Y-80501014D01*
X147090860Y-80490482D01*
X147083984Y-80477537D01*
X146240607Y-79634160D01*
X146226887Y-79626668D01*
X146225081Y-79626797D01*
X146218574Y-79630979D01*
X145368512Y-80481041D01*
X145361370Y-80494121D01*
X139408500Y-80494121D01*
X139408500Y-79236309D01*
X144723601Y-79236309D01*
X144737214Y-79472394D01*
X144738626Y-79482439D01*
X144790615Y-79713135D01*
X144793647Y-79722810D01*
X144882617Y-79941918D01*
X144887194Y-79950978D01*
X144993490Y-80124437D01*
X145003784Y-80133749D01*
X145012421Y-80130026D01*
X145861840Y-79280607D01*
X145869332Y-79266887D01*
X145869203Y-79265081D01*
X145865021Y-79258574D01*
X145017747Y-78411300D01*
X145006396Y-78405102D01*
X144994307Y-78414573D01*
X144922156Y-78520344D01*
X144917144Y-78529166D01*
X144817581Y-78743658D01*
X144814076Y-78753183D01*
X144750878Y-78981064D01*
X144748979Y-78991020D01*
X144723849Y-79226166D01*
X144723601Y-79236309D01*
X139408500Y-79236309D01*
X139408500Y-78045418D01*
X145364468Y-78045418D01*
X145371105Y-78057552D01*
X146215393Y-78901840D01*
X146229113Y-78909332D01*
X146230919Y-78909203D01*
X146237426Y-78905021D01*
X147085860Y-78056587D01*
X147092767Y-78043937D01*
X147085117Y-78033436D01*
X147064927Y-78017491D01*
X147056478Y-78011877D01*
X146849447Y-77897590D01*
X146840190Y-77893431D01*
X146617283Y-77814494D01*
X146607468Y-77811901D01*
X146374656Y-77770431D01*
X146364562Y-77769477D01*
X146128097Y-77766587D01*
X146117972Y-77767295D01*
X145884222Y-77803065D01*
X145874348Y-77805417D01*
X145649569Y-77878886D01*
X145640220Y-77882816D01*
X145430461Y-77992009D01*
X145421876Y-77997416D01*
X145372786Y-78034273D01*
X145364468Y-78045418D01*
X139408500Y-78045418D01*
X139408500Y-74877675D01*
X139428185Y-74810636D01*
X139447635Y-74788543D01*
X139447139Y-74788047D01*
X139608047Y-74627139D01*
X139611149Y-74622708D01*
X139611153Y-74622704D01*
X139735460Y-74445173D01*
X139735461Y-74445171D01*
X139738568Y-74440734D01*
X139765618Y-74382724D01*
X139811790Y-74330286D01*
X139878984Y-74311134D01*
X139945865Y-74331350D01*
X139990382Y-74382724D01*
X140017432Y-74440734D01*
X140020539Y-74445171D01*
X140020540Y-74445173D01*
X140144847Y-74622704D01*
X140144851Y-74622708D01*
X140147953Y-74627139D01*
X140308861Y-74788047D01*
X140313292Y-74791149D01*
X140313296Y-74791153D01*
X140436864Y-74877675D01*
X140495266Y-74918568D01*
X140500177Y-74920858D01*
X140696594Y-75012450D01*
X140696600Y-75012452D01*
X140701504Y-75014739D01*
X140921308Y-75073635D01*
X140926693Y-75074106D01*
X140926698Y-75074107D01*
X141142605Y-75092996D01*
X141148000Y-75093468D01*
X141153395Y-75092996D01*
X141369302Y-75074107D01*
X141369307Y-75074106D01*
X141374692Y-75073635D01*
X141594496Y-75014739D01*
X141599400Y-75012452D01*
X141599406Y-75012450D01*
X141795823Y-74920858D01*
X141800734Y-74918568D01*
X141859136Y-74877675D01*
X141982704Y-74791153D01*
X141982708Y-74791149D01*
X141987139Y-74788047D01*
X142148047Y-74627139D01*
X142151149Y-74622708D01*
X142151153Y-74622704D01*
X142275460Y-74445173D01*
X142275461Y-74445171D01*
X142278568Y-74440734D01*
X142340936Y-74306986D01*
X142372450Y-74239406D01*
X142372452Y-74239400D01*
X142374739Y-74234496D01*
X142433635Y-74014692D01*
X142438199Y-73962533D01*
X142452996Y-73793395D01*
X142452996Y-73793394D01*
X142453468Y-73788000D01*
X142447212Y-73716496D01*
X142434107Y-73566698D01*
X142434106Y-73566693D01*
X142433635Y-73561308D01*
X142374739Y-73341504D01*
X142372452Y-73336600D01*
X142372450Y-73336594D01*
X142280858Y-73140177D01*
X142278568Y-73135266D01*
X142256191Y-73103308D01*
X142151153Y-72953296D01*
X142151149Y-72953292D01*
X142148047Y-72948861D01*
X141987139Y-72787953D01*
X141982708Y-72784851D01*
X141982704Y-72784847D01*
X141805173Y-72660540D01*
X141805171Y-72660539D01*
X141800734Y-72657432D01*
X141725130Y-72622177D01*
X141599406Y-72563550D01*
X141599400Y-72563548D01*
X141594496Y-72561261D01*
X141374692Y-72502365D01*
X141369307Y-72501894D01*
X141369302Y-72501893D01*
X141153395Y-72483004D01*
X141148000Y-72482532D01*
X141142605Y-72483004D01*
X140926698Y-72501893D01*
X140926693Y-72501894D01*
X140921308Y-72502365D01*
X140701504Y-72561261D01*
X140696600Y-72563548D01*
X140696594Y-72563550D01*
X140570870Y-72622177D01*
X140495266Y-72657432D01*
X140490829Y-72660539D01*
X140490827Y-72660540D01*
X140313296Y-72784847D01*
X140313292Y-72784851D01*
X140308861Y-72787953D01*
X140147953Y-72948861D01*
X140144851Y-72953292D01*
X140144847Y-72953296D01*
X140039809Y-73103308D01*
X140017432Y-73135266D01*
X140015142Y-73140177D01*
X139990382Y-73193275D01*
X139944210Y-73245714D01*
X139877016Y-73264866D01*
X139810135Y-73244650D01*
X139765618Y-73193275D01*
X139740858Y-73140177D01*
X139738568Y-73135266D01*
X139716191Y-73103308D01*
X139611153Y-72953296D01*
X139611149Y-72953292D01*
X139608047Y-72948861D01*
X139447139Y-72787953D01*
X139442708Y-72784851D01*
X139442704Y-72784847D01*
X139265173Y-72660540D01*
X139265171Y-72660539D01*
X139260734Y-72657432D01*
X139185130Y-72622177D01*
X139059406Y-72563550D01*
X139059400Y-72563548D01*
X139054496Y-72561261D01*
X138834692Y-72502365D01*
X138829307Y-72501894D01*
X138829302Y-72501893D01*
X138613395Y-72483004D01*
X138608000Y-72482532D01*
X138602605Y-72483004D01*
X138386698Y-72501893D01*
X138386693Y-72501894D01*
X138381308Y-72502365D01*
X138161504Y-72561261D01*
X138156600Y-72563548D01*
X138156594Y-72563550D01*
X138030870Y-72622177D01*
X137955266Y-72657432D01*
X137950829Y-72660539D01*
X137950827Y-72660540D01*
X137773296Y-72784847D01*
X137773292Y-72784851D01*
X137768861Y-72787953D01*
X137607953Y-72948861D01*
X137604851Y-72953292D01*
X137604847Y-72953296D01*
X137499809Y-73103308D01*
X137477432Y-73135266D01*
X137475142Y-73140177D01*
X137450382Y-73193275D01*
X137404210Y-73245714D01*
X137337016Y-73264866D01*
X137270135Y-73244650D01*
X137225618Y-73193275D01*
X137200858Y-73140177D01*
X137198568Y-73135266D01*
X137176191Y-73103308D01*
X137071153Y-72953296D01*
X137071149Y-72953292D01*
X137068047Y-72948861D01*
X136907139Y-72787953D01*
X136902708Y-72784851D01*
X136902704Y-72784847D01*
X136725173Y-72660540D01*
X136725171Y-72660539D01*
X136720734Y-72657432D01*
X136645130Y-72622177D01*
X136519406Y-72563550D01*
X136519400Y-72563548D01*
X136514496Y-72561261D01*
X136294692Y-72502365D01*
X136289307Y-72501894D01*
X136289302Y-72501893D01*
X136073395Y-72483004D01*
X136068000Y-72482532D01*
X136062605Y-72483004D01*
X135846698Y-72501893D01*
X135846693Y-72501894D01*
X135841308Y-72502365D01*
X135621504Y-72561261D01*
X135616600Y-72563548D01*
X135616594Y-72563550D01*
X135490870Y-72622177D01*
X135415266Y-72657432D01*
X135410829Y-72660539D01*
X135410827Y-72660540D01*
X135233296Y-72784847D01*
X135233292Y-72784851D01*
X135228861Y-72787953D01*
X135067953Y-72948861D01*
X135064851Y-72953292D01*
X135064847Y-72953296D01*
X134959809Y-73103308D01*
X134937432Y-73135266D01*
X134935142Y-73140177D01*
X134910382Y-73193275D01*
X134864210Y-73245714D01*
X134797016Y-73264866D01*
X134730135Y-73244650D01*
X134685618Y-73193275D01*
X134660858Y-73140177D01*
X134658568Y-73135266D01*
X134636191Y-73103308D01*
X134531153Y-72953296D01*
X134531149Y-72953292D01*
X134528047Y-72948861D01*
X134367139Y-72787953D01*
X134362708Y-72784851D01*
X134362704Y-72784847D01*
X134185173Y-72660540D01*
X134185171Y-72660539D01*
X134180734Y-72657432D01*
X134105130Y-72622177D01*
X133979406Y-72563550D01*
X133979400Y-72563548D01*
X133974496Y-72561261D01*
X133754692Y-72502365D01*
X133749307Y-72501894D01*
X133749302Y-72501893D01*
X133533395Y-72483004D01*
X133528000Y-72482532D01*
X133522605Y-72483004D01*
X133306698Y-72501893D01*
X133306693Y-72501894D01*
X133301308Y-72502365D01*
X133081504Y-72561261D01*
X133076600Y-72563548D01*
X133076594Y-72563550D01*
X132950870Y-72622177D01*
X132875266Y-72657432D01*
X132870829Y-72660539D01*
X132870827Y-72660540D01*
X132693296Y-72784847D01*
X132693292Y-72784851D01*
X132688861Y-72787953D01*
X132527953Y-72948861D01*
X132524851Y-72953292D01*
X132524847Y-72953296D01*
X132419809Y-73103308D01*
X132397432Y-73135266D01*
X132395142Y-73140177D01*
X132303550Y-73336594D01*
X132303548Y-73336600D01*
X132301261Y-73341504D01*
X132242365Y-73561308D01*
X132241894Y-73566693D01*
X132241893Y-73566698D01*
X132228788Y-73716496D01*
X132222532Y-73788000D01*
X132223004Y-73793394D01*
X132231809Y-73894033D01*
X132218042Y-73962533D01*
X132169427Y-74012717D01*
X132101399Y-74028650D01*
X132035555Y-74005275D01*
X132020600Y-73992522D01*
X131558405Y-73530327D01*
X131524920Y-73469004D01*
X131522558Y-73431841D01*
X131531468Y-73330000D01*
X131511635Y-73103308D01*
X131452739Y-72883504D01*
X131450452Y-72878600D01*
X131450450Y-72878594D01*
X131358858Y-72682177D01*
X131356568Y-72677266D01*
X131353460Y-72672827D01*
X131229153Y-72495296D01*
X131229149Y-72495292D01*
X131226047Y-72490861D01*
X131065139Y-72329953D01*
X131060708Y-72326851D01*
X131060704Y-72326847D01*
X130883173Y-72202540D01*
X130883171Y-72202539D01*
X130878734Y-72199432D01*
X130756730Y-72142540D01*
X130677406Y-72105550D01*
X130677400Y-72105548D01*
X130672496Y-72103261D01*
X130452692Y-72044365D01*
X130447307Y-72043894D01*
X130447302Y-72043893D01*
X130231395Y-72025004D01*
X130226000Y-72024532D01*
X130220605Y-72025004D01*
X130004698Y-72043893D01*
X130004693Y-72043894D01*
X129999308Y-72044365D01*
X129779504Y-72103261D01*
X129774600Y-72105548D01*
X129774594Y-72105550D01*
X129695270Y-72142540D01*
X129573266Y-72199432D01*
X129568829Y-72202539D01*
X129568827Y-72202540D01*
X129391296Y-72326847D01*
X129391292Y-72326851D01*
X129386861Y-72329953D01*
X129283633Y-72433181D01*
X129222310Y-72466666D01*
X129195952Y-72469500D01*
X126235675Y-72469500D01*
X126168636Y-72449815D01*
X126146543Y-72430365D01*
X126146047Y-72430861D01*
X125985139Y-72269953D01*
X125980708Y-72266851D01*
X125980704Y-72266847D01*
X125803173Y-72142540D01*
X125803171Y-72142539D01*
X125798734Y-72139432D01*
X125777761Y-72129652D01*
X125597406Y-72045550D01*
X125597400Y-72045548D01*
X125592496Y-72043261D01*
X125372692Y-71984365D01*
X125367307Y-71983894D01*
X125367302Y-71983893D01*
X125151395Y-71965004D01*
X125146000Y-71964532D01*
X125140605Y-71965004D01*
X124924698Y-71983893D01*
X124924693Y-71983894D01*
X124919308Y-71984365D01*
X124699504Y-72043261D01*
X124694600Y-72045548D01*
X124694594Y-72045550D01*
X124514239Y-72129652D01*
X124493266Y-72139432D01*
X124488829Y-72142539D01*
X124488827Y-72142540D01*
X124311296Y-72266847D01*
X124311292Y-72266851D01*
X124306861Y-72269953D01*
X124145953Y-72430861D01*
X124142851Y-72435292D01*
X124142847Y-72435296D01*
X124053044Y-72563550D01*
X124015432Y-72617266D01*
X124013142Y-72622177D01*
X123921550Y-72818594D01*
X123921548Y-72818600D01*
X123919261Y-72823504D01*
X123860365Y-73043308D01*
X123859894Y-73048693D01*
X123859893Y-73048698D01*
X123842750Y-73244650D01*
X123840532Y-73270000D01*
X123841004Y-73275395D01*
X123859731Y-73489441D01*
X123860365Y-73496692D01*
X123919261Y-73716496D01*
X123921548Y-73721400D01*
X123921550Y-73721406D01*
X124002048Y-73894033D01*
X124015432Y-73922734D01*
X124018539Y-73927171D01*
X124018540Y-73927173D01*
X124142847Y-74104704D01*
X124142851Y-74104708D01*
X124145953Y-74109139D01*
X124306861Y-74270047D01*
X124305609Y-74271299D01*
X124339911Y-74322866D01*
X124345500Y-74359675D01*
X124345500Y-75288325D01*
X124325815Y-75355364D01*
X124306365Y-75377457D01*
X124306861Y-75377953D01*
X124145953Y-75538861D01*
X124142851Y-75543292D01*
X124142847Y-75543296D01*
X124018540Y-75720827D01*
X124015432Y-75725266D01*
X124013142Y-75730177D01*
X123921550Y-75926594D01*
X123921548Y-75926600D01*
X123919261Y-75931504D01*
X123860365Y-76151308D01*
X123859894Y-76156693D01*
X123859893Y-76156698D01*
X123844881Y-76328294D01*
X123840532Y-76378000D01*
X123860365Y-76604692D01*
X123919261Y-76824496D01*
X123921548Y-76829400D01*
X123921550Y-76829406D01*
X124005652Y-77009761D01*
X124015432Y-77030734D01*
X124018539Y-77035171D01*
X124018540Y-77035173D01*
X124142847Y-77212704D01*
X124142851Y-77212708D01*
X124145953Y-77217139D01*
X124306861Y-77378047D01*
X124311292Y-77381149D01*
X124311296Y-77381153D01*
X124486075Y-77503533D01*
X124493266Y-77508568D01*
X124498177Y-77510858D01*
X124694594Y-77602450D01*
X124694600Y-77602452D01*
X124699504Y-77604739D01*
X124919308Y-77663635D01*
X124924693Y-77664106D01*
X124924698Y-77664107D01*
X125140605Y-77682996D01*
X125146000Y-77683468D01*
X125151395Y-77682996D01*
X125367302Y-77664107D01*
X125367307Y-77664106D01*
X125372692Y-77663635D01*
X125592496Y-77604739D01*
X125597400Y-77602452D01*
X125597406Y-77602450D01*
X125793823Y-77510858D01*
X125798734Y-77508568D01*
X125805925Y-77503533D01*
X125980704Y-77381153D01*
X125980708Y-77381149D01*
X125985139Y-77378047D01*
X126146047Y-77217139D01*
X126149149Y-77212708D01*
X126149153Y-77212704D01*
X126273460Y-77035173D01*
X126273461Y-77035171D01*
X126276568Y-77030734D01*
X126286348Y-77009761D01*
X126370450Y-76829406D01*
X126370452Y-76829400D01*
X126372739Y-76824496D01*
X126431635Y-76604692D01*
X126451468Y-76378000D01*
X126447119Y-76328294D01*
X126432107Y-76156698D01*
X126432106Y-76156693D01*
X126431635Y-76151308D01*
X126372739Y-75931504D01*
X126370452Y-75926600D01*
X126370450Y-75926594D01*
X126278858Y-75730177D01*
X126276568Y-75725266D01*
X126273460Y-75720827D01*
X126149153Y-75543296D01*
X126149149Y-75543292D01*
X126146047Y-75538861D01*
X125985139Y-75377953D01*
X125986391Y-75376701D01*
X125952089Y-75325134D01*
X125946500Y-75288325D01*
X125946500Y-74359675D01*
X125966185Y-74292636D01*
X125985635Y-74270543D01*
X125985139Y-74270047D01*
X126146047Y-74109139D01*
X126147299Y-74110391D01*
X126198866Y-74076089D01*
X126235675Y-74070500D01*
X129092335Y-74070500D01*
X129159374Y-74090185D01*
X129193909Y-74123375D01*
X129225953Y-74169139D01*
X129386861Y-74330047D01*
X129391292Y-74333149D01*
X129391296Y-74333153D01*
X129551279Y-74445173D01*
X129573266Y-74460568D01*
X129578177Y-74462858D01*
X129774594Y-74554450D01*
X129774600Y-74554452D01*
X129779504Y-74556739D01*
X129999308Y-74615635D01*
X130004693Y-74616106D01*
X130004698Y-74616107D01*
X130220605Y-74634996D01*
X130226000Y-74635468D01*
X130327840Y-74626558D01*
X130396338Y-74640325D01*
X130426327Y-74662405D01*
X133463496Y-77699574D01*
X133464410Y-77700497D01*
X133526859Y-77764268D01*
X133532684Y-77768022D01*
X133532689Y-77768026D01*
X133562971Y-77787541D01*
X133573160Y-77794862D01*
X133606734Y-77821664D01*
X133636676Y-77836139D01*
X133649863Y-77843539D01*
X133677817Y-77861554D01*
X133703643Y-77870954D01*
X133718191Y-77876249D01*
X133729745Y-77881130D01*
X133768423Y-77899827D01*
X133775178Y-77901387D01*
X133775185Y-77901389D01*
X133800818Y-77907307D01*
X133815332Y-77911606D01*
X133840059Y-77920606D01*
X133840065Y-77920607D01*
X133846578Y-77922978D01*
X133881892Y-77927439D01*
X133889190Y-77928361D01*
X133901544Y-77930561D01*
X133936653Y-77938667D01*
X133936655Y-77938667D01*
X133943411Y-77940227D01*
X133959975Y-77940285D01*
X133983586Y-77940367D01*
X133984463Y-77940396D01*
X133985283Y-77940500D01*
X134021586Y-77940500D01*
X134022018Y-77940501D01*
X134119513Y-77940841D01*
X134119516Y-77940841D01*
X134123001Y-77940853D01*
X134124187Y-77940588D01*
X134125809Y-77940500D01*
X136012698Y-77940500D01*
X136027380Y-77941372D01*
X136062376Y-77945545D01*
X136069265Y-77944821D01*
X136069267Y-77944821D01*
X136088173Y-77942834D01*
X136108159Y-77940733D01*
X136111057Y-77940500D01*
X136113155Y-77940500D01*
X136153994Y-77935919D01*
X136154856Y-77935825D01*
X136234651Y-77927439D01*
X136234655Y-77927438D01*
X136240983Y-77926773D01*
X136243661Y-77925861D01*
X136246472Y-77925546D01*
X136252489Y-77923451D01*
X136252501Y-77923448D01*
X136328280Y-77897058D01*
X136329100Y-77896775D01*
X136404952Y-77870954D01*
X136404956Y-77870952D01*
X136410993Y-77868897D01*
X136413401Y-77867415D01*
X136416073Y-77866485D01*
X136489556Y-77820568D01*
X136490208Y-77820164D01*
X136558529Y-77778132D01*
X136563955Y-77774794D01*
X136565976Y-77772815D01*
X136568375Y-77771316D01*
X136572885Y-77766837D01*
X136572888Y-77766835D01*
X136602493Y-77737435D01*
X136629844Y-77710275D01*
X136630290Y-77709834D01*
X136692268Y-77649141D01*
X136693801Y-77646762D01*
X136695807Y-77644770D01*
X136699216Y-77639398D01*
X136699221Y-77639392D01*
X136742210Y-77571653D01*
X136742675Y-77570925D01*
X136786106Y-77503533D01*
X136789554Y-77498183D01*
X136790522Y-77495523D01*
X136792037Y-77493136D01*
X136821129Y-77411434D01*
X136821318Y-77410911D01*
X136848805Y-77335393D01*
X136848806Y-77335391D01*
X136850978Y-77329422D01*
X136851333Y-77326614D01*
X136852281Y-77323951D01*
X136862536Y-77237951D01*
X136862642Y-77237093D01*
X136868012Y-77194585D01*
X136868013Y-77194575D01*
X136868500Y-77190717D01*
X136868500Y-77188614D01*
X136868761Y-77185743D01*
X136872724Y-77152505D01*
X136873545Y-77145624D01*
X136869179Y-77104083D01*
X136868500Y-77091122D01*
X136868500Y-74877675D01*
X136888185Y-74810636D01*
X136907635Y-74788543D01*
X136907139Y-74788047D01*
X137068047Y-74627139D01*
X137071149Y-74622708D01*
X137071153Y-74622704D01*
X137195460Y-74445173D01*
X137195461Y-74445171D01*
X137198568Y-74440734D01*
X137225618Y-74382724D01*
X137271790Y-74330286D01*
X137338984Y-74311134D01*
X137405865Y-74331350D01*
X137450382Y-74382724D01*
X137477432Y-74440734D01*
X137480539Y-74445171D01*
X137480540Y-74445173D01*
X137604847Y-74622704D01*
X137604851Y-74622708D01*
X137607953Y-74627139D01*
X137768861Y-74788047D01*
X137767609Y-74789299D01*
X137801911Y-74840866D01*
X137807500Y-74877675D01*
X137807500Y-89457060D01*
X137787815Y-89524099D01*
X137771181Y-89544741D01*
X135772741Y-91543181D01*
X135711418Y-91576666D01*
X135685060Y-91579500D01*
X132585675Y-91579500D01*
X132518636Y-91559815D01*
X132496543Y-91540365D01*
X132496047Y-91540861D01*
X132335139Y-91379953D01*
X132330708Y-91376851D01*
X132330704Y-91376847D01*
X132153173Y-91252540D01*
X132153171Y-91252539D01*
X132148734Y-91249432D01*
X132127761Y-91239652D01*
X131947406Y-91155550D01*
X131947400Y-91155548D01*
X131942496Y-91153261D01*
X131722692Y-91094365D01*
X131717307Y-91093894D01*
X131717302Y-91093893D01*
X131501395Y-91075004D01*
X131496000Y-91074532D01*
X131490605Y-91075004D01*
X131274698Y-91093893D01*
X131274693Y-91093894D01*
X131269308Y-91094365D01*
X131049504Y-91153261D01*
X131044600Y-91155548D01*
X131044594Y-91155550D01*
X130864239Y-91239652D01*
X130843266Y-91249432D01*
X130838829Y-91252539D01*
X130838827Y-91252540D01*
X130661296Y-91376847D01*
X130661292Y-91376851D01*
X130656861Y-91379953D01*
X130495953Y-91540861D01*
X130494701Y-91539609D01*
X130443134Y-91573911D01*
X130406325Y-91579500D01*
X130005675Y-91579500D01*
X129938636Y-91559815D01*
X129916543Y-91540365D01*
X129916047Y-91540861D01*
X129755139Y-91379953D01*
X129750708Y-91376851D01*
X129750704Y-91376847D01*
X129573173Y-91252540D01*
X129573171Y-91252539D01*
X129568734Y-91249432D01*
X129547761Y-91239652D01*
X129367406Y-91155550D01*
X129367400Y-91155548D01*
X129362496Y-91153261D01*
X129142692Y-91094365D01*
X129137307Y-91093894D01*
X129137302Y-91093893D01*
X128921395Y-91075004D01*
X128916000Y-91074532D01*
X128910605Y-91075004D01*
X128694698Y-91093893D01*
X128694693Y-91093894D01*
X128689308Y-91094365D01*
X128469504Y-91153261D01*
X128464600Y-91155548D01*
X128464594Y-91155550D01*
X128284239Y-91239652D01*
X128263266Y-91249432D01*
X128258829Y-91252539D01*
X128258827Y-91252540D01*
X128081296Y-91376847D01*
X128081292Y-91376851D01*
X128076861Y-91379953D01*
X127915953Y-91540861D01*
X127912851Y-91545292D01*
X127912847Y-91545296D01*
X127788540Y-91722827D01*
X127785432Y-91727266D01*
X127783142Y-91732177D01*
X127691550Y-91928594D01*
X127691548Y-91928600D01*
X127689261Y-91933504D01*
X127630365Y-92153308D01*
X127610532Y-92380000D01*
X127630365Y-92606692D01*
X127689261Y-92826496D01*
X127691548Y-92831400D01*
X127691550Y-92831406D01*
X127756111Y-92969855D01*
X127785432Y-93032734D01*
X127788539Y-93037171D01*
X127788540Y-93037173D01*
X127912847Y-93214704D01*
X127912851Y-93214708D01*
X127915953Y-93219139D01*
X128076861Y-93380047D01*
X128081292Y-93383149D01*
X128081296Y-93383153D01*
X128184570Y-93455465D01*
X128263266Y-93510568D01*
X128268177Y-93512858D01*
X128464594Y-93604450D01*
X128464600Y-93604452D01*
X128469504Y-93606739D01*
X128689308Y-93665635D01*
X128694693Y-93666106D01*
X128694698Y-93666107D01*
X128910605Y-93684996D01*
X128916000Y-93685468D01*
X128921395Y-93684996D01*
X129137302Y-93666107D01*
X129137307Y-93666106D01*
X129142692Y-93665635D01*
X129362496Y-93606739D01*
X129367400Y-93604452D01*
X129367406Y-93604450D01*
X129563823Y-93512858D01*
X129568734Y-93510568D01*
X129647430Y-93455465D01*
X129750704Y-93383153D01*
X129750708Y-93383149D01*
X129755139Y-93380047D01*
X129916047Y-93219139D01*
X129917299Y-93220391D01*
X129968866Y-93186089D01*
X130005675Y-93180500D01*
X130406325Y-93180500D01*
X130473364Y-93200185D01*
X130495457Y-93219635D01*
X130495953Y-93219139D01*
X130656861Y-93380047D01*
X130661292Y-93383149D01*
X130661296Y-93383153D01*
X130764570Y-93455465D01*
X130843266Y-93510568D01*
X130848177Y-93512858D01*
X131044594Y-93604450D01*
X131044600Y-93604452D01*
X131049504Y-93606739D01*
X131269308Y-93665635D01*
X131274693Y-93666106D01*
X131274698Y-93666107D01*
X131490605Y-93684996D01*
X131496000Y-93685468D01*
X131501395Y-93684996D01*
X131717302Y-93666107D01*
X131717307Y-93666106D01*
X131722692Y-93665635D01*
X131942496Y-93606739D01*
X131947400Y-93604452D01*
X131947406Y-93604450D01*
X132143823Y-93512858D01*
X132148734Y-93510568D01*
X132227430Y-93455465D01*
X132330704Y-93383153D01*
X132330708Y-93383149D01*
X132335139Y-93380047D01*
X132496047Y-93219139D01*
X132497299Y-93220391D01*
X132548866Y-93186089D01*
X132585675Y-93180500D01*
X135685060Y-93180500D01*
X135752099Y-93200185D01*
X135772741Y-93216819D01*
X137263181Y-94707259D01*
X137296666Y-94768582D01*
X137299500Y-94794940D01*
X137299500Y-96576298D01*
X137279815Y-96643337D01*
X137265763Y-96661251D01*
X137261881Y-96664655D01*
X137258362Y-96669119D01*
X137258359Y-96669122D01*
X137232968Y-96701331D01*
X137130976Y-96830708D01*
X137032523Y-97017836D01*
X137030837Y-97023267D01*
X137030835Y-97023271D01*
X136992516Y-97146680D01*
X136969820Y-97219773D01*
X136952851Y-97363140D01*
X136925425Y-97427398D01*
X136870974Y-97464346D01*
X136924347Y-97498736D01*
X136953296Y-97562327D01*
X136954271Y-97571707D01*
X136958796Y-97640749D01*
X137010845Y-97845690D01*
X137013219Y-97850841D01*
X137013221Y-97850845D01*
X137091898Y-98021509D01*
X137099369Y-98037714D01*
X137116584Y-98062073D01*
X137198472Y-98177941D01*
X137221405Y-98210391D01*
X137225476Y-98214357D01*
X137225477Y-98214358D01*
X137236072Y-98224679D01*
X137270357Y-98285558D01*
X137266285Y-98355309D01*
X137225149Y-98411786D01*
X137160010Y-98437058D01*
X137149546Y-98437500D01*
X136507947Y-98437500D01*
X136440908Y-98417815D01*
X136395153Y-98365011D01*
X136385209Y-98295853D01*
X136412610Y-98234210D01*
X136508584Y-98118813D01*
X136508585Y-98118811D01*
X136512219Y-98114442D01*
X136589065Y-97977224D01*
X136612756Y-97934922D01*
X136612759Y-97934916D01*
X136615537Y-97929955D01*
X136617605Y-97923865D01*
X136681675Y-97735118D01*
X136683504Y-97729730D01*
X136686365Y-97710000D01*
X136707820Y-97562033D01*
X136736921Y-97498512D01*
X136790667Y-97464063D01*
X136738057Y-97432081D01*
X136707453Y-97369271D01*
X136706232Y-97359909D01*
X136696601Y-97255100D01*
X136696081Y-97249440D01*
X136638686Y-97045931D01*
X136545165Y-96856290D01*
X136418651Y-96686867D01*
X136414481Y-96683012D01*
X136414478Y-96683009D01*
X136344880Y-96618674D01*
X136263381Y-96543337D01*
X136257574Y-96539673D01*
X136089363Y-96433539D01*
X136089361Y-96433538D01*
X136084554Y-96430505D01*
X135888160Y-96352152D01*
X135882579Y-96351042D01*
X135882576Y-96351041D01*
X135784468Y-96331527D01*
X135680775Y-96310901D01*
X135675088Y-96310827D01*
X135675083Y-96310826D01*
X135475034Y-96308207D01*
X135475029Y-96308207D01*
X135469346Y-96308133D01*
X135463742Y-96309096D01*
X135463741Y-96309096D01*
X135266550Y-96342979D01*
X135266547Y-96342980D01*
X135260953Y-96343941D01*
X135062575Y-96417127D01*
X135057697Y-96420029D01*
X135057695Y-96420030D01*
X134885740Y-96522332D01*
X134885737Y-96522334D01*
X134880856Y-96525238D01*
X134721881Y-96664655D01*
X134718362Y-96669119D01*
X134718359Y-96669122D01*
X134692968Y-96701331D01*
X134590976Y-96830708D01*
X134492523Y-97017836D01*
X134490837Y-97023267D01*
X134490835Y-97023271D01*
X134452516Y-97146680D01*
X134429820Y-97219773D01*
X134412851Y-97363140D01*
X134385425Y-97427398D01*
X134330974Y-97464346D01*
X134384347Y-97498736D01*
X134413296Y-97562327D01*
X134414271Y-97571707D01*
X134418796Y-97640749D01*
X134470845Y-97845690D01*
X134473219Y-97850841D01*
X134473221Y-97850845D01*
X134551898Y-98021509D01*
X134559369Y-98037714D01*
X134576584Y-98062073D01*
X134658472Y-98177941D01*
X134681405Y-98210391D01*
X134685476Y-98214357D01*
X134685477Y-98214358D01*
X134696072Y-98224679D01*
X134730357Y-98285558D01*
X134726285Y-98355309D01*
X134685149Y-98411786D01*
X134620010Y-98437058D01*
X134609546Y-98437500D01*
X133967947Y-98437500D01*
X133900908Y-98417815D01*
X133855153Y-98365011D01*
X133845209Y-98295853D01*
X133872610Y-98234210D01*
X133968584Y-98118813D01*
X133968585Y-98118811D01*
X133972219Y-98114442D01*
X134049065Y-97977224D01*
X134072756Y-97934922D01*
X134072759Y-97934916D01*
X134075537Y-97929955D01*
X134077605Y-97923865D01*
X134141675Y-97735118D01*
X134143504Y-97729730D01*
X134146365Y-97710000D01*
X134167820Y-97562033D01*
X134196921Y-97498512D01*
X134250667Y-97464063D01*
X134198057Y-97432081D01*
X134167453Y-97369271D01*
X134166232Y-97359909D01*
X134156601Y-97255100D01*
X134156081Y-97249440D01*
X134098686Y-97045931D01*
X134005165Y-96856290D01*
X133878651Y-96686867D01*
X133874481Y-96683012D01*
X133874478Y-96683009D01*
X133804880Y-96618674D01*
X133723381Y-96543337D01*
X133717574Y-96539673D01*
X133549363Y-96433539D01*
X133549361Y-96433538D01*
X133544554Y-96430505D01*
X133348160Y-96352152D01*
X133342579Y-96351042D01*
X133342576Y-96351041D01*
X133244468Y-96331527D01*
X133140775Y-96310901D01*
X133135088Y-96310827D01*
X133135083Y-96310826D01*
X132935034Y-96308207D01*
X132935029Y-96308207D01*
X132929346Y-96308133D01*
X132923742Y-96309096D01*
X132923741Y-96309096D01*
X132726550Y-96342979D01*
X132726547Y-96342980D01*
X132720953Y-96343941D01*
X132522575Y-96417127D01*
X132517697Y-96420029D01*
X132517695Y-96420030D01*
X132345740Y-96522332D01*
X132345737Y-96522334D01*
X132340856Y-96525238D01*
X132181881Y-96664655D01*
X132178362Y-96669119D01*
X132178359Y-96669122D01*
X132152968Y-96701331D01*
X132050976Y-96830708D01*
X131952523Y-97017836D01*
X131950837Y-97023267D01*
X131950835Y-97023271D01*
X131912516Y-97146680D01*
X131889820Y-97219773D01*
X131872851Y-97363140D01*
X131845425Y-97427398D01*
X131790974Y-97464346D01*
X131844347Y-97498736D01*
X131873296Y-97562327D01*
X131874271Y-97571707D01*
X131878796Y-97640749D01*
X131930845Y-97845690D01*
X131933219Y-97850841D01*
X131933221Y-97850845D01*
X132011898Y-98021509D01*
X132019369Y-98037714D01*
X132036584Y-98062073D01*
X132118472Y-98177941D01*
X132141405Y-98210391D01*
X132145476Y-98214357D01*
X132145477Y-98214358D01*
X132156072Y-98224679D01*
X132190357Y-98285558D01*
X132186285Y-98355309D01*
X132145149Y-98411786D01*
X132080010Y-98437058D01*
X132069546Y-98437500D01*
X131427947Y-98437500D01*
X131360908Y-98417815D01*
X131315153Y-98365011D01*
X131305209Y-98295853D01*
X131332610Y-98234210D01*
X131428584Y-98118813D01*
X131428585Y-98118811D01*
X131432219Y-98114442D01*
X131509065Y-97977224D01*
X131532756Y-97934922D01*
X131532759Y-97934916D01*
X131535537Y-97929955D01*
X131537605Y-97923865D01*
X131601675Y-97735118D01*
X131603504Y-97729730D01*
X131606365Y-97710000D01*
X131627820Y-97562033D01*
X131656921Y-97498512D01*
X131710667Y-97464063D01*
X131658057Y-97432081D01*
X131627453Y-97369271D01*
X131626232Y-97359909D01*
X131616601Y-97255100D01*
X131616081Y-97249440D01*
X131558686Y-97045931D01*
X131465165Y-96856290D01*
X131338651Y-96686867D01*
X131334481Y-96683012D01*
X131334478Y-96683009D01*
X131264880Y-96618674D01*
X131183381Y-96543337D01*
X131177574Y-96539673D01*
X131009363Y-96433539D01*
X131009361Y-96433538D01*
X131004554Y-96430505D01*
X130808160Y-96352152D01*
X130802579Y-96351042D01*
X130802576Y-96351041D01*
X130704468Y-96331527D01*
X130600775Y-96310901D01*
X130595088Y-96310827D01*
X130595083Y-96310826D01*
X130395034Y-96308207D01*
X130395029Y-96308207D01*
X130389346Y-96308133D01*
X130383742Y-96309096D01*
X130383741Y-96309096D01*
X130186550Y-96342979D01*
X130186547Y-96342980D01*
X130180953Y-96343941D01*
X129982575Y-96417127D01*
X129977697Y-96420029D01*
X129977695Y-96420030D01*
X129805740Y-96522332D01*
X129805737Y-96522334D01*
X129800856Y-96525238D01*
X129641881Y-96664655D01*
X129638362Y-96669119D01*
X129638359Y-96669122D01*
X129612968Y-96701331D01*
X129510976Y-96830708D01*
X129412523Y-97017836D01*
X129410837Y-97023267D01*
X129410835Y-97023271D01*
X129372516Y-97146680D01*
X129349820Y-97219773D01*
X129349152Y-97225418D01*
X129349151Y-97225422D01*
X129337640Y-97322681D01*
X129310213Y-97386942D01*
X129252397Y-97426173D01*
X129182549Y-97427919D01*
X129122845Y-97391625D01*
X129092241Y-97328814D01*
X129090500Y-97308106D01*
X129090500Y-96565354D01*
X129087382Y-96539154D01*
X129041939Y-96436847D01*
X128962713Y-96357759D01*
X128952242Y-96353130D01*
X128952241Y-96353129D01*
X128868853Y-96316263D01*
X128868851Y-96316262D01*
X128860327Y-96312494D01*
X128834646Y-96309500D01*
X127045354Y-96309500D01*
X127041700Y-96309935D01*
X127041698Y-96309935D01*
X127036734Y-96310526D01*
X127019154Y-96312618D01*
X126916847Y-96358061D01*
X126837759Y-96437287D01*
X126833130Y-96447758D01*
X126833129Y-96447759D01*
X126798876Y-96525238D01*
X126792494Y-96539673D01*
X126789500Y-96565354D01*
X126789500Y-98313500D01*
X126769815Y-98380539D01*
X126717011Y-98426294D01*
X126665500Y-98437500D01*
X119432940Y-98437500D01*
X119365901Y-98417815D01*
X119345259Y-98401181D01*
X118362819Y-97418741D01*
X118329334Y-97357418D01*
X118326500Y-97331060D01*
X118326500Y-93606121D01*
X123049370Y-93606121D01*
X123054999Y-93614048D01*
X123057083Y-93615508D01*
X123261256Y-93734818D01*
X123270408Y-93739202D01*
X123491321Y-93823560D01*
X123501064Y-93826391D01*
X123732800Y-93873539D01*
X123742870Y-93874739D01*
X123979199Y-93883406D01*
X123989320Y-93882946D01*
X124223893Y-93852896D01*
X124233806Y-93850789D01*
X124460325Y-93782830D01*
X124469752Y-93779136D01*
X124682126Y-93675095D01*
X124690841Y-93669900D01*
X124770592Y-93613014D01*
X124778860Y-93602482D01*
X124771984Y-93589537D01*
X123928607Y-92746160D01*
X123914887Y-92738668D01*
X123913081Y-92738797D01*
X123906574Y-92742979D01*
X123056512Y-93593041D01*
X123049370Y-93606121D01*
X118326500Y-93606121D01*
X118326500Y-92348309D01*
X122411601Y-92348309D01*
X122425214Y-92584394D01*
X122426626Y-92594439D01*
X122478615Y-92825135D01*
X122481647Y-92834810D01*
X122570617Y-93053918D01*
X122575194Y-93062978D01*
X122681490Y-93236437D01*
X122691784Y-93245749D01*
X122700421Y-93242026D01*
X123549840Y-92392607D01*
X123556116Y-92381113D01*
X124274668Y-92381113D01*
X124274797Y-92382919D01*
X124278979Y-92389426D01*
X125126066Y-93236513D01*
X125137884Y-93242966D01*
X125149437Y-93234140D01*
X125203186Y-93159341D01*
X125208414Y-93150640D01*
X125313188Y-92938646D01*
X125316925Y-92929206D01*
X125385670Y-92702942D01*
X125387813Y-92693028D01*
X125418913Y-92456801D01*
X125419425Y-92450226D01*
X125421060Y-92383308D01*
X125420870Y-92376701D01*
X125401347Y-92139246D01*
X125399689Y-92129232D01*
X125342081Y-91899882D01*
X125338811Y-91890276D01*
X125244514Y-91673409D01*
X125239725Y-91664476D01*
X125149380Y-91524824D01*
X125138865Y-91515769D01*
X125129451Y-91520102D01*
X124282160Y-92367393D01*
X124274668Y-92381113D01*
X123556116Y-92381113D01*
X123557332Y-92378887D01*
X123557203Y-92377081D01*
X123553021Y-92370574D01*
X122705747Y-91523300D01*
X122694396Y-91517102D01*
X122682307Y-91526573D01*
X122610156Y-91632344D01*
X122605144Y-91641166D01*
X122505581Y-91855658D01*
X122502076Y-91865183D01*
X122438878Y-92093064D01*
X122436979Y-92103020D01*
X122411849Y-92338166D01*
X122411601Y-92348309D01*
X118326500Y-92348309D01*
X118326500Y-91157418D01*
X123052468Y-91157418D01*
X123059105Y-91169552D01*
X123903393Y-92013840D01*
X123917113Y-92021332D01*
X123918919Y-92021203D01*
X123925426Y-92017021D01*
X124773860Y-91168587D01*
X124780767Y-91155937D01*
X124773117Y-91145436D01*
X124752927Y-91129491D01*
X124744478Y-91123877D01*
X124537447Y-91009590D01*
X124528190Y-91005431D01*
X124305283Y-90926494D01*
X124295468Y-90923901D01*
X124062656Y-90882431D01*
X124052562Y-90881477D01*
X123816097Y-90878587D01*
X123805972Y-90879295D01*
X123572222Y-90915065D01*
X123562348Y-90917417D01*
X123337569Y-90990886D01*
X123328220Y-90994816D01*
X123118461Y-91104009D01*
X123109876Y-91109416D01*
X123060786Y-91146273D01*
X123052468Y-91157418D01*
X118326500Y-91157418D01*
X118326500Y-88824000D01*
X119776532Y-88824000D01*
X119796365Y-89050692D01*
X119855261Y-89270496D01*
X119857548Y-89275400D01*
X119857550Y-89275406D01*
X119903156Y-89373206D01*
X119951432Y-89476734D01*
X119954539Y-89481171D01*
X119954540Y-89481173D01*
X120078847Y-89658704D01*
X120078851Y-89658708D01*
X120081953Y-89663139D01*
X120242861Y-89824047D01*
X120247292Y-89827149D01*
X120247296Y-89827153D01*
X120424827Y-89951460D01*
X120429266Y-89954568D01*
X120434177Y-89956858D01*
X120630594Y-90048450D01*
X120630600Y-90048452D01*
X120635504Y-90050739D01*
X120855308Y-90109635D01*
X120860693Y-90110106D01*
X120860698Y-90110107D01*
X121076605Y-90128996D01*
X121082000Y-90129468D01*
X121087395Y-90128996D01*
X121303302Y-90110107D01*
X121303307Y-90110106D01*
X121308692Y-90109635D01*
X121528496Y-90050739D01*
X121529821Y-90050121D01*
X127835370Y-90050121D01*
X127840999Y-90058048D01*
X127843083Y-90059508D01*
X128047256Y-90178818D01*
X128056408Y-90183202D01*
X128277321Y-90267560D01*
X128287064Y-90270391D01*
X128518800Y-90317539D01*
X128528870Y-90318739D01*
X128765199Y-90327406D01*
X128775320Y-90326946D01*
X129009893Y-90296896D01*
X129019806Y-90294789D01*
X129246325Y-90226830D01*
X129255752Y-90223136D01*
X129468126Y-90119095D01*
X129476841Y-90113900D01*
X129556592Y-90057014D01*
X129564860Y-90046482D01*
X129557984Y-90033537D01*
X128714607Y-89190160D01*
X128700887Y-89182668D01*
X128699081Y-89182797D01*
X128692574Y-89186979D01*
X127842512Y-90037041D01*
X127835370Y-90050121D01*
X121529821Y-90050121D01*
X121533400Y-90048452D01*
X121533406Y-90048450D01*
X121729823Y-89956858D01*
X121734734Y-89954568D01*
X121739173Y-89951460D01*
X121916704Y-89827153D01*
X121916708Y-89827149D01*
X121921139Y-89824047D01*
X122082047Y-89663139D01*
X122085149Y-89658708D01*
X122085153Y-89658704D01*
X122209460Y-89481173D01*
X122209461Y-89481171D01*
X122212568Y-89476734D01*
X122260844Y-89373206D01*
X122306450Y-89275406D01*
X122306452Y-89275400D01*
X122308739Y-89270496D01*
X122367635Y-89050692D01*
X122387468Y-88824000D01*
X122384695Y-88792309D01*
X127197601Y-88792309D01*
X127211214Y-89028394D01*
X127212626Y-89038439D01*
X127264615Y-89269135D01*
X127267647Y-89278810D01*
X127356617Y-89497918D01*
X127361194Y-89506978D01*
X127467490Y-89680437D01*
X127477784Y-89689749D01*
X127486421Y-89686026D01*
X128335840Y-88836607D01*
X128342116Y-88825113D01*
X129060668Y-88825113D01*
X129060797Y-88826919D01*
X129064979Y-88833426D01*
X129912066Y-89680513D01*
X129923884Y-89686966D01*
X129935437Y-89678140D01*
X129989186Y-89603341D01*
X129994414Y-89594640D01*
X130099188Y-89382646D01*
X130102925Y-89373206D01*
X130171670Y-89146942D01*
X130173813Y-89137028D01*
X130204913Y-88900801D01*
X130205425Y-88894226D01*
X130207060Y-88827308D01*
X130206870Y-88820701D01*
X130187347Y-88583246D01*
X130185689Y-88573232D01*
X130128081Y-88343882D01*
X130124811Y-88334276D01*
X130030514Y-88117409D01*
X130025725Y-88108476D01*
X129935380Y-87968824D01*
X129924865Y-87959769D01*
X129915451Y-87964102D01*
X129068160Y-88811393D01*
X129060668Y-88825113D01*
X128342116Y-88825113D01*
X128343332Y-88822887D01*
X128343203Y-88821081D01*
X128339021Y-88814574D01*
X127491747Y-87967300D01*
X127480396Y-87961102D01*
X127468307Y-87970573D01*
X127396156Y-88076344D01*
X127391144Y-88085166D01*
X127291581Y-88299658D01*
X127288076Y-88309183D01*
X127224878Y-88537064D01*
X127222979Y-88547020D01*
X127197849Y-88782166D01*
X127197601Y-88792309D01*
X122384695Y-88792309D01*
X122367635Y-88597308D01*
X122308739Y-88377504D01*
X122306452Y-88372600D01*
X122306450Y-88372594D01*
X122214858Y-88176177D01*
X122212568Y-88171266D01*
X122209460Y-88166827D01*
X122085153Y-87989296D01*
X122085149Y-87989292D01*
X122082047Y-87984861D01*
X121921139Y-87823953D01*
X121922391Y-87822701D01*
X121888089Y-87771134D01*
X121882500Y-87734325D01*
X121882500Y-87601418D01*
X127838468Y-87601418D01*
X127845105Y-87613552D01*
X128689393Y-88457840D01*
X128703113Y-88465332D01*
X128704919Y-88465203D01*
X128711426Y-88461021D01*
X129559860Y-87612587D01*
X129566767Y-87599937D01*
X129559117Y-87589436D01*
X129538927Y-87573491D01*
X129530478Y-87567877D01*
X129323447Y-87453590D01*
X129314190Y-87449431D01*
X129091283Y-87370494D01*
X129081468Y-87367901D01*
X128848656Y-87326431D01*
X128838562Y-87325477D01*
X128602097Y-87322587D01*
X128591972Y-87323295D01*
X128358222Y-87359065D01*
X128348348Y-87361417D01*
X128123569Y-87434886D01*
X128114220Y-87438816D01*
X127904461Y-87548009D01*
X127895876Y-87553416D01*
X127846786Y-87590273D01*
X127838468Y-87601418D01*
X121882500Y-87601418D01*
X121882500Y-85986121D01*
X125215370Y-85986121D01*
X125220999Y-85994048D01*
X125223083Y-85995508D01*
X125427256Y-86114818D01*
X125436408Y-86119202D01*
X125657321Y-86203560D01*
X125667064Y-86206391D01*
X125898800Y-86253539D01*
X125908870Y-86254739D01*
X126145199Y-86263406D01*
X126155320Y-86262946D01*
X126389893Y-86232896D01*
X126399806Y-86230789D01*
X126626325Y-86162830D01*
X126635752Y-86159136D01*
X126848126Y-86055095D01*
X126856841Y-86049900D01*
X126936592Y-85993014D01*
X126944860Y-85982482D01*
X126937984Y-85969537D01*
X126094607Y-85126160D01*
X126080887Y-85118668D01*
X126079081Y-85118797D01*
X126072574Y-85122979D01*
X125222512Y-85973041D01*
X125215370Y-85986121D01*
X121882500Y-85986121D01*
X121882500Y-85849675D01*
X121902185Y-85782636D01*
X121921635Y-85760543D01*
X121921139Y-85760047D01*
X122082047Y-85599139D01*
X122085149Y-85594708D01*
X122085153Y-85594704D01*
X122209460Y-85417173D01*
X122209461Y-85417171D01*
X122212568Y-85412734D01*
X122269718Y-85290177D01*
X122306450Y-85211406D01*
X122306452Y-85211400D01*
X122308739Y-85206496D01*
X122367635Y-84986692D01*
X122368910Y-84972127D01*
X122386996Y-84765395D01*
X122387468Y-84760000D01*
X122384696Y-84728309D01*
X124577601Y-84728309D01*
X124591214Y-84964394D01*
X124592626Y-84974439D01*
X124644615Y-85205135D01*
X124647647Y-85214810D01*
X124736617Y-85433918D01*
X124741194Y-85442978D01*
X124847490Y-85616437D01*
X124857784Y-85625749D01*
X124866421Y-85622026D01*
X125715840Y-84772607D01*
X125722116Y-84761113D01*
X126440668Y-84761113D01*
X126440797Y-84762919D01*
X126444979Y-84769426D01*
X127292066Y-85616513D01*
X127303884Y-85622966D01*
X127315437Y-85614140D01*
X127369186Y-85539341D01*
X127374414Y-85530640D01*
X127479188Y-85318646D01*
X127482925Y-85309206D01*
X127551670Y-85082942D01*
X127553813Y-85073028D01*
X127584913Y-84836801D01*
X127585425Y-84830226D01*
X127587060Y-84763308D01*
X127586870Y-84756701D01*
X127567347Y-84519246D01*
X127565689Y-84509232D01*
X127508081Y-84279882D01*
X127504811Y-84270276D01*
X127410514Y-84053409D01*
X127405725Y-84044476D01*
X127315380Y-83904824D01*
X127304865Y-83895769D01*
X127295451Y-83900102D01*
X126448160Y-84747393D01*
X126440668Y-84761113D01*
X125722116Y-84761113D01*
X125723332Y-84758887D01*
X125723203Y-84757081D01*
X125719021Y-84750574D01*
X124871747Y-83903300D01*
X124860396Y-83897102D01*
X124848307Y-83906573D01*
X124776156Y-84012344D01*
X124771144Y-84021166D01*
X124671581Y-84235658D01*
X124668076Y-84245183D01*
X124604878Y-84473064D01*
X124602979Y-84483020D01*
X124577849Y-84718166D01*
X124577601Y-84728309D01*
X122384696Y-84728309D01*
X122380663Y-84682215D01*
X122368107Y-84538698D01*
X122368106Y-84538693D01*
X122367635Y-84533308D01*
X122308739Y-84313504D01*
X122306452Y-84308600D01*
X122306450Y-84308594D01*
X122214858Y-84112177D01*
X122212568Y-84107266D01*
X122209460Y-84102827D01*
X122085153Y-83925296D01*
X122085149Y-83925292D01*
X122082047Y-83920861D01*
X121921139Y-83759953D01*
X121922391Y-83758701D01*
X121888089Y-83707134D01*
X121882500Y-83670325D01*
X121882500Y-83537418D01*
X125218468Y-83537418D01*
X125225105Y-83549552D01*
X126069393Y-84393840D01*
X126083113Y-84401332D01*
X126084919Y-84401203D01*
X126091426Y-84397021D01*
X126939860Y-83548587D01*
X126946767Y-83535937D01*
X126939117Y-83525436D01*
X126918927Y-83509491D01*
X126910478Y-83503877D01*
X126703447Y-83389590D01*
X126694190Y-83385431D01*
X126471283Y-83306494D01*
X126461468Y-83303901D01*
X126228656Y-83262431D01*
X126218562Y-83261477D01*
X125982097Y-83258587D01*
X125971972Y-83259295D01*
X125738222Y-83295065D01*
X125728348Y-83297417D01*
X125503569Y-83370886D01*
X125494220Y-83374816D01*
X125284461Y-83484009D01*
X125275876Y-83489416D01*
X125226786Y-83526273D01*
X125218468Y-83537418D01*
X121882500Y-83537418D01*
X121882500Y-82039675D01*
X121902185Y-81972636D01*
X121921635Y-81950543D01*
X121921139Y-81950047D01*
X122082047Y-81789139D01*
X122085149Y-81784708D01*
X122085153Y-81784704D01*
X122209460Y-81607173D01*
X122209461Y-81607171D01*
X122212568Y-81602734D01*
X122222348Y-81581761D01*
X122306450Y-81401406D01*
X122306452Y-81401400D01*
X122308739Y-81396496D01*
X122367635Y-81176692D01*
X122387468Y-80950000D01*
X127396532Y-80950000D01*
X127416365Y-81176692D01*
X127475261Y-81396496D01*
X127477548Y-81401400D01*
X127477550Y-81401406D01*
X127561652Y-81581761D01*
X127571432Y-81602734D01*
X127574539Y-81607171D01*
X127574540Y-81607173D01*
X127698847Y-81784704D01*
X127698851Y-81784708D01*
X127701953Y-81789139D01*
X127862861Y-81950047D01*
X127861380Y-81951528D01*
X127895050Y-82002139D01*
X127899660Y-82033608D01*
X127899932Y-82033580D01*
X127900555Y-82039715D01*
X127900634Y-82040254D01*
X127900559Y-82047407D01*
X127902024Y-82054184D01*
X127902025Y-82054192D01*
X127909638Y-82089402D01*
X127911665Y-82101782D01*
X127916454Y-82144472D01*
X127927389Y-82175873D01*
X127931485Y-82190444D01*
X127937046Y-82216169D01*
X127937048Y-82216175D01*
X127938511Y-82222942D01*
X127941439Y-82229222D01*
X127941440Y-82229224D01*
X127956669Y-82261883D01*
X127961382Y-82273490D01*
X127975515Y-82314073D01*
X127979188Y-82319952D01*
X127979190Y-82319955D01*
X127993135Y-82342271D01*
X128000356Y-82355569D01*
X128014409Y-82385707D01*
X128018660Y-82391187D01*
X128040736Y-82419646D01*
X128047918Y-82429941D01*
X128067007Y-82460492D01*
X128067012Y-82460498D01*
X128070684Y-82466375D01*
X128099003Y-82494893D01*
X128099584Y-82495514D01*
X128100099Y-82496177D01*
X128125959Y-82522037D01*
X128197230Y-82593807D01*
X128198254Y-82594457D01*
X128199471Y-82595549D01*
X130163595Y-84559673D01*
X130197080Y-84620996D01*
X130199442Y-84658159D01*
X130190532Y-84760000D01*
X130191004Y-84765395D01*
X130209091Y-84972127D01*
X130210365Y-84986692D01*
X130269261Y-85206496D01*
X130271548Y-85211400D01*
X130271550Y-85211406D01*
X130308282Y-85290177D01*
X130365432Y-85412734D01*
X130368539Y-85417171D01*
X130368540Y-85417173D01*
X130492847Y-85594704D01*
X130492851Y-85594708D01*
X130495953Y-85599139D01*
X130656861Y-85760047D01*
X130661292Y-85763149D01*
X130661296Y-85763153D01*
X130822396Y-85875955D01*
X130843266Y-85890568D01*
X130848177Y-85892858D01*
X131044594Y-85984450D01*
X131044600Y-85984452D01*
X131049504Y-85986739D01*
X131269308Y-86045635D01*
X131274693Y-86046106D01*
X131274698Y-86046107D01*
X131490605Y-86064996D01*
X131496000Y-86065468D01*
X131501395Y-86064996D01*
X131717302Y-86046107D01*
X131717307Y-86046106D01*
X131722692Y-86045635D01*
X131942496Y-85986739D01*
X131947400Y-85984452D01*
X131947406Y-85984450D01*
X132143823Y-85892858D01*
X132148734Y-85890568D01*
X132169604Y-85875955D01*
X132330704Y-85763153D01*
X132330708Y-85763149D01*
X132335139Y-85760047D01*
X132496047Y-85599139D01*
X132499149Y-85594708D01*
X132499153Y-85594704D01*
X132623460Y-85417173D01*
X132623461Y-85417171D01*
X132626568Y-85412734D01*
X132683718Y-85290177D01*
X132720450Y-85211406D01*
X132720452Y-85211400D01*
X132722739Y-85206496D01*
X132781635Y-84986692D01*
X132782910Y-84972127D01*
X132800996Y-84765395D01*
X132801468Y-84760000D01*
X132794663Y-84682215D01*
X132782107Y-84538698D01*
X132782106Y-84538693D01*
X132781635Y-84533308D01*
X132722739Y-84313504D01*
X132720452Y-84308600D01*
X132720450Y-84308594D01*
X132628858Y-84112177D01*
X132626568Y-84107266D01*
X132623460Y-84102827D01*
X132499153Y-83925296D01*
X132499149Y-83925292D01*
X132496047Y-83920861D01*
X132335139Y-83759953D01*
X132330708Y-83756851D01*
X132330704Y-83756847D01*
X132153173Y-83632540D01*
X132153171Y-83632539D01*
X132148734Y-83629432D01*
X132127761Y-83619652D01*
X131947406Y-83535550D01*
X131947400Y-83535548D01*
X131942496Y-83533261D01*
X131722692Y-83474365D01*
X131717307Y-83473894D01*
X131717302Y-83473893D01*
X131501395Y-83455004D01*
X131496000Y-83454532D01*
X131394160Y-83463442D01*
X131325662Y-83449675D01*
X131295673Y-83427595D01*
X129757157Y-81889079D01*
X129723672Y-81827756D01*
X129728656Y-81758064D01*
X129743261Y-81730279D01*
X129832568Y-81602734D01*
X129842348Y-81581761D01*
X129926450Y-81401406D01*
X129926452Y-81401400D01*
X129928739Y-81396496D01*
X129987635Y-81176692D01*
X130007468Y-80950000D01*
X129989174Y-80740896D01*
X129988107Y-80728698D01*
X129988106Y-80728693D01*
X129987635Y-80723308D01*
X129928739Y-80503504D01*
X129926452Y-80498600D01*
X129926450Y-80498594D01*
X129834858Y-80302177D01*
X129832568Y-80297266D01*
X129827926Y-80290636D01*
X129705153Y-80115296D01*
X129705149Y-80115292D01*
X129702047Y-80110861D01*
X129541139Y-79949953D01*
X129536708Y-79946851D01*
X129536704Y-79946847D01*
X129359173Y-79822540D01*
X129359171Y-79822539D01*
X129354734Y-79819432D01*
X129294049Y-79791134D01*
X129153406Y-79725550D01*
X129153400Y-79725548D01*
X129148496Y-79723261D01*
X128928692Y-79664365D01*
X128923307Y-79663894D01*
X128923302Y-79663893D01*
X128707395Y-79645004D01*
X128702000Y-79644532D01*
X128696605Y-79645004D01*
X128480698Y-79663893D01*
X128480693Y-79663894D01*
X128475308Y-79664365D01*
X128255504Y-79723261D01*
X128250600Y-79725548D01*
X128250594Y-79725550D01*
X128109951Y-79791134D01*
X128049266Y-79819432D01*
X128044829Y-79822539D01*
X128044827Y-79822540D01*
X127867296Y-79946847D01*
X127867292Y-79946851D01*
X127862861Y-79949953D01*
X127701953Y-80110861D01*
X127698851Y-80115292D01*
X127698847Y-80115296D01*
X127576074Y-80290636D01*
X127571432Y-80297266D01*
X127569142Y-80302177D01*
X127477550Y-80498594D01*
X127477548Y-80498600D01*
X127475261Y-80503504D01*
X127416365Y-80723308D01*
X127415894Y-80728693D01*
X127415893Y-80728698D01*
X127414826Y-80740896D01*
X127396532Y-80950000D01*
X122387468Y-80950000D01*
X122369174Y-80740896D01*
X122368107Y-80728698D01*
X122368106Y-80728693D01*
X122367635Y-80723308D01*
X122308739Y-80503504D01*
X122306452Y-80498600D01*
X122306450Y-80498594D01*
X122214858Y-80302177D01*
X122212568Y-80297266D01*
X122207926Y-80290636D01*
X122085153Y-80115296D01*
X122085149Y-80115292D01*
X122082047Y-80110861D01*
X121921139Y-79949953D01*
X121922391Y-79948701D01*
X121888089Y-79897134D01*
X121882500Y-79860325D01*
X121882500Y-71680940D01*
X121902185Y-71613901D01*
X121918819Y-71593259D01*
X122901259Y-70610819D01*
X122962582Y-70577334D01*
X122988940Y-70574500D01*
X134788938Y-70574500D01*
X134790238Y-70574507D01*
X134879407Y-70575441D01*
X134886184Y-70573976D01*
X134886192Y-70573975D01*
X134921402Y-70566362D01*
X134933782Y-70564335D01*
X134952388Y-70562248D01*
X134969582Y-70560319D01*
X134969583Y-70560319D01*
X134976472Y-70559546D01*
X135007873Y-70548611D01*
X135022444Y-70544515D01*
X135048169Y-70538954D01*
X135048175Y-70538952D01*
X135054942Y-70537489D01*
X135061222Y-70534561D01*
X135061224Y-70534560D01*
X135093883Y-70519331D01*
X135105490Y-70514618D01*
X135146073Y-70500485D01*
X135151952Y-70496812D01*
X135151955Y-70496810D01*
X135174271Y-70482865D01*
X135187569Y-70475644D01*
X135217707Y-70461591D01*
X135251652Y-70435260D01*
X135261941Y-70428082D01*
X135292492Y-70408993D01*
X135292498Y-70408988D01*
X135298375Y-70405316D01*
X135326893Y-70376997D01*
X135327514Y-70376416D01*
X135328177Y-70375901D01*
X135354037Y-70350041D01*
X135425807Y-70278770D01*
X135426457Y-70277746D01*
X135427549Y-70276529D01*
X136627574Y-69076504D01*
X136628497Y-69075590D01*
X136639174Y-69065134D01*
X136692268Y-69013141D01*
X136696022Y-69007316D01*
X136696026Y-69007311D01*
X136715541Y-68977029D01*
X136722862Y-68966840D01*
X136745336Y-68938687D01*
X136749664Y-68933266D01*
X136764136Y-68903330D01*
X136771542Y-68890132D01*
X136785800Y-68868008D01*
X136789554Y-68862183D01*
X136804249Y-68821809D01*
X136809130Y-68810255D01*
X136824809Y-68777821D01*
X136827827Y-68771578D01*
X136829386Y-68764826D01*
X136829388Y-68764820D01*
X136835306Y-68739183D01*
X136839603Y-68724675D01*
X136850978Y-68693422D01*
X136856363Y-68650798D01*
X136858563Y-68638450D01*
X136866666Y-68603347D01*
X136866666Y-68603346D01*
X136868226Y-68596589D01*
X136868367Y-68556426D01*
X136868396Y-68555543D01*
X136868500Y-68554717D01*
X136868500Y-68518108D01*
X136868853Y-68417000D01*
X136868588Y-68415814D01*
X136868500Y-68414193D01*
X136868500Y-67357675D01*
X136888185Y-67290636D01*
X136907635Y-67268543D01*
X136907139Y-67268047D01*
X137068047Y-67107139D01*
X137071149Y-67102708D01*
X137071153Y-67102704D01*
X137195460Y-66925173D01*
X137195461Y-66925171D01*
X137198568Y-66920734D01*
X137225618Y-66862724D01*
X137271790Y-66810286D01*
X137338984Y-66791134D01*
X137405865Y-66811350D01*
X137450382Y-66862724D01*
X137477432Y-66920734D01*
X137480539Y-66925171D01*
X137480540Y-66925173D01*
X137604847Y-67102704D01*
X137604851Y-67102708D01*
X137607953Y-67107139D01*
X137768861Y-67268047D01*
X137773292Y-67271149D01*
X137773296Y-67271153D01*
X137896864Y-67357675D01*
X137955266Y-67398568D01*
X137960177Y-67400858D01*
X138156594Y-67492450D01*
X138156600Y-67492452D01*
X138161504Y-67494739D01*
X138381308Y-67553635D01*
X138386693Y-67554106D01*
X138386698Y-67554107D01*
X138602605Y-67572996D01*
X138608000Y-67573468D01*
X138613395Y-67572996D01*
X138829302Y-67554107D01*
X138829307Y-67554106D01*
X138834692Y-67553635D01*
X139054496Y-67494739D01*
X139059400Y-67492452D01*
X139059406Y-67492450D01*
X139255823Y-67400858D01*
X139260734Y-67398568D01*
X139319136Y-67357675D01*
X139442704Y-67271153D01*
X139442708Y-67271149D01*
X139447139Y-67268047D01*
X139608047Y-67107139D01*
X139611149Y-67102708D01*
X139611153Y-67102704D01*
X139621925Y-67087319D01*
X139676502Y-67043694D01*
X139746000Y-67036500D01*
X139808355Y-67068023D01*
X139843769Y-67128252D01*
X139847500Y-67158442D01*
X139847500Y-67312646D01*
X139850618Y-67338846D01*
X139896061Y-67441153D01*
X139975287Y-67520241D01*
X139985758Y-67524870D01*
X139985759Y-67524871D01*
X140069147Y-67561737D01*
X140069149Y-67561738D01*
X140077673Y-67565506D01*
X140103354Y-67568500D01*
X142192646Y-67568500D01*
X142196300Y-67568065D01*
X142196302Y-67568065D01*
X142201266Y-67567474D01*
X142218846Y-67565382D01*
X142321153Y-67519939D01*
X142400241Y-67440713D01*
X142417861Y-67400858D01*
X142441737Y-67346853D01*
X142441738Y-67346851D01*
X142445506Y-67338327D01*
X142448500Y-67312646D01*
X142448500Y-65223354D01*
X142445382Y-65197154D01*
X142399939Y-65094847D01*
X142320713Y-65015759D01*
X142310242Y-65011130D01*
X142310241Y-65011129D01*
X142226853Y-64974263D01*
X142226851Y-64974262D01*
X142218327Y-64970494D01*
X142192646Y-64967500D01*
X140103354Y-64967500D01*
X140099700Y-64967935D01*
X140099698Y-64967935D01*
X140094734Y-64968526D01*
X140077154Y-64970618D01*
X139974847Y-65016061D01*
X139895759Y-65095287D01*
X139891130Y-65105758D01*
X139891129Y-65105759D01*
X139859048Y-65178325D01*
X139850494Y-65197673D01*
X139847500Y-65223354D01*
X139847500Y-65377558D01*
X139827815Y-65444597D01*
X139775011Y-65490352D01*
X139705853Y-65500296D01*
X139642297Y-65471271D01*
X139621925Y-65448681D01*
X139611153Y-65433296D01*
X139611149Y-65433292D01*
X139608047Y-65428861D01*
X139447139Y-65267953D01*
X139448391Y-65266701D01*
X139414089Y-65215134D01*
X139408500Y-65178325D01*
X139408500Y-64957062D01*
X139408507Y-64955763D01*
X139408642Y-64942832D01*
X139409441Y-64866593D01*
X139407976Y-64859816D01*
X139407975Y-64859808D01*
X139400362Y-64824598D01*
X139398334Y-64812215D01*
X139394319Y-64776418D01*
X139394319Y-64776417D01*
X139393546Y-64769528D01*
X139382611Y-64738127D01*
X139378515Y-64723556D01*
X139372954Y-64697833D01*
X139372953Y-64697831D01*
X139371489Y-64691058D01*
X139353334Y-64652124D01*
X139348616Y-64640503D01*
X139336767Y-64606479D01*
X139336766Y-64606476D01*
X139334485Y-64599927D01*
X139316866Y-64571730D01*
X139309644Y-64558429D01*
X139298519Y-64534574D01*
X139295590Y-64528292D01*
X139285139Y-64514819D01*
X139269261Y-64494349D01*
X139262082Y-64484058D01*
X139242988Y-64453502D01*
X139239316Y-64447625D01*
X139210997Y-64419107D01*
X139210416Y-64418486D01*
X139209901Y-64417823D01*
X139184041Y-64391963D01*
X139112770Y-64320193D01*
X139111746Y-64319543D01*
X139110529Y-64318451D01*
X137910504Y-63118426D01*
X137909590Y-63117503D01*
X137869044Y-63076099D01*
X137847141Y-63053732D01*
X137841316Y-63049978D01*
X137841311Y-63049974D01*
X137811029Y-63030459D01*
X137800840Y-63023138D01*
X137784930Y-63010437D01*
X137767266Y-62996336D01*
X137737330Y-62981864D01*
X137724132Y-62974458D01*
X137702008Y-62960200D01*
X137696183Y-62956446D01*
X137655809Y-62941751D01*
X137644255Y-62936870D01*
X137611821Y-62921191D01*
X137611822Y-62921191D01*
X137605578Y-62918173D01*
X137598826Y-62916614D01*
X137598820Y-62916612D01*
X137573183Y-62910694D01*
X137558675Y-62906397D01*
X137527422Y-62895022D01*
X137499962Y-62891553D01*
X137484798Y-62889637D01*
X137472450Y-62887437D01*
X137437347Y-62879334D01*
X137437346Y-62879334D01*
X137430589Y-62877774D01*
X137408710Y-62877697D01*
X137390426Y-62877633D01*
X137389543Y-62877604D01*
X137388717Y-62877500D01*
X137352255Y-62877500D01*
X137351822Y-62877499D01*
X137254489Y-62877159D01*
X137254486Y-62877159D01*
X137251000Y-62877147D01*
X137249814Y-62877412D01*
X137248193Y-62877500D01*
X132267062Y-62877500D01*
X132265763Y-62877493D01*
X132265019Y-62877485D01*
X132176593Y-62876559D01*
X132169816Y-62878024D01*
X132169808Y-62878025D01*
X132134598Y-62885638D01*
X132122218Y-62887665D01*
X132104642Y-62889637D01*
X132086418Y-62891681D01*
X132086417Y-62891681D01*
X132079528Y-62892454D01*
X132048127Y-62903389D01*
X132033556Y-62907485D01*
X132007831Y-62913046D01*
X132007825Y-62913048D01*
X132001058Y-62914511D01*
X131994778Y-62917439D01*
X131994776Y-62917440D01*
X131962117Y-62932669D01*
X131950510Y-62937382D01*
X131909927Y-62951515D01*
X131904048Y-62955188D01*
X131904045Y-62955190D01*
X131881729Y-62969135D01*
X131868431Y-62976356D01*
X131838293Y-62990409D01*
X131804348Y-63016740D01*
X131794059Y-63023918D01*
X131763508Y-63043007D01*
X131763502Y-63043012D01*
X131757625Y-63046684D01*
X131729107Y-63075003D01*
X131728486Y-63075584D01*
X131727823Y-63076099D01*
X131701963Y-63101959D01*
X131648250Y-63155299D01*
X131630193Y-63173230D01*
X131629543Y-63174254D01*
X131628451Y-63175471D01*
X130426327Y-64377595D01*
X130365004Y-64411080D01*
X130327841Y-64413442D01*
X130226000Y-64404532D01*
X130220605Y-64405004D01*
X130004698Y-64423893D01*
X130004693Y-64423894D01*
X129999308Y-64424365D01*
X129779504Y-64483261D01*
X129774600Y-64485548D01*
X129774594Y-64485550D01*
X129618307Y-64558429D01*
X129573266Y-64579432D01*
X129568829Y-64582539D01*
X129568827Y-64582540D01*
X129391296Y-64706847D01*
X129391292Y-64706851D01*
X129386861Y-64709953D01*
X129225953Y-64870861D01*
X129210150Y-64893431D01*
X129193910Y-64916624D01*
X129139333Y-64960248D01*
X129092335Y-64969500D01*
X126235675Y-64969500D01*
X126168636Y-64949815D01*
X126146543Y-64930365D01*
X126146047Y-64930861D01*
X125985139Y-64769953D01*
X125986391Y-64768701D01*
X125952089Y-64717134D01*
X125946500Y-64680325D01*
X125946500Y-63243675D01*
X125966185Y-63176636D01*
X125985635Y-63154543D01*
X125985139Y-63154047D01*
X126146047Y-62993139D01*
X126149149Y-62988708D01*
X126149153Y-62988704D01*
X126273460Y-62811173D01*
X126273461Y-62811171D01*
X126276568Y-62806734D01*
X126286348Y-62785761D01*
X126370450Y-62605406D01*
X126370452Y-62605400D01*
X126372739Y-62600496D01*
X126431635Y-62380692D01*
X126451468Y-62154000D01*
X126436958Y-61988152D01*
X126432107Y-61932698D01*
X126432106Y-61932693D01*
X126431635Y-61927308D01*
X126372739Y-61707504D01*
X126370452Y-61702600D01*
X126370450Y-61702594D01*
X126278858Y-61506177D01*
X126276568Y-61501266D01*
X126273460Y-61496827D01*
X126149153Y-61319296D01*
X126149149Y-61319292D01*
X126146047Y-61314861D01*
X125985139Y-61153953D01*
X125980708Y-61150851D01*
X125980704Y-61150847D01*
X125803173Y-61026540D01*
X125803171Y-61026539D01*
X125798734Y-61023432D01*
X125777761Y-61013652D01*
X125597406Y-60929550D01*
X125597400Y-60929548D01*
X125592496Y-60927261D01*
X125372692Y-60868365D01*
X125367307Y-60867894D01*
X125367302Y-60867893D01*
X125151395Y-60849004D01*
X125146000Y-60848532D01*
X125140605Y-60849004D01*
X124924698Y-60867893D01*
X124924693Y-60867894D01*
X124919308Y-60868365D01*
X124699504Y-60927261D01*
X124694600Y-60929548D01*
X124694594Y-60929550D01*
X124514239Y-61013652D01*
X124493266Y-61023432D01*
X124488829Y-61026539D01*
X124488827Y-61026540D01*
X124311296Y-61150847D01*
X124311292Y-61150851D01*
X124306861Y-61153953D01*
X124145953Y-61314861D01*
X124142851Y-61319292D01*
X124142847Y-61319296D01*
X124018540Y-61496827D01*
X124015432Y-61501266D01*
X124013142Y-61506177D01*
X123921550Y-61702594D01*
X123921548Y-61702600D01*
X123919261Y-61707504D01*
X123860365Y-61927308D01*
X123859894Y-61932693D01*
X123859893Y-61932698D01*
X123855042Y-61988152D01*
X123840532Y-62154000D01*
X123860365Y-62380692D01*
X123919261Y-62600496D01*
X123921548Y-62605400D01*
X123921550Y-62605406D01*
X124005652Y-62785761D01*
X124015432Y-62806734D01*
X124018539Y-62811171D01*
X124018540Y-62811173D01*
X124142847Y-62988704D01*
X124142851Y-62988708D01*
X124145953Y-62993139D01*
X124306861Y-63154047D01*
X124305609Y-63155299D01*
X124339911Y-63206866D01*
X124345500Y-63243675D01*
X124345500Y-64680325D01*
X124325815Y-64747364D01*
X124306365Y-64769457D01*
X124306861Y-64769953D01*
X124145953Y-64930861D01*
X124142851Y-64935292D01*
X124142847Y-64935296D01*
X124023804Y-65105309D01*
X124015432Y-65117266D01*
X124013142Y-65122177D01*
X123921550Y-65318594D01*
X123921548Y-65318600D01*
X123919261Y-65323504D01*
X123860365Y-65543308D01*
X123859894Y-65548693D01*
X123859893Y-65548698D01*
X123843349Y-65737796D01*
X123840532Y-65770000D01*
X123841004Y-65775395D01*
X123859869Y-65991020D01*
X123860365Y-65996692D01*
X123919261Y-66216496D01*
X123921548Y-66221400D01*
X123921550Y-66221406D01*
X123975150Y-66336350D01*
X124015432Y-66422734D01*
X124018539Y-66427171D01*
X124018540Y-66427173D01*
X124142847Y-66604704D01*
X124142851Y-66604708D01*
X124145953Y-66609139D01*
X124306861Y-66770047D01*
X124311292Y-66773149D01*
X124311296Y-66773153D01*
X124439220Y-66862725D01*
X124493266Y-66900568D01*
X124498177Y-66902858D01*
X124694594Y-66994450D01*
X124694600Y-66994452D01*
X124699504Y-66996739D01*
X124919308Y-67055635D01*
X124924693Y-67056106D01*
X124924698Y-67056107D01*
X125140605Y-67074996D01*
X125146000Y-67075468D01*
X125151395Y-67074996D01*
X125367302Y-67056107D01*
X125367307Y-67056106D01*
X125372692Y-67055635D01*
X125592496Y-66996739D01*
X125597400Y-66994452D01*
X125597406Y-66994450D01*
X125793823Y-66902858D01*
X125798734Y-66900568D01*
X125852780Y-66862725D01*
X125980704Y-66773153D01*
X125980708Y-66773149D01*
X125985139Y-66770047D01*
X126146047Y-66609139D01*
X126147299Y-66610391D01*
X126198866Y-66576089D01*
X126235675Y-66570500D01*
X129195952Y-66570500D01*
X129262991Y-66590185D01*
X129283633Y-66606819D01*
X129386861Y-66710047D01*
X129391292Y-66713149D01*
X129391296Y-66713153D01*
X129568827Y-66837460D01*
X129573266Y-66840568D01*
X129578177Y-66842858D01*
X129774594Y-66934450D01*
X129774600Y-66934452D01*
X129779504Y-66936739D01*
X129999308Y-66995635D01*
X130004693Y-66996106D01*
X130004698Y-66996107D01*
X130220605Y-67014996D01*
X130226000Y-67015468D01*
X130231395Y-67014996D01*
X130447302Y-66996107D01*
X130447307Y-66996106D01*
X130452692Y-66995635D01*
X130672496Y-66936739D01*
X130677400Y-66934452D01*
X130677406Y-66934450D01*
X130873823Y-66842858D01*
X130878734Y-66840568D01*
X130883173Y-66837460D01*
X131060704Y-66713153D01*
X131060708Y-66713149D01*
X131065139Y-66710047D01*
X131226047Y-66549139D01*
X131229149Y-66544708D01*
X131229153Y-66544704D01*
X131353460Y-66367173D01*
X131353461Y-66367171D01*
X131356568Y-66362734D01*
X131396348Y-66277426D01*
X131415522Y-66236309D01*
X132023601Y-66236309D01*
X132037214Y-66472394D01*
X132038626Y-66482439D01*
X132090615Y-66713135D01*
X132093647Y-66722810D01*
X132182617Y-66941918D01*
X132187194Y-66950978D01*
X132293490Y-67124437D01*
X132303784Y-67133749D01*
X132312421Y-67130026D01*
X133161840Y-66280607D01*
X133169332Y-66266887D01*
X133169203Y-66265081D01*
X133165021Y-66258574D01*
X132317747Y-65411300D01*
X132306396Y-65405102D01*
X132294307Y-65414573D01*
X132222156Y-65520344D01*
X132217144Y-65529166D01*
X132117581Y-65743658D01*
X132114076Y-65753183D01*
X132050878Y-65981064D01*
X132048979Y-65991020D01*
X132023849Y-66226166D01*
X132023601Y-66236309D01*
X131415522Y-66236309D01*
X131450450Y-66161406D01*
X131450452Y-66161400D01*
X131452739Y-66156496D01*
X131511635Y-65936692D01*
X131512833Y-65923008D01*
X131530996Y-65715395D01*
X131531468Y-65710000D01*
X131522558Y-65608160D01*
X131536325Y-65539662D01*
X131558405Y-65509673D01*
X132022660Y-65045418D01*
X132664468Y-65045418D01*
X132671105Y-65057552D01*
X133515393Y-65901840D01*
X133529113Y-65909332D01*
X133530919Y-65909203D01*
X133537426Y-65905021D01*
X134385860Y-65056587D01*
X134392767Y-65043937D01*
X134385117Y-65033436D01*
X134364927Y-65017491D01*
X134356478Y-65011877D01*
X134149447Y-64897590D01*
X134140190Y-64893431D01*
X133917283Y-64814494D01*
X133907468Y-64811901D01*
X133674656Y-64770431D01*
X133664562Y-64769477D01*
X133428097Y-64766587D01*
X133417972Y-64767295D01*
X133184222Y-64803065D01*
X133174348Y-64805417D01*
X132949569Y-64878886D01*
X132940220Y-64882816D01*
X132730461Y-64992009D01*
X132721876Y-64997416D01*
X132672786Y-65034273D01*
X132664468Y-65045418D01*
X132022660Y-65045418D01*
X132553259Y-64514819D01*
X132614582Y-64481334D01*
X132640940Y-64478500D01*
X136955060Y-64478500D01*
X137022099Y-64498185D01*
X137042741Y-64514819D01*
X137694687Y-65166765D01*
X137728172Y-65228088D01*
X137723188Y-65297780D01*
X137694687Y-65342127D01*
X137607953Y-65428861D01*
X137604851Y-65433292D01*
X137604847Y-65433296D01*
X137482406Y-65608162D01*
X137477432Y-65615266D01*
X137450424Y-65673186D01*
X137450382Y-65673275D01*
X137404210Y-65725714D01*
X137337016Y-65744866D01*
X137270135Y-65724650D01*
X137225618Y-65673275D01*
X137225577Y-65673186D01*
X137198568Y-65615266D01*
X137193594Y-65608162D01*
X137071153Y-65433296D01*
X137071149Y-65433292D01*
X137068047Y-65428861D01*
X136907139Y-65267953D01*
X136902708Y-65264851D01*
X136902704Y-65264847D01*
X136725173Y-65140540D01*
X136725171Y-65140539D01*
X136720734Y-65137432D01*
X136667969Y-65112827D01*
X136519406Y-65043550D01*
X136519400Y-65043548D01*
X136514496Y-65041261D01*
X136294692Y-64982365D01*
X136289307Y-64981894D01*
X136289302Y-64981893D01*
X136073395Y-64963004D01*
X136068000Y-64962532D01*
X136062605Y-64963004D01*
X135846698Y-64981893D01*
X135846693Y-64981894D01*
X135841308Y-64982365D01*
X135621504Y-65041261D01*
X135616600Y-65043548D01*
X135616594Y-65043550D01*
X135468031Y-65112827D01*
X135415266Y-65137432D01*
X135410829Y-65140539D01*
X135410827Y-65140540D01*
X135233296Y-65264847D01*
X135233292Y-65264851D01*
X135228861Y-65267953D01*
X135067953Y-65428861D01*
X135064851Y-65433292D01*
X135064847Y-65433296D01*
X135019641Y-65497858D01*
X134965064Y-65541483D01*
X134895566Y-65548677D01*
X134833211Y-65517154D01*
X134813953Y-65494089D01*
X134761381Y-65412824D01*
X134750865Y-65403769D01*
X134741451Y-65408102D01*
X133894160Y-66255393D01*
X133886668Y-66269113D01*
X133886797Y-66270919D01*
X133890979Y-66277426D01*
X134738066Y-67124513D01*
X134749884Y-67130966D01*
X134761437Y-67122140D01*
X134818158Y-67043205D01*
X134819442Y-67044128D01*
X134865634Y-67001593D01*
X134934461Y-66989566D01*
X134998864Y-67016659D01*
X135022103Y-67041658D01*
X135064847Y-67102704D01*
X135064851Y-67102708D01*
X135067953Y-67107139D01*
X135228861Y-67268047D01*
X135227609Y-67269299D01*
X135261911Y-67320866D01*
X135267500Y-67357675D01*
X135267500Y-68121060D01*
X135247815Y-68188099D01*
X135231181Y-68208741D01*
X134502741Y-68937181D01*
X134441418Y-68970666D01*
X134415060Y-68973500D01*
X122615062Y-68973500D01*
X122613763Y-68973493D01*
X122613019Y-68973485D01*
X122524593Y-68972559D01*
X122517816Y-68974024D01*
X122517808Y-68974025D01*
X122482598Y-68981638D01*
X122470218Y-68983665D01*
X122451612Y-68985752D01*
X122434418Y-68987681D01*
X122434417Y-68987681D01*
X122427528Y-68988454D01*
X122396127Y-68999389D01*
X122381556Y-69003485D01*
X122355833Y-69009046D01*
X122355831Y-69009047D01*
X122349058Y-69010511D01*
X122310127Y-69028665D01*
X122298503Y-69033384D01*
X122264479Y-69045233D01*
X122264476Y-69045234D01*
X122257927Y-69047515D01*
X122238070Y-69059923D01*
X122229730Y-69065134D01*
X122216429Y-69072356D01*
X122207535Y-69076504D01*
X122186292Y-69086410D01*
X122180816Y-69090657D01*
X122180817Y-69090657D01*
X122152349Y-69112739D01*
X122142058Y-69119918D01*
X122105625Y-69142684D01*
X122077107Y-69171003D01*
X122076486Y-69171584D01*
X122075823Y-69172099D01*
X122049963Y-69197959D01*
X121978193Y-69269230D01*
X121977543Y-69270254D01*
X121976451Y-69271471D01*
X120522426Y-70725496D01*
X120521503Y-70726410D01*
X120457732Y-70788859D01*
X120453978Y-70794684D01*
X120453974Y-70794689D01*
X120434459Y-70824971D01*
X120427138Y-70835160D01*
X120400336Y-70868734D01*
X120385866Y-70898667D01*
X120378459Y-70911867D01*
X120360446Y-70939817D01*
X120358076Y-70946329D01*
X120345752Y-70980188D01*
X120340871Y-70991742D01*
X120322173Y-71030422D01*
X120320614Y-71037174D01*
X120320612Y-71037180D01*
X120314694Y-71062817D01*
X120310397Y-71077325D01*
X120299022Y-71108578D01*
X120298154Y-71115452D01*
X120293637Y-71151202D01*
X120291437Y-71163550D01*
X120283334Y-71198653D01*
X120281774Y-71205411D01*
X120281750Y-71212343D01*
X120281633Y-71245574D01*
X120281604Y-71246457D01*
X120281500Y-71247283D01*
X120281500Y-71283892D01*
X120281147Y-71385000D01*
X120281412Y-71386186D01*
X120281500Y-71387807D01*
X120281500Y-79860325D01*
X120261815Y-79927364D01*
X120242365Y-79949457D01*
X120242861Y-79949953D01*
X120081953Y-80110861D01*
X120078851Y-80115292D01*
X120078847Y-80115296D01*
X119956074Y-80290636D01*
X119951432Y-80297266D01*
X119949142Y-80302177D01*
X119857550Y-80498594D01*
X119857548Y-80498600D01*
X119855261Y-80503504D01*
X119796365Y-80723308D01*
X119795894Y-80728693D01*
X119795893Y-80728698D01*
X119794826Y-80740896D01*
X119776532Y-80950000D01*
X119796365Y-81176692D01*
X119855261Y-81396496D01*
X119857548Y-81401400D01*
X119857550Y-81401406D01*
X119941652Y-81581761D01*
X119951432Y-81602734D01*
X119954539Y-81607171D01*
X119954540Y-81607173D01*
X120078847Y-81784704D01*
X120078851Y-81784708D01*
X120081953Y-81789139D01*
X120242861Y-81950047D01*
X120241609Y-81951299D01*
X120275911Y-82002866D01*
X120281500Y-82039675D01*
X120281500Y-83670325D01*
X120261815Y-83737364D01*
X120242365Y-83759457D01*
X120242861Y-83759953D01*
X120081953Y-83920861D01*
X120078851Y-83925292D01*
X120078847Y-83925296D01*
X119954540Y-84102827D01*
X119951432Y-84107266D01*
X119949142Y-84112177D01*
X119857550Y-84308594D01*
X119857548Y-84308600D01*
X119855261Y-84313504D01*
X119796365Y-84533308D01*
X119795894Y-84538693D01*
X119795893Y-84538698D01*
X119783337Y-84682215D01*
X119776532Y-84760000D01*
X119777004Y-84765395D01*
X119795091Y-84972127D01*
X119796365Y-84986692D01*
X119855261Y-85206496D01*
X119857548Y-85211400D01*
X119857550Y-85211406D01*
X119894282Y-85290177D01*
X119951432Y-85412734D01*
X119954539Y-85417171D01*
X119954540Y-85417173D01*
X120078847Y-85594704D01*
X120078851Y-85594708D01*
X120081953Y-85599139D01*
X120242861Y-85760047D01*
X120241609Y-85761299D01*
X120275911Y-85812866D01*
X120281500Y-85849675D01*
X120281500Y-87734325D01*
X120261815Y-87801364D01*
X120242365Y-87823457D01*
X120242861Y-87823953D01*
X120081953Y-87984861D01*
X120078851Y-87989292D01*
X120078847Y-87989296D01*
X119954540Y-88166827D01*
X119951432Y-88171266D01*
X119949142Y-88176177D01*
X119857550Y-88372594D01*
X119857548Y-88372600D01*
X119855261Y-88377504D01*
X119796365Y-88597308D01*
X119776532Y-88824000D01*
X118326500Y-88824000D01*
X118326500Y-77467675D01*
X118346185Y-77400636D01*
X118365635Y-77378543D01*
X118365139Y-77378047D01*
X118526047Y-77217139D01*
X118529149Y-77212708D01*
X118529153Y-77212704D01*
X118653460Y-77035173D01*
X118653461Y-77035171D01*
X118656568Y-77030734D01*
X118666348Y-77009761D01*
X118750450Y-76829406D01*
X118750452Y-76829400D01*
X118752739Y-76824496D01*
X118811635Y-76604692D01*
X118831468Y-76378000D01*
X118827119Y-76328294D01*
X118812107Y-76156698D01*
X118812106Y-76156693D01*
X118811635Y-76151308D01*
X118752739Y-75931504D01*
X118750452Y-75926600D01*
X118750450Y-75926594D01*
X118658858Y-75730177D01*
X118656568Y-75725266D01*
X118653460Y-75720827D01*
X118529153Y-75543296D01*
X118529149Y-75543292D01*
X118526047Y-75538861D01*
X118365139Y-75377953D01*
X118366391Y-75376701D01*
X118332089Y-75325134D01*
X118326500Y-75288325D01*
X118326500Y-72347675D01*
X118346185Y-72280636D01*
X118365635Y-72258543D01*
X118365139Y-72258047D01*
X118526047Y-72097139D01*
X118529149Y-72092708D01*
X118529153Y-72092704D01*
X118653460Y-71915173D01*
X118653461Y-71915171D01*
X118656568Y-71910734D01*
X118666348Y-71889761D01*
X118750450Y-71709406D01*
X118750452Y-71709400D01*
X118752739Y-71704496D01*
X118811635Y-71484692D01*
X118820112Y-71387807D01*
X118830996Y-71263395D01*
X118831468Y-71258000D01*
X118822670Y-71157434D01*
X118812107Y-71036698D01*
X118812106Y-71036693D01*
X118811635Y-71031308D01*
X118752739Y-70811504D01*
X118750452Y-70806600D01*
X118750450Y-70806594D01*
X118658858Y-70610177D01*
X118656568Y-70605266D01*
X118637010Y-70577334D01*
X118529153Y-70423296D01*
X118529149Y-70423292D01*
X118526047Y-70418861D01*
X118365139Y-70257953D01*
X118360708Y-70254851D01*
X118360704Y-70254847D01*
X118183173Y-70130540D01*
X118183171Y-70130539D01*
X118178734Y-70127432D01*
X118157761Y-70117652D01*
X117977406Y-70033550D01*
X117977400Y-70033548D01*
X117972496Y-70031261D01*
X117752692Y-69972365D01*
X117747307Y-69971894D01*
X117747302Y-69971893D01*
X117531395Y-69953004D01*
X117526000Y-69952532D01*
X117520605Y-69953004D01*
X117304698Y-69971893D01*
X117304693Y-69971894D01*
X117299308Y-69972365D01*
X117079504Y-70031261D01*
X117074600Y-70033548D01*
X117074594Y-70033550D01*
X116894239Y-70117652D01*
X116873266Y-70127432D01*
X116868829Y-70130539D01*
X116868827Y-70130540D01*
X116691296Y-70254847D01*
X116691292Y-70254851D01*
X116686861Y-70257953D01*
X116525953Y-70418861D01*
X116522851Y-70423292D01*
X116522847Y-70423296D01*
X116414990Y-70577334D01*
X116395432Y-70605266D01*
X116393142Y-70610177D01*
X116301550Y-70806594D01*
X116301548Y-70806600D01*
X116299261Y-70811504D01*
X116240365Y-71031308D01*
X116239894Y-71036693D01*
X116239893Y-71036698D01*
X116229330Y-71157434D01*
X116220532Y-71258000D01*
X116221004Y-71263395D01*
X116231889Y-71387807D01*
X116240365Y-71484692D01*
X116299261Y-71704496D01*
X116301548Y-71709400D01*
X116301550Y-71709406D01*
X116385652Y-71889761D01*
X116395432Y-71910734D01*
X116398539Y-71915171D01*
X116398540Y-71915173D01*
X116522847Y-72092704D01*
X116522851Y-72092708D01*
X116525953Y-72097139D01*
X116686861Y-72258047D01*
X116685609Y-72259299D01*
X116719911Y-72310866D01*
X116725500Y-72347675D01*
X116725500Y-75288325D01*
X116705815Y-75355364D01*
X116686365Y-75377457D01*
X116686861Y-75377953D01*
X116525953Y-75538861D01*
X116522851Y-75543292D01*
X116522847Y-75543296D01*
X116398540Y-75720827D01*
X116395432Y-75725266D01*
X116393142Y-75730177D01*
X116301550Y-75926594D01*
X116301548Y-75926600D01*
X116299261Y-75931504D01*
X116240365Y-76151308D01*
X116239894Y-76156693D01*
X116239893Y-76156698D01*
X116224881Y-76328294D01*
X116220532Y-76378000D01*
X116240365Y-76604692D01*
X116299261Y-76824496D01*
X116301548Y-76829400D01*
X116301550Y-76829406D01*
X116385652Y-77009761D01*
X116395432Y-77030734D01*
X116398539Y-77035171D01*
X116398540Y-77035173D01*
X116522847Y-77212704D01*
X116522851Y-77212708D01*
X116525953Y-77217139D01*
X116686861Y-77378047D01*
X116685609Y-77379299D01*
X116719911Y-77430866D01*
X116725500Y-77467675D01*
X116725500Y-97704938D01*
X116725493Y-97706237D01*
X116724559Y-97795407D01*
X116726024Y-97802184D01*
X116726025Y-97802192D01*
X116733638Y-97837402D01*
X116735666Y-97849785D01*
X116739441Y-97883437D01*
X116740454Y-97892472D01*
X116751389Y-97923873D01*
X116755485Y-97938444D01*
X116761046Y-97964169D01*
X116761048Y-97964175D01*
X116762511Y-97970942D01*
X116765439Y-97977222D01*
X116765440Y-97977224D01*
X116780669Y-98009883D01*
X116785382Y-98021490D01*
X116799515Y-98062073D01*
X116803188Y-98067952D01*
X116803190Y-98067955D01*
X116817135Y-98090271D01*
X116824356Y-98103569D01*
X116838409Y-98133707D01*
X116842660Y-98139187D01*
X116864736Y-98167646D01*
X116871918Y-98177941D01*
X116891007Y-98208492D01*
X116891012Y-98208498D01*
X116894684Y-98214375D01*
X116923003Y-98242893D01*
X116923584Y-98243514D01*
X116924099Y-98244177D01*
X116949959Y-98270037D01*
X116984875Y-98305197D01*
X117021230Y-98341807D01*
X117022254Y-98342457D01*
X117023471Y-98343549D01*
X118167741Y-99487819D01*
X118201226Y-99549142D01*
X118196242Y-99618834D01*
X118154370Y-99674767D01*
X118088906Y-99699184D01*
X118080060Y-99699500D01*
X100799139Y-99699500D01*
X100777609Y-99697616D01*
X100762000Y-99694864D01*
X100751319Y-99696747D01*
X100749214Y-99696747D01*
X100733034Y-99695686D01*
X100658742Y-99685906D01*
X100627473Y-99677528D01*
X100546329Y-99643917D01*
X100518297Y-99627732D01*
X100517358Y-99627011D01*
X100485786Y-99602785D01*
X100448621Y-99574267D01*
X100425733Y-99551379D01*
X100372268Y-99481703D01*
X100356082Y-99453669D01*
X100353710Y-99447941D01*
X100322472Y-99372526D01*
X100314094Y-99341258D01*
X100304314Y-99266966D01*
X100303253Y-99250786D01*
X100303253Y-99248681D01*
X100305136Y-99238000D01*
X100302384Y-99222391D01*
X100300500Y-99200861D01*
X100300500Y-97503233D01*
X112064906Y-97503233D01*
X112065333Y-97507708D01*
X112065333Y-97507709D01*
X112083565Y-97698794D01*
X112091102Y-97777792D01*
X112092170Y-97782156D01*
X112139903Y-97977224D01*
X112156657Y-98045694D01*
X112158340Y-98049850D01*
X112158342Y-98049855D01*
X112254181Y-98286468D01*
X112260199Y-98301326D01*
X112399558Y-98539335D01*
X112571816Y-98754732D01*
X112773364Y-98943008D01*
X112820301Y-98975569D01*
X112996281Y-99097651D01*
X112996285Y-99097653D01*
X112999979Y-99100216D01*
X113004004Y-99102218D01*
X113004005Y-99102219D01*
X113242887Y-99221062D01*
X113242892Y-99221064D01*
X113246914Y-99223065D01*
X113508998Y-99308980D01*
X113589949Y-99323035D01*
X113777004Y-99355514D01*
X113777009Y-99355515D01*
X113780738Y-99356162D01*
X113818373Y-99358036D01*
X113866340Y-99360424D01*
X113866359Y-99360424D01*
X113867876Y-99360500D01*
X114040070Y-99360500D01*
X114245083Y-99345625D01*
X114249464Y-99344658D01*
X114249469Y-99344657D01*
X114361093Y-99320012D01*
X114514403Y-99286164D01*
X114518594Y-99284576D01*
X114518598Y-99284575D01*
X114637825Y-99239404D01*
X114772319Y-99188449D01*
X114819087Y-99162472D01*
X115009505Y-99056704D01*
X115013428Y-99054525D01*
X115090450Y-98995743D01*
X115229112Y-98889920D01*
X115229116Y-98889916D01*
X115232678Y-98887198D01*
X115425477Y-98689974D01*
X115587787Y-98466984D01*
X115589872Y-98463021D01*
X115589877Y-98463013D01*
X115690033Y-98272645D01*
X115716206Y-98222899D01*
X115808045Y-97962832D01*
X115814005Y-97932594D01*
X115860511Y-97696643D01*
X115860512Y-97696638D01*
X115861380Y-97692232D01*
X115870216Y-97514741D01*
X115874871Y-97421252D01*
X115874871Y-97421248D01*
X115875094Y-97416767D01*
X115869669Y-97359909D01*
X115849325Y-97146680D01*
X115849324Y-97146676D01*
X115848898Y-97142208D01*
X115827115Y-97053187D01*
X115784411Y-96878669D01*
X115784409Y-96878664D01*
X115783343Y-96874306D01*
X115763716Y-96825849D01*
X115681486Y-96622833D01*
X115681484Y-96622828D01*
X115679801Y-96618674D01*
X115540442Y-96380665D01*
X115368184Y-96165268D01*
X115166636Y-95976992D01*
X115009807Y-95868196D01*
X114943719Y-95822349D01*
X114943715Y-95822347D01*
X114940021Y-95819784D01*
X114935995Y-95817781D01*
X114697113Y-95698938D01*
X114697108Y-95698936D01*
X114693086Y-95696935D01*
X114431002Y-95611020D01*
X114339566Y-95595144D01*
X114162996Y-95564486D01*
X114162991Y-95564485D01*
X114159262Y-95563838D01*
X114121627Y-95561964D01*
X114073660Y-95559576D01*
X114073641Y-95559576D01*
X114072124Y-95559500D01*
X113899930Y-95559500D01*
X113694917Y-95574375D01*
X113690536Y-95575342D01*
X113690531Y-95575343D01*
X113578907Y-95599988D01*
X113425597Y-95633836D01*
X113421406Y-95635424D01*
X113421402Y-95635425D01*
X113302175Y-95680596D01*
X113167681Y-95731551D01*
X112926572Y-95865475D01*
X112923007Y-95868196D01*
X112710888Y-96030080D01*
X112710884Y-96030084D01*
X112707322Y-96032802D01*
X112514523Y-96230026D01*
X112511881Y-96233655D01*
X112511879Y-96233658D01*
X112455206Y-96311519D01*
X112352213Y-96453016D01*
X112350128Y-96456979D01*
X112350123Y-96456987D01*
X112287351Y-96576298D01*
X112223794Y-96697101D01*
X112131955Y-96957168D01*
X112131088Y-96961569D01*
X112131087Y-96961571D01*
X112080196Y-97219773D01*
X112078620Y-97227768D01*
X112073478Y-97331060D01*
X112065361Y-97494099D01*
X112064906Y-97503233D01*
X100300500Y-97503233D01*
X100300500Y-67484121D01*
X116659370Y-67484121D01*
X116664999Y-67492048D01*
X116667083Y-67493508D01*
X116871256Y-67612818D01*
X116880408Y-67617202D01*
X117101321Y-67701560D01*
X117111064Y-67704391D01*
X117342800Y-67751539D01*
X117352870Y-67752739D01*
X117589199Y-67761406D01*
X117599320Y-67760946D01*
X117833893Y-67730896D01*
X117843806Y-67728789D01*
X118070325Y-67660830D01*
X118079752Y-67657136D01*
X118292126Y-67553095D01*
X118300841Y-67547900D01*
X118376236Y-67494121D01*
X132661370Y-67494121D01*
X132666999Y-67502048D01*
X132669083Y-67503508D01*
X132873256Y-67622818D01*
X132882408Y-67627202D01*
X133103321Y-67711560D01*
X133113064Y-67714391D01*
X133344800Y-67761539D01*
X133354870Y-67762739D01*
X133591199Y-67771406D01*
X133601320Y-67770946D01*
X133835893Y-67740896D01*
X133845806Y-67738789D01*
X134072325Y-67670830D01*
X134081752Y-67667136D01*
X134294126Y-67563095D01*
X134302841Y-67557900D01*
X134382592Y-67501014D01*
X134390860Y-67490482D01*
X134383984Y-67477537D01*
X133540607Y-66634160D01*
X133526887Y-66626668D01*
X133525081Y-66626797D01*
X133518574Y-66630979D01*
X132668512Y-67481041D01*
X132661370Y-67494121D01*
X118376236Y-67494121D01*
X118380592Y-67491014D01*
X118388860Y-67480482D01*
X118381984Y-67467537D01*
X117538607Y-66624160D01*
X117524887Y-66616668D01*
X117523081Y-66616797D01*
X117516574Y-66620979D01*
X116666512Y-67471041D01*
X116659370Y-67484121D01*
X100300500Y-67484121D01*
X100300500Y-66226309D01*
X116021601Y-66226309D01*
X116035214Y-66462394D01*
X116036626Y-66472439D01*
X116088615Y-66703135D01*
X116091647Y-66712810D01*
X116180617Y-66931918D01*
X116185194Y-66940978D01*
X116291490Y-67114437D01*
X116301784Y-67123749D01*
X116310421Y-67120026D01*
X117159840Y-66270607D01*
X117166116Y-66259113D01*
X117884668Y-66259113D01*
X117884797Y-66260919D01*
X117888979Y-66267426D01*
X118736066Y-67114513D01*
X118747884Y-67120966D01*
X118759437Y-67112140D01*
X118813186Y-67037341D01*
X118818414Y-67028640D01*
X118923188Y-66816646D01*
X118926925Y-66807206D01*
X118995670Y-66580942D01*
X118997813Y-66571028D01*
X119028913Y-66334801D01*
X119029425Y-66328226D01*
X119031060Y-66261308D01*
X119030870Y-66254701D01*
X119011347Y-66017246D01*
X119009689Y-66007232D01*
X118952081Y-65777882D01*
X118948811Y-65768276D01*
X118854514Y-65551409D01*
X118849725Y-65542476D01*
X118759380Y-65402824D01*
X118748865Y-65393769D01*
X118739451Y-65398102D01*
X117892160Y-66245393D01*
X117884668Y-66259113D01*
X117166116Y-66259113D01*
X117167332Y-66256887D01*
X117167203Y-66255081D01*
X117163021Y-66248574D01*
X116315747Y-65401300D01*
X116304396Y-65395102D01*
X116292307Y-65404573D01*
X116220156Y-65510344D01*
X116215144Y-65519166D01*
X116115581Y-65733658D01*
X116112076Y-65743183D01*
X116048878Y-65971064D01*
X116046979Y-65981020D01*
X116021849Y-66216166D01*
X116021601Y-66226309D01*
X100300500Y-66226309D01*
X100300500Y-65035418D01*
X116662468Y-65035418D01*
X116669105Y-65047552D01*
X117513393Y-65891840D01*
X117527113Y-65899332D01*
X117528919Y-65899203D01*
X117535426Y-65895021D01*
X118383860Y-65046587D01*
X118390767Y-65033937D01*
X118383117Y-65023436D01*
X118362927Y-65007491D01*
X118354478Y-65001877D01*
X118147447Y-64887590D01*
X118138190Y-64883431D01*
X117915283Y-64804494D01*
X117905468Y-64801901D01*
X117672656Y-64760431D01*
X117662562Y-64759477D01*
X117426097Y-64756587D01*
X117415972Y-64757295D01*
X117182222Y-64793065D01*
X117172348Y-64795417D01*
X116947569Y-64868886D01*
X116938220Y-64872816D01*
X116728461Y-64982009D01*
X116719876Y-64987416D01*
X116670786Y-65024273D01*
X116662468Y-65035418D01*
X100300500Y-65035418D01*
X100300500Y-63380121D01*
X116659370Y-63380121D01*
X116664999Y-63388048D01*
X116667083Y-63389508D01*
X116871256Y-63508818D01*
X116880408Y-63513202D01*
X117101321Y-63597560D01*
X117111064Y-63600391D01*
X117342800Y-63647539D01*
X117352870Y-63648739D01*
X117589199Y-63657406D01*
X117599320Y-63656946D01*
X117833893Y-63626896D01*
X117843806Y-63624789D01*
X118070325Y-63556830D01*
X118079752Y-63553136D01*
X118292126Y-63449095D01*
X118300841Y-63443900D01*
X118380592Y-63387014D01*
X118388860Y-63376482D01*
X118381984Y-63363537D01*
X117538607Y-62520160D01*
X117524887Y-62512668D01*
X117523081Y-62512797D01*
X117516574Y-62516979D01*
X116666512Y-63367041D01*
X116659370Y-63380121D01*
X100300500Y-63380121D01*
X100300500Y-62122309D01*
X116021601Y-62122309D01*
X116035214Y-62358394D01*
X116036626Y-62368439D01*
X116088615Y-62599135D01*
X116091647Y-62608810D01*
X116180617Y-62827918D01*
X116185194Y-62836978D01*
X116291490Y-63010437D01*
X116301784Y-63019749D01*
X116310421Y-63016026D01*
X117159840Y-62166607D01*
X117166116Y-62155113D01*
X117884668Y-62155113D01*
X117884797Y-62156919D01*
X117888979Y-62163426D01*
X118736066Y-63010513D01*
X118747884Y-63016966D01*
X118759437Y-63008140D01*
X118813186Y-62933341D01*
X118818414Y-62924640D01*
X118923188Y-62712646D01*
X118926925Y-62703206D01*
X118995670Y-62476942D01*
X118997813Y-62467028D01*
X119028913Y-62230801D01*
X119029425Y-62224226D01*
X119031060Y-62157308D01*
X119030870Y-62150701D01*
X119011347Y-61913246D01*
X119009689Y-61903232D01*
X118952081Y-61673882D01*
X118948811Y-61664276D01*
X118854514Y-61447409D01*
X118849725Y-61438476D01*
X118759380Y-61298824D01*
X118748865Y-61289769D01*
X118739451Y-61294102D01*
X117892160Y-62141393D01*
X117884668Y-62155113D01*
X117166116Y-62155113D01*
X117167332Y-62152887D01*
X117167203Y-62151081D01*
X117163021Y-62144574D01*
X116315747Y-61297300D01*
X116304396Y-61291102D01*
X116292307Y-61300573D01*
X116220156Y-61406344D01*
X116215144Y-61415166D01*
X116115581Y-61629658D01*
X116112076Y-61639183D01*
X116048878Y-61867064D01*
X116046979Y-61877020D01*
X116021849Y-62112166D01*
X116021601Y-62122309D01*
X100300500Y-62122309D01*
X100300500Y-60931418D01*
X116662468Y-60931418D01*
X116669105Y-60943552D01*
X117513393Y-61787840D01*
X117527113Y-61795332D01*
X117528919Y-61795203D01*
X117535426Y-61791021D01*
X118383860Y-60942587D01*
X118390767Y-60929937D01*
X118383117Y-60919436D01*
X118362927Y-60903491D01*
X118354478Y-60897877D01*
X118147447Y-60783590D01*
X118138190Y-60779431D01*
X117915283Y-60700494D01*
X117905468Y-60697901D01*
X117672656Y-60656431D01*
X117662562Y-60655477D01*
X117426097Y-60652587D01*
X117415972Y-60653295D01*
X117182222Y-60689065D01*
X117172348Y-60691417D01*
X116947569Y-60764886D01*
X116938220Y-60768816D01*
X116728461Y-60878009D01*
X116719876Y-60883416D01*
X116670786Y-60920273D01*
X116662468Y-60931418D01*
X100300500Y-60931418D01*
X100300500Y-53518000D01*
X127650532Y-53518000D01*
X127670365Y-53744692D01*
X127729261Y-53964496D01*
X127731548Y-53969400D01*
X127731550Y-53969406D01*
X127764998Y-54041134D01*
X127825432Y-54170734D01*
X127828539Y-54175171D01*
X127828540Y-54175173D01*
X127952847Y-54352704D01*
X127952851Y-54352708D01*
X127955953Y-54357139D01*
X128116861Y-54518047D01*
X128121292Y-54521149D01*
X128121296Y-54521153D01*
X128244864Y-54607675D01*
X128303266Y-54648568D01*
X128308177Y-54650858D01*
X128504594Y-54742450D01*
X128504600Y-54742452D01*
X128509504Y-54744739D01*
X128729308Y-54803635D01*
X128734693Y-54804106D01*
X128734698Y-54804107D01*
X128950605Y-54822996D01*
X128956000Y-54823468D01*
X128961395Y-54822996D01*
X129177302Y-54804107D01*
X129177307Y-54804106D01*
X129182692Y-54803635D01*
X129402496Y-54744739D01*
X129407400Y-54742452D01*
X129407406Y-54742450D01*
X129603823Y-54650858D01*
X129608734Y-54648568D01*
X129667136Y-54607675D01*
X129790704Y-54521153D01*
X129790708Y-54521149D01*
X129795139Y-54518047D01*
X129956047Y-54357139D01*
X129959149Y-54352708D01*
X129959153Y-54352704D01*
X130083460Y-54175173D01*
X130083461Y-54175171D01*
X130086568Y-54170734D01*
X130113618Y-54112724D01*
X130159790Y-54060286D01*
X130226984Y-54041134D01*
X130293865Y-54061350D01*
X130338382Y-54112724D01*
X130365432Y-54170734D01*
X130368539Y-54175171D01*
X130368540Y-54175173D01*
X130492847Y-54352704D01*
X130492851Y-54352708D01*
X130495953Y-54357139D01*
X130656861Y-54518047D01*
X130661292Y-54521149D01*
X130661296Y-54521153D01*
X130784864Y-54607675D01*
X130843266Y-54648568D01*
X130848177Y-54650858D01*
X131044594Y-54742450D01*
X131044600Y-54742452D01*
X131049504Y-54744739D01*
X131269308Y-54803635D01*
X131274693Y-54804106D01*
X131274698Y-54804107D01*
X131490605Y-54822996D01*
X131496000Y-54823468D01*
X131501395Y-54822996D01*
X131717302Y-54804107D01*
X131717307Y-54804106D01*
X131722692Y-54803635D01*
X131942496Y-54744739D01*
X131947400Y-54742452D01*
X131947406Y-54742450D01*
X132143823Y-54650858D01*
X132148734Y-54648568D01*
X132207136Y-54607675D01*
X132330704Y-54521153D01*
X132330708Y-54521149D01*
X132335139Y-54518047D01*
X132496047Y-54357139D01*
X132499149Y-54352708D01*
X132499153Y-54352704D01*
X132623460Y-54175173D01*
X132623461Y-54175171D01*
X132626568Y-54170734D01*
X132653618Y-54112724D01*
X132699790Y-54060286D01*
X132766984Y-54041134D01*
X132833865Y-54061350D01*
X132878382Y-54112724D01*
X132905432Y-54170734D01*
X132908539Y-54175171D01*
X132908540Y-54175173D01*
X133032847Y-54352704D01*
X133032851Y-54352708D01*
X133035953Y-54357139D01*
X133196861Y-54518047D01*
X133201292Y-54521149D01*
X133201296Y-54521153D01*
X133324864Y-54607675D01*
X133383266Y-54648568D01*
X133388177Y-54650858D01*
X133584594Y-54742450D01*
X133584600Y-54742452D01*
X133589504Y-54744739D01*
X133809308Y-54803635D01*
X133814693Y-54804106D01*
X133814698Y-54804107D01*
X134030605Y-54822996D01*
X134036000Y-54823468D01*
X134041395Y-54822996D01*
X134257302Y-54804107D01*
X134257307Y-54804106D01*
X134262692Y-54803635D01*
X134482496Y-54744739D01*
X134483821Y-54744121D01*
X135709370Y-54744121D01*
X135714999Y-54752048D01*
X135717083Y-54753508D01*
X135921256Y-54872818D01*
X135930408Y-54877202D01*
X136151321Y-54961560D01*
X136161064Y-54964391D01*
X136392800Y-55011539D01*
X136402870Y-55012739D01*
X136639199Y-55021406D01*
X136649320Y-55020946D01*
X136883893Y-54990896D01*
X136893806Y-54988789D01*
X137120325Y-54920830D01*
X137129752Y-54917136D01*
X137342126Y-54813095D01*
X137350841Y-54807900D01*
X137430592Y-54751014D01*
X137438860Y-54740482D01*
X137431984Y-54727537D01*
X136588607Y-53884160D01*
X136574887Y-53876668D01*
X136573081Y-53876797D01*
X136566574Y-53880979D01*
X135716512Y-54731041D01*
X135709370Y-54744121D01*
X134483821Y-54744121D01*
X134487400Y-54742452D01*
X134487406Y-54742450D01*
X134683823Y-54650858D01*
X134688734Y-54648568D01*
X134747136Y-54607675D01*
X134870704Y-54521153D01*
X134870708Y-54521149D01*
X134875139Y-54518047D01*
X135036047Y-54357139D01*
X135039149Y-54352708D01*
X135039153Y-54352704D01*
X135084801Y-54287511D01*
X135139378Y-54243886D01*
X135208876Y-54236692D01*
X135271231Y-54268215D01*
X135292103Y-54293844D01*
X135341490Y-54374437D01*
X135351784Y-54383749D01*
X135360421Y-54380026D01*
X137433860Y-52306587D01*
X137440767Y-52293937D01*
X137433117Y-52283436D01*
X137412927Y-52267491D01*
X137404478Y-52261877D01*
X137197447Y-52147590D01*
X137188190Y-52143431D01*
X136965283Y-52064494D01*
X136955468Y-52061901D01*
X136722656Y-52020431D01*
X136712562Y-52019477D01*
X136476097Y-52016587D01*
X136465972Y-52017295D01*
X136232222Y-52053065D01*
X136222348Y-52055417D01*
X135997569Y-52128886D01*
X135988220Y-52132816D01*
X135779757Y-52241335D01*
X135711203Y-52254830D01*
X135646236Y-52229120D01*
X135605482Y-52172367D01*
X135598500Y-52131346D01*
X135598500Y-51360940D01*
X135618185Y-51293901D01*
X135634819Y-51273259D01*
X136518989Y-50389089D01*
X136580312Y-50355604D01*
X136611536Y-50352866D01*
X136627818Y-50353506D01*
X136630792Y-50353623D01*
X136630793Y-50353623D01*
X136636470Y-50353846D01*
X136642090Y-50353031D01*
X136642092Y-50353031D01*
X136840103Y-50324320D01*
X136840104Y-50324320D01*
X136845730Y-50323504D01*
X136881644Y-50311313D01*
X137040565Y-50257367D01*
X137040568Y-50257366D01*
X137045955Y-50255537D01*
X137050916Y-50252759D01*
X137050922Y-50252756D01*
X137157530Y-50193052D01*
X137230442Y-50152219D01*
X137268165Y-50120846D01*
X137388645Y-50020644D01*
X137393012Y-50017012D01*
X137441535Y-49958669D01*
X137524584Y-49858813D01*
X137524585Y-49858811D01*
X137528219Y-49854442D01*
X137627946Y-49676368D01*
X137628756Y-49674922D01*
X137628759Y-49674916D01*
X137631537Y-49669955D01*
X137647232Y-49623721D01*
X137697675Y-49475118D01*
X137699504Y-49469730D01*
X137704941Y-49432232D01*
X137723820Y-49302033D01*
X137752921Y-49238512D01*
X137806225Y-49204346D01*
X137886974Y-49204346D01*
X137940347Y-49238736D01*
X137969296Y-49302327D01*
X137970271Y-49311707D01*
X137974796Y-49380749D01*
X138026845Y-49585690D01*
X138029219Y-49590841D01*
X138029221Y-49590845D01*
X138112989Y-49772552D01*
X138115369Y-49777714D01*
X138237405Y-49950391D01*
X138241476Y-49954357D01*
X138241477Y-49954358D01*
X138250245Y-49962899D01*
X138388865Y-50097937D01*
X138393588Y-50101093D01*
X138393592Y-50101096D01*
X138464663Y-50148584D01*
X138564677Y-50215411D01*
X138758953Y-50298878D01*
X138794277Y-50306871D01*
X138959638Y-50344289D01*
X138959642Y-50344290D01*
X138965186Y-50345544D01*
X139091315Y-50350500D01*
X139170789Y-50353623D01*
X139170791Y-50353623D01*
X139176470Y-50353846D01*
X139182090Y-50353031D01*
X139182092Y-50353031D01*
X139380103Y-50324320D01*
X139380104Y-50324320D01*
X139385730Y-50323504D01*
X139421644Y-50311313D01*
X139580565Y-50257367D01*
X139580568Y-50257366D01*
X139585955Y-50255537D01*
X139590916Y-50252759D01*
X139590922Y-50252756D01*
X139697530Y-50193052D01*
X139770442Y-50152219D01*
X139808165Y-50120846D01*
X139928645Y-50020644D01*
X139933012Y-50017012D01*
X139981535Y-49958669D01*
X140064584Y-49858813D01*
X140064585Y-49858811D01*
X140068219Y-49854442D01*
X140167946Y-49676368D01*
X140168756Y-49674922D01*
X140168759Y-49674916D01*
X140171537Y-49669955D01*
X140187232Y-49623721D01*
X140237675Y-49475118D01*
X140239504Y-49469730D01*
X140244941Y-49432232D01*
X140263820Y-49302033D01*
X140292921Y-49238512D01*
X140346225Y-49204346D01*
X140426974Y-49204346D01*
X140480347Y-49238736D01*
X140509296Y-49302327D01*
X140510271Y-49311707D01*
X140514796Y-49380749D01*
X140566845Y-49585690D01*
X140569219Y-49590841D01*
X140569221Y-49590845D01*
X140652989Y-49772552D01*
X140655369Y-49777714D01*
X140777405Y-49950391D01*
X140781476Y-49954357D01*
X140781477Y-49954358D01*
X140790245Y-49962899D01*
X140928865Y-50097937D01*
X140933588Y-50101093D01*
X140933592Y-50101096D01*
X141004663Y-50148584D01*
X141104677Y-50215411D01*
X141298953Y-50298878D01*
X141334277Y-50306871D01*
X141499638Y-50344289D01*
X141499642Y-50344290D01*
X141505186Y-50345544D01*
X141631315Y-50350500D01*
X141710789Y-50353623D01*
X141710791Y-50353623D01*
X141716470Y-50353846D01*
X141722090Y-50353031D01*
X141722092Y-50353031D01*
X141920103Y-50324320D01*
X141920104Y-50324320D01*
X141925730Y-50323504D01*
X141961644Y-50311313D01*
X142120565Y-50257367D01*
X142120568Y-50257366D01*
X142125955Y-50255537D01*
X142130916Y-50252759D01*
X142130922Y-50252756D01*
X142237530Y-50193052D01*
X142310442Y-50152219D01*
X142348165Y-50120846D01*
X142379667Y-50094646D01*
X144569500Y-50094646D01*
X144572618Y-50120846D01*
X144618061Y-50223153D01*
X144697287Y-50302241D01*
X144707758Y-50306870D01*
X144707759Y-50306871D01*
X144791147Y-50343737D01*
X144791149Y-50343738D01*
X144799673Y-50347506D01*
X144825354Y-50350500D01*
X146614646Y-50350500D01*
X146618300Y-50350065D01*
X146618302Y-50350065D01*
X146623266Y-50349474D01*
X146640846Y-50347382D01*
X146743153Y-50301939D01*
X146822241Y-50222713D01*
X146829195Y-50206984D01*
X146863737Y-50128853D01*
X146863738Y-50128851D01*
X146867506Y-50120327D01*
X146870500Y-50094646D01*
X146870500Y-49380300D01*
X146890185Y-49313261D01*
X146942989Y-49267506D01*
X147012147Y-49257562D01*
X147075703Y-49286587D01*
X147113477Y-49345365D01*
X147118234Y-49372190D01*
X147118423Y-49375072D01*
X147118425Y-49375082D01*
X147118796Y-49380749D01*
X147170845Y-49585690D01*
X147173219Y-49590841D01*
X147173221Y-49590845D01*
X147256989Y-49772552D01*
X147259369Y-49777714D01*
X147381405Y-49950391D01*
X147385476Y-49954357D01*
X147385477Y-49954358D01*
X147394245Y-49962899D01*
X147532865Y-50097937D01*
X147537588Y-50101093D01*
X147537592Y-50101096D01*
X147608663Y-50148584D01*
X147708677Y-50215411D01*
X147902953Y-50298878D01*
X147938277Y-50306871D01*
X148103638Y-50344289D01*
X148103642Y-50344290D01*
X148109186Y-50345544D01*
X148235315Y-50350500D01*
X148314789Y-50353623D01*
X148314791Y-50353623D01*
X148320470Y-50353846D01*
X148326090Y-50353031D01*
X148326092Y-50353031D01*
X148524103Y-50324320D01*
X148524104Y-50324320D01*
X148529730Y-50323504D01*
X148565644Y-50311313D01*
X148724565Y-50257367D01*
X148724568Y-50257366D01*
X148729955Y-50255537D01*
X148734916Y-50252759D01*
X148734922Y-50252756D01*
X148841530Y-50193052D01*
X148914442Y-50152219D01*
X148952165Y-50120846D01*
X149072645Y-50020644D01*
X149077012Y-50017012D01*
X149125535Y-49958669D01*
X149208584Y-49858813D01*
X149208585Y-49858811D01*
X149212219Y-49854442D01*
X149311946Y-49676368D01*
X149312756Y-49674922D01*
X149312759Y-49674916D01*
X149315537Y-49669955D01*
X149331232Y-49623721D01*
X149381675Y-49475118D01*
X149383504Y-49469730D01*
X149388941Y-49432232D01*
X149407820Y-49302033D01*
X149436921Y-49238512D01*
X149490667Y-49204063D01*
X149438057Y-49172081D01*
X149407453Y-49109271D01*
X149406232Y-49099909D01*
X149396601Y-48995100D01*
X149396081Y-48989440D01*
X149338686Y-48785931D01*
X149245165Y-48596290D01*
X149118651Y-48426867D01*
X149114481Y-48423012D01*
X149114478Y-48423009D01*
X149044880Y-48358674D01*
X148963381Y-48283337D01*
X148957574Y-48279673D01*
X148789363Y-48173539D01*
X148789361Y-48173538D01*
X148784554Y-48170505D01*
X148588160Y-48092152D01*
X148582579Y-48091042D01*
X148582576Y-48091041D01*
X148484468Y-48071527D01*
X148380775Y-48050901D01*
X148375088Y-48050827D01*
X148375083Y-48050826D01*
X148175034Y-48048207D01*
X148175029Y-48048207D01*
X148169346Y-48048133D01*
X148163742Y-48049096D01*
X148163741Y-48049096D01*
X147966550Y-48082979D01*
X147966547Y-48082980D01*
X147960953Y-48083941D01*
X147762575Y-48157127D01*
X147757697Y-48160029D01*
X147757695Y-48160030D01*
X147585740Y-48262332D01*
X147585737Y-48262334D01*
X147580856Y-48265238D01*
X147421881Y-48404655D01*
X147418362Y-48409119D01*
X147418359Y-48409122D01*
X147392968Y-48441331D01*
X147290976Y-48570708D01*
X147192523Y-48757836D01*
X147190837Y-48763267D01*
X147190835Y-48763271D01*
X147152516Y-48886680D01*
X147129820Y-48959773D01*
X147129152Y-48965418D01*
X147129151Y-48965422D01*
X147117640Y-49062681D01*
X147090213Y-49126942D01*
X147032397Y-49166173D01*
X146962549Y-49167919D01*
X146902845Y-49131625D01*
X146872241Y-49068814D01*
X146870500Y-49048106D01*
X146870500Y-48305354D01*
X146867382Y-48279154D01*
X146821939Y-48176847D01*
X146742713Y-48097759D01*
X146732242Y-48093130D01*
X146732241Y-48093129D01*
X146648853Y-48056263D01*
X146648851Y-48056262D01*
X146640327Y-48052494D01*
X146614646Y-48049500D01*
X144825354Y-48049500D01*
X144821700Y-48049935D01*
X144821698Y-48049935D01*
X144816734Y-48050526D01*
X144799154Y-48052618D01*
X144696847Y-48098061D01*
X144617759Y-48177287D01*
X144613130Y-48187758D01*
X144613129Y-48187759D01*
X144578876Y-48265238D01*
X144572494Y-48279673D01*
X144569500Y-48305354D01*
X144569500Y-50094646D01*
X142379667Y-50094646D01*
X142468645Y-50020644D01*
X142473012Y-50017012D01*
X142521535Y-49958669D01*
X142604584Y-49858813D01*
X142604585Y-49858811D01*
X142608219Y-49854442D01*
X142707946Y-49676368D01*
X142708756Y-49674922D01*
X142708759Y-49674916D01*
X142711537Y-49669955D01*
X142727232Y-49623721D01*
X142777675Y-49475118D01*
X142779504Y-49469730D01*
X142809846Y-49260470D01*
X142811429Y-49200000D01*
X142792081Y-48989440D01*
X142734686Y-48785931D01*
X142641165Y-48596290D01*
X142514651Y-48426867D01*
X142510481Y-48423012D01*
X142510478Y-48423009D01*
X142440880Y-48358674D01*
X142359381Y-48283337D01*
X142353574Y-48279673D01*
X142185363Y-48173539D01*
X142185361Y-48173538D01*
X142180554Y-48170505D01*
X141984160Y-48092152D01*
X141978579Y-48091042D01*
X141978576Y-48091041D01*
X141880468Y-48071527D01*
X141776775Y-48050901D01*
X141771088Y-48050827D01*
X141771083Y-48050826D01*
X141571034Y-48048207D01*
X141571029Y-48048207D01*
X141565346Y-48048133D01*
X141559742Y-48049096D01*
X141559741Y-48049096D01*
X141362550Y-48082979D01*
X141362547Y-48082980D01*
X141356953Y-48083941D01*
X141158575Y-48157127D01*
X141153697Y-48160029D01*
X141153695Y-48160030D01*
X140981740Y-48262332D01*
X140981737Y-48262334D01*
X140976856Y-48265238D01*
X140817881Y-48404655D01*
X140814362Y-48409119D01*
X140814359Y-48409122D01*
X140788968Y-48441331D01*
X140686976Y-48570708D01*
X140588523Y-48757836D01*
X140586837Y-48763267D01*
X140586835Y-48763271D01*
X140548516Y-48886680D01*
X140525820Y-48959773D01*
X140508851Y-49103140D01*
X140481425Y-49167398D01*
X140426974Y-49204346D01*
X140346225Y-49204346D01*
X140346667Y-49204063D01*
X140294057Y-49172081D01*
X140263453Y-49109271D01*
X140262232Y-49099909D01*
X140252601Y-48995100D01*
X140252081Y-48989440D01*
X140194686Y-48785931D01*
X140101165Y-48596290D01*
X139974651Y-48426867D01*
X139970481Y-48423012D01*
X139970478Y-48423009D01*
X139900880Y-48358674D01*
X139819381Y-48283337D01*
X139813574Y-48279673D01*
X139645363Y-48173539D01*
X139645361Y-48173538D01*
X139640554Y-48170505D01*
X139444160Y-48092152D01*
X139438579Y-48091042D01*
X139438576Y-48091041D01*
X139340468Y-48071527D01*
X139236775Y-48050901D01*
X139231088Y-48050827D01*
X139231083Y-48050826D01*
X139031034Y-48048207D01*
X139031029Y-48048207D01*
X139025346Y-48048133D01*
X139019742Y-48049096D01*
X139019741Y-48049096D01*
X138822550Y-48082979D01*
X138822547Y-48082980D01*
X138816953Y-48083941D01*
X138618575Y-48157127D01*
X138613697Y-48160029D01*
X138613695Y-48160030D01*
X138441740Y-48262332D01*
X138441737Y-48262334D01*
X138436856Y-48265238D01*
X138277881Y-48404655D01*
X138274362Y-48409119D01*
X138274359Y-48409122D01*
X138248968Y-48441331D01*
X138146976Y-48570708D01*
X138048523Y-48757836D01*
X138046837Y-48763267D01*
X138046835Y-48763271D01*
X138008516Y-48886680D01*
X137985820Y-48959773D01*
X137968851Y-49103140D01*
X137941425Y-49167398D01*
X137886974Y-49204346D01*
X137806225Y-49204346D01*
X137806667Y-49204063D01*
X137754057Y-49172081D01*
X137723453Y-49109271D01*
X137722232Y-49099909D01*
X137712601Y-48995100D01*
X137712081Y-48989440D01*
X137654686Y-48785931D01*
X137561165Y-48596290D01*
X137434651Y-48426867D01*
X137430481Y-48423012D01*
X137430478Y-48423009D01*
X137360880Y-48358674D01*
X137279381Y-48283337D01*
X137273574Y-48279673D01*
X137105363Y-48173539D01*
X137105361Y-48173538D01*
X137100554Y-48170505D01*
X136904160Y-48092152D01*
X136898579Y-48091042D01*
X136898576Y-48091041D01*
X136800468Y-48071527D01*
X136696775Y-48050901D01*
X136691088Y-48050827D01*
X136691083Y-48050826D01*
X136491034Y-48048207D01*
X136491029Y-48048207D01*
X136485346Y-48048133D01*
X136479742Y-48049096D01*
X136479741Y-48049096D01*
X136282550Y-48082979D01*
X136282547Y-48082980D01*
X136276953Y-48083941D01*
X136078575Y-48157127D01*
X136073697Y-48160029D01*
X136073695Y-48160030D01*
X135901740Y-48262332D01*
X135901737Y-48262334D01*
X135896856Y-48265238D01*
X135737881Y-48404655D01*
X135734362Y-48409119D01*
X135734359Y-48409122D01*
X135708968Y-48441331D01*
X135606976Y-48570708D01*
X135508523Y-48757836D01*
X135506837Y-48763267D01*
X135506835Y-48763271D01*
X135468516Y-48886680D01*
X135445820Y-48959773D01*
X135428851Y-49103140D01*
X135401425Y-49167398D01*
X135343609Y-49206629D01*
X135273761Y-49208375D01*
X135214057Y-49172081D01*
X135183453Y-49109271D01*
X135182232Y-49099909D01*
X135172601Y-48995100D01*
X135172081Y-48989440D01*
X135114686Y-48785931D01*
X135021165Y-48596290D01*
X134894651Y-48426867D01*
X134890481Y-48423012D01*
X134890478Y-48423009D01*
X134820880Y-48358674D01*
X134739381Y-48283337D01*
X134733574Y-48279673D01*
X134565363Y-48173539D01*
X134565361Y-48173538D01*
X134560554Y-48170505D01*
X134364160Y-48092152D01*
X134358579Y-48091042D01*
X134358576Y-48091041D01*
X134260468Y-48071527D01*
X134156775Y-48050901D01*
X134151088Y-48050827D01*
X134151083Y-48050826D01*
X133951034Y-48048207D01*
X133951029Y-48048207D01*
X133945346Y-48048133D01*
X133939742Y-48049096D01*
X133939741Y-48049096D01*
X133742550Y-48082979D01*
X133742547Y-48082980D01*
X133736953Y-48083941D01*
X133538575Y-48157127D01*
X133533697Y-48160029D01*
X133533695Y-48160030D01*
X133361740Y-48262332D01*
X133361737Y-48262334D01*
X133356856Y-48265238D01*
X133197881Y-48404655D01*
X133194362Y-48409119D01*
X133194359Y-48409122D01*
X133168968Y-48441331D01*
X133066976Y-48570708D01*
X132968523Y-48757836D01*
X132966837Y-48763267D01*
X132966835Y-48763271D01*
X132928516Y-48886680D01*
X132905820Y-48959773D01*
X132888851Y-49103140D01*
X132861425Y-49167398D01*
X132803609Y-49206629D01*
X132733761Y-49208375D01*
X132674057Y-49172081D01*
X132643453Y-49109271D01*
X132642232Y-49099909D01*
X132632601Y-48995100D01*
X132632081Y-48989440D01*
X132574686Y-48785931D01*
X132481165Y-48596290D01*
X132354651Y-48426867D01*
X132350481Y-48423012D01*
X132350478Y-48423009D01*
X132280880Y-48358674D01*
X132199381Y-48283337D01*
X132193574Y-48279673D01*
X132025363Y-48173539D01*
X132025361Y-48173538D01*
X132020554Y-48170505D01*
X131824160Y-48092152D01*
X131818579Y-48091042D01*
X131818576Y-48091041D01*
X131720468Y-48071527D01*
X131616775Y-48050901D01*
X131611088Y-48050827D01*
X131611083Y-48050826D01*
X131411034Y-48048207D01*
X131411029Y-48048207D01*
X131405346Y-48048133D01*
X131399742Y-48049096D01*
X131399741Y-48049096D01*
X131202550Y-48082979D01*
X131202547Y-48082980D01*
X131196953Y-48083941D01*
X130998575Y-48157127D01*
X130993697Y-48160029D01*
X130993695Y-48160030D01*
X130821740Y-48262332D01*
X130821737Y-48262334D01*
X130816856Y-48265238D01*
X130657881Y-48404655D01*
X130654362Y-48409119D01*
X130654359Y-48409122D01*
X130628968Y-48441331D01*
X130526976Y-48570708D01*
X130428523Y-48757836D01*
X130426837Y-48763267D01*
X130426835Y-48763271D01*
X130388516Y-48886680D01*
X130365820Y-48959773D01*
X130348851Y-49103140D01*
X130321425Y-49167398D01*
X130266974Y-49204346D01*
X130320347Y-49238736D01*
X130349296Y-49302327D01*
X130350271Y-49311707D01*
X130354796Y-49380749D01*
X130406845Y-49585690D01*
X130409219Y-49590841D01*
X130409221Y-49590845D01*
X130492989Y-49772552D01*
X130495369Y-49777714D01*
X130617405Y-49950391D01*
X130621476Y-49954357D01*
X130621477Y-49954358D01*
X130630245Y-49962899D01*
X130768865Y-50097937D01*
X130773588Y-50101093D01*
X130773592Y-50101096D01*
X130844663Y-50148584D01*
X130944677Y-50215411D01*
X131138953Y-50298878D01*
X131174277Y-50306871D01*
X131339638Y-50344289D01*
X131339642Y-50344290D01*
X131345186Y-50345544D01*
X131471315Y-50350500D01*
X131550789Y-50353623D01*
X131550791Y-50353623D01*
X131556470Y-50353846D01*
X131562090Y-50353031D01*
X131562092Y-50353031D01*
X131760103Y-50324320D01*
X131760104Y-50324320D01*
X131765730Y-50323504D01*
X131801644Y-50311313D01*
X131871452Y-50308405D01*
X131931752Y-50343700D01*
X131963397Y-50405992D01*
X131965500Y-50428733D01*
X131965500Y-50455745D01*
X131965499Y-50456178D01*
X131965251Y-50527333D01*
X131965147Y-50557000D01*
X131965412Y-50558186D01*
X131965500Y-50559807D01*
X131965500Y-51865060D01*
X131945815Y-51932099D01*
X131929181Y-51952741D01*
X131696327Y-52185595D01*
X131635004Y-52219080D01*
X131597841Y-52221442D01*
X131496000Y-52212532D01*
X131490605Y-52213004D01*
X131274698Y-52231893D01*
X131274693Y-52231894D01*
X131269308Y-52232365D01*
X131049504Y-52291261D01*
X131044600Y-52293548D01*
X131044594Y-52293550D01*
X130864239Y-52377652D01*
X130843266Y-52387432D01*
X130838829Y-52390539D01*
X130838827Y-52390540D01*
X130661296Y-52514847D01*
X130661292Y-52514851D01*
X130656861Y-52517953D01*
X130495953Y-52678861D01*
X130492851Y-52683292D01*
X130492847Y-52683296D01*
X130406428Y-52806717D01*
X130365432Y-52865266D01*
X130363142Y-52870177D01*
X130338382Y-52923275D01*
X130292210Y-52975714D01*
X130225016Y-52994866D01*
X130158135Y-52974650D01*
X130113618Y-52923275D01*
X130088858Y-52870177D01*
X130086568Y-52865266D01*
X130045572Y-52806717D01*
X129959153Y-52683296D01*
X129959149Y-52683292D01*
X129956047Y-52678861D01*
X129795139Y-52517953D01*
X129790708Y-52514851D01*
X129790704Y-52514847D01*
X129613173Y-52390540D01*
X129613171Y-52390539D01*
X129608734Y-52387432D01*
X129587761Y-52377652D01*
X129407406Y-52293550D01*
X129407400Y-52293548D01*
X129402496Y-52291261D01*
X129182692Y-52232365D01*
X129177307Y-52231894D01*
X129177302Y-52231893D01*
X128961395Y-52213004D01*
X128956000Y-52212532D01*
X128950605Y-52213004D01*
X128734698Y-52231893D01*
X128734693Y-52231894D01*
X128729308Y-52232365D01*
X128509504Y-52291261D01*
X128504600Y-52293548D01*
X128504594Y-52293550D01*
X128324239Y-52377652D01*
X128303266Y-52387432D01*
X128298829Y-52390539D01*
X128298827Y-52390540D01*
X128121296Y-52514847D01*
X128121292Y-52514851D01*
X128116861Y-52517953D01*
X127955953Y-52678861D01*
X127952851Y-52683292D01*
X127952847Y-52683296D01*
X127866428Y-52806717D01*
X127825432Y-52865266D01*
X127823142Y-52870177D01*
X127731550Y-53066594D01*
X127731548Y-53066600D01*
X127729261Y-53071504D01*
X127670365Y-53291308D01*
X127669894Y-53296693D01*
X127669893Y-53296698D01*
X127664481Y-53358559D01*
X127650532Y-53518000D01*
X100300500Y-53518000D01*
X100300500Y-49243233D01*
X113334906Y-49243233D01*
X113335333Y-49247708D01*
X113335333Y-49247709D01*
X113352939Y-49432232D01*
X113361102Y-49517792D01*
X113426657Y-49785694D01*
X113428340Y-49789850D01*
X113428342Y-49789855D01*
X113524181Y-50026468D01*
X113530199Y-50041326D01*
X113669558Y-50279335D01*
X113841816Y-50494732D01*
X114043364Y-50683008D01*
X114129579Y-50742817D01*
X114266281Y-50837651D01*
X114266285Y-50837653D01*
X114269979Y-50840216D01*
X114274004Y-50842218D01*
X114274005Y-50842219D01*
X114512887Y-50961062D01*
X114512892Y-50961064D01*
X114516914Y-50963065D01*
X114778998Y-51048980D01*
X114851169Y-51061511D01*
X115047004Y-51095514D01*
X115047009Y-51095515D01*
X115050738Y-51096162D01*
X115088373Y-51098036D01*
X115136340Y-51100424D01*
X115136359Y-51100424D01*
X115137876Y-51100500D01*
X115310070Y-51100500D01*
X115515083Y-51085625D01*
X115519464Y-51084658D01*
X115519469Y-51084657D01*
X115631093Y-51060012D01*
X115784403Y-51026164D01*
X115788594Y-51024576D01*
X115788598Y-51024575D01*
X115956238Y-50961062D01*
X116042319Y-50928449D01*
X116283428Y-50794525D01*
X116451719Y-50666089D01*
X116499112Y-50629920D01*
X116499116Y-50629916D01*
X116502678Y-50627198D01*
X116695477Y-50429974D01*
X116704017Y-50418242D01*
X116824470Y-50252756D01*
X116857787Y-50206984D01*
X116859872Y-50203021D01*
X116859877Y-50203013D01*
X116916891Y-50094646D01*
X117645500Y-50094646D01*
X117648618Y-50120846D01*
X117694061Y-50223153D01*
X117773287Y-50302241D01*
X117783758Y-50306870D01*
X117783759Y-50306871D01*
X117867147Y-50343737D01*
X117867149Y-50343738D01*
X117875673Y-50347506D01*
X117901354Y-50350500D01*
X119690646Y-50350500D01*
X119694300Y-50350065D01*
X119694302Y-50350065D01*
X119699266Y-50349474D01*
X119716846Y-50347382D01*
X119819153Y-50301939D01*
X119898241Y-50222713D01*
X119905195Y-50206984D01*
X119939737Y-50128853D01*
X119939738Y-50128851D01*
X119943506Y-50120327D01*
X119946500Y-50094646D01*
X119946500Y-49380300D01*
X119966185Y-49313261D01*
X120018989Y-49267506D01*
X120088147Y-49257562D01*
X120151703Y-49286587D01*
X120189477Y-49345365D01*
X120194234Y-49372190D01*
X120194423Y-49375072D01*
X120194425Y-49375082D01*
X120194796Y-49380749D01*
X120246845Y-49585690D01*
X120249219Y-49590841D01*
X120249221Y-49590845D01*
X120332989Y-49772552D01*
X120335369Y-49777714D01*
X120457405Y-49950391D01*
X120461476Y-49954357D01*
X120461477Y-49954358D01*
X120470245Y-49962899D01*
X120608865Y-50097937D01*
X120613588Y-50101093D01*
X120613592Y-50101096D01*
X120684663Y-50148584D01*
X120784677Y-50215411D01*
X120978953Y-50298878D01*
X121014277Y-50306871D01*
X121179638Y-50344289D01*
X121179642Y-50344290D01*
X121185186Y-50345544D01*
X121311315Y-50350500D01*
X121390789Y-50353623D01*
X121390791Y-50353623D01*
X121396470Y-50353846D01*
X121402090Y-50353031D01*
X121402092Y-50353031D01*
X121600103Y-50324320D01*
X121600104Y-50324320D01*
X121605730Y-50323504D01*
X121641644Y-50311313D01*
X121800565Y-50257367D01*
X121800568Y-50257366D01*
X121805955Y-50255537D01*
X121810916Y-50252759D01*
X121810922Y-50252756D01*
X121917530Y-50193052D01*
X121990442Y-50152219D01*
X122028165Y-50120846D01*
X122148645Y-50020644D01*
X122153012Y-50017012D01*
X122201535Y-49958669D01*
X122284584Y-49858813D01*
X122284585Y-49858811D01*
X122288219Y-49854442D01*
X122387946Y-49676368D01*
X122388756Y-49674922D01*
X122388759Y-49674916D01*
X122391537Y-49669955D01*
X122407232Y-49623721D01*
X122457675Y-49475118D01*
X122459504Y-49469730D01*
X122464941Y-49432232D01*
X122483820Y-49302033D01*
X122512921Y-49238512D01*
X122566225Y-49204346D01*
X122646974Y-49204346D01*
X122700347Y-49238736D01*
X122729296Y-49302327D01*
X122730271Y-49311707D01*
X122734796Y-49380749D01*
X122786845Y-49585690D01*
X122789219Y-49590841D01*
X122789221Y-49590845D01*
X122872989Y-49772552D01*
X122875369Y-49777714D01*
X122997405Y-49950391D01*
X123001476Y-49954357D01*
X123001477Y-49954358D01*
X123010245Y-49962899D01*
X123148865Y-50097937D01*
X123153588Y-50101093D01*
X123153592Y-50101096D01*
X123224663Y-50148584D01*
X123324677Y-50215411D01*
X123518953Y-50298878D01*
X123554277Y-50306871D01*
X123719638Y-50344289D01*
X123719642Y-50344290D01*
X123725186Y-50345544D01*
X123851315Y-50350500D01*
X123930789Y-50353623D01*
X123930791Y-50353623D01*
X123936470Y-50353846D01*
X123942090Y-50353031D01*
X123942092Y-50353031D01*
X124140103Y-50324320D01*
X124140104Y-50324320D01*
X124145730Y-50323504D01*
X124181644Y-50311313D01*
X124340565Y-50257367D01*
X124340568Y-50257366D01*
X124345955Y-50255537D01*
X124350916Y-50252759D01*
X124350922Y-50252756D01*
X124457530Y-50193052D01*
X124530442Y-50152219D01*
X124568165Y-50120846D01*
X124688645Y-50020644D01*
X124693012Y-50017012D01*
X124741535Y-49958669D01*
X124824584Y-49858813D01*
X124824585Y-49858811D01*
X124828219Y-49854442D01*
X124930059Y-49672594D01*
X124979990Y-49623721D01*
X125048418Y-49609601D01*
X125113617Y-49634717D01*
X125150630Y-49680778D01*
X125240110Y-49872667D01*
X125245508Y-49882017D01*
X125374784Y-50066643D01*
X125381719Y-50074907D01*
X125541091Y-50234279D01*
X125549357Y-50241215D01*
X125733992Y-50370498D01*
X125743324Y-50375886D01*
X125947603Y-50471143D01*
X125957736Y-50474832D01*
X126148779Y-50526022D01*
X126162653Y-50525691D01*
X126166000Y-50517875D01*
X126166000Y-50512806D01*
X126666000Y-50512806D01*
X126669910Y-50526123D01*
X126678326Y-50527333D01*
X126874264Y-50474832D01*
X126884397Y-50471143D01*
X127088676Y-50375886D01*
X127098008Y-50370498D01*
X127282643Y-50241215D01*
X127290909Y-50234279D01*
X127450281Y-50074907D01*
X127457216Y-50066643D01*
X127586492Y-49882017D01*
X127591890Y-49872667D01*
X127683656Y-49675876D01*
X127729829Y-49623437D01*
X127797022Y-49604285D01*
X127863903Y-49624501D01*
X127908648Y-49676368D01*
X127955369Y-49777714D01*
X128077405Y-49950391D01*
X128081476Y-49954357D01*
X128081477Y-49954358D01*
X128090245Y-49962899D01*
X128228865Y-50097937D01*
X128233588Y-50101093D01*
X128233592Y-50101096D01*
X128304663Y-50148584D01*
X128404677Y-50215411D01*
X128598953Y-50298878D01*
X128634277Y-50306871D01*
X128799638Y-50344289D01*
X128799642Y-50344290D01*
X128805186Y-50345544D01*
X128931315Y-50350500D01*
X129010789Y-50353623D01*
X129010791Y-50353623D01*
X129016470Y-50353846D01*
X129022090Y-50353031D01*
X129022092Y-50353031D01*
X129220103Y-50324320D01*
X129220104Y-50324320D01*
X129225730Y-50323504D01*
X129261644Y-50311313D01*
X129420565Y-50257367D01*
X129420568Y-50257366D01*
X129425955Y-50255537D01*
X129430916Y-50252759D01*
X129430922Y-50252756D01*
X129537530Y-50193052D01*
X129610442Y-50152219D01*
X129648165Y-50120846D01*
X129768645Y-50020644D01*
X129773012Y-50017012D01*
X129821535Y-49958669D01*
X129904584Y-49858813D01*
X129904585Y-49858811D01*
X129908219Y-49854442D01*
X130007946Y-49676368D01*
X130008756Y-49674922D01*
X130008759Y-49674916D01*
X130011537Y-49669955D01*
X130027232Y-49623721D01*
X130077675Y-49475118D01*
X130079504Y-49469730D01*
X130084941Y-49432232D01*
X130103820Y-49302033D01*
X130132921Y-49238512D01*
X130186667Y-49204063D01*
X130134057Y-49172081D01*
X130103453Y-49109271D01*
X130102232Y-49099909D01*
X130092601Y-48995100D01*
X130092081Y-48989440D01*
X130034686Y-48785931D01*
X129941165Y-48596290D01*
X129814651Y-48426867D01*
X129810481Y-48423012D01*
X129810478Y-48423009D01*
X129740880Y-48358674D01*
X129659381Y-48283337D01*
X129653574Y-48279673D01*
X129485363Y-48173539D01*
X129485361Y-48173538D01*
X129480554Y-48170505D01*
X129284160Y-48092152D01*
X129278579Y-48091042D01*
X129278576Y-48091041D01*
X129180468Y-48071527D01*
X129076775Y-48050901D01*
X129071088Y-48050827D01*
X129071083Y-48050826D01*
X128871034Y-48048207D01*
X128871029Y-48048207D01*
X128865346Y-48048133D01*
X128859742Y-48049096D01*
X128859741Y-48049096D01*
X128662550Y-48082979D01*
X128662547Y-48082980D01*
X128656953Y-48083941D01*
X128458575Y-48157127D01*
X128453697Y-48160029D01*
X128453695Y-48160030D01*
X128281740Y-48262332D01*
X128281737Y-48262334D01*
X128276856Y-48265238D01*
X128117881Y-48404655D01*
X128114362Y-48409119D01*
X128114359Y-48409122D01*
X128088968Y-48441331D01*
X127986976Y-48570708D01*
X127932214Y-48674793D01*
X127904685Y-48727117D01*
X127856050Y-48777281D01*
X127788015Y-48793187D01*
X127722181Y-48769786D01*
X127682565Y-48721786D01*
X127591890Y-48527333D01*
X127586492Y-48517983D01*
X127457216Y-48333357D01*
X127450281Y-48325093D01*
X127290909Y-48165721D01*
X127282643Y-48158785D01*
X127098008Y-48029502D01*
X127088676Y-48024114D01*
X126884397Y-47928857D01*
X126874264Y-47925168D01*
X126683221Y-47873978D01*
X126669347Y-47874309D01*
X126666000Y-47882125D01*
X126666000Y-50512806D01*
X126166000Y-50512806D01*
X126166000Y-47887194D01*
X126162090Y-47873877D01*
X126153674Y-47872667D01*
X125957736Y-47925168D01*
X125947603Y-47928857D01*
X125743333Y-48024110D01*
X125733983Y-48029508D01*
X125549357Y-48158784D01*
X125541093Y-48165719D01*
X125381719Y-48325093D01*
X125374784Y-48333357D01*
X125245508Y-48517983D01*
X125240110Y-48527333D01*
X125148664Y-48723438D01*
X125102491Y-48775877D01*
X125035298Y-48795029D01*
X124968417Y-48774813D01*
X124925071Y-48725878D01*
X124861165Y-48596290D01*
X124734651Y-48426867D01*
X124730481Y-48423012D01*
X124730478Y-48423009D01*
X124660880Y-48358674D01*
X124579381Y-48283337D01*
X124573574Y-48279673D01*
X124405363Y-48173539D01*
X124405361Y-48173538D01*
X124400554Y-48170505D01*
X124204160Y-48092152D01*
X124198579Y-48091042D01*
X124198576Y-48091041D01*
X124100468Y-48071527D01*
X123996775Y-48050901D01*
X123991088Y-48050827D01*
X123991083Y-48050826D01*
X123791034Y-48048207D01*
X123791029Y-48048207D01*
X123785346Y-48048133D01*
X123779742Y-48049096D01*
X123779741Y-48049096D01*
X123582550Y-48082979D01*
X123582547Y-48082980D01*
X123576953Y-48083941D01*
X123378575Y-48157127D01*
X123373697Y-48160029D01*
X123373695Y-48160030D01*
X123201740Y-48262332D01*
X123201737Y-48262334D01*
X123196856Y-48265238D01*
X123037881Y-48404655D01*
X123034362Y-48409119D01*
X123034359Y-48409122D01*
X123008968Y-48441331D01*
X122906976Y-48570708D01*
X122808523Y-48757836D01*
X122806837Y-48763267D01*
X122806835Y-48763271D01*
X122768516Y-48886680D01*
X122745820Y-48959773D01*
X122728851Y-49103140D01*
X122701425Y-49167398D01*
X122646974Y-49204346D01*
X122566225Y-49204346D01*
X122566667Y-49204063D01*
X122514057Y-49172081D01*
X122483453Y-49109271D01*
X122482232Y-49099909D01*
X122472601Y-48995100D01*
X122472081Y-48989440D01*
X122414686Y-48785931D01*
X122321165Y-48596290D01*
X122194651Y-48426867D01*
X122190481Y-48423012D01*
X122190478Y-48423009D01*
X122120880Y-48358674D01*
X122039381Y-48283337D01*
X122033574Y-48279673D01*
X121865363Y-48173539D01*
X121865361Y-48173538D01*
X121860554Y-48170505D01*
X121664160Y-48092152D01*
X121658579Y-48091042D01*
X121658576Y-48091041D01*
X121560468Y-48071527D01*
X121456775Y-48050901D01*
X121451088Y-48050827D01*
X121451083Y-48050826D01*
X121251034Y-48048207D01*
X121251029Y-48048207D01*
X121245346Y-48048133D01*
X121239742Y-48049096D01*
X121239741Y-48049096D01*
X121042550Y-48082979D01*
X121042547Y-48082980D01*
X121036953Y-48083941D01*
X120838575Y-48157127D01*
X120833697Y-48160029D01*
X120833695Y-48160030D01*
X120661740Y-48262332D01*
X120661737Y-48262334D01*
X120656856Y-48265238D01*
X120497881Y-48404655D01*
X120494362Y-48409119D01*
X120494359Y-48409122D01*
X120468968Y-48441331D01*
X120366976Y-48570708D01*
X120268523Y-48757836D01*
X120266837Y-48763267D01*
X120266835Y-48763271D01*
X120228516Y-48886680D01*
X120205820Y-48959773D01*
X120205152Y-48965418D01*
X120205151Y-48965422D01*
X120193640Y-49062681D01*
X120166213Y-49126942D01*
X120108397Y-49166173D01*
X120038549Y-49167919D01*
X119978845Y-49131625D01*
X119948241Y-49068814D01*
X119946500Y-49048106D01*
X119946500Y-48305354D01*
X119943382Y-48279154D01*
X119897939Y-48176847D01*
X119818713Y-48097759D01*
X119808242Y-48093130D01*
X119808241Y-48093129D01*
X119724853Y-48056263D01*
X119724851Y-48056262D01*
X119716327Y-48052494D01*
X119690646Y-48049500D01*
X117901354Y-48049500D01*
X117897700Y-48049935D01*
X117897698Y-48049935D01*
X117892734Y-48050526D01*
X117875154Y-48052618D01*
X117772847Y-48098061D01*
X117693759Y-48177287D01*
X117689130Y-48187758D01*
X117689129Y-48187759D01*
X117654876Y-48265238D01*
X117648494Y-48279673D01*
X117645500Y-48305354D01*
X117645500Y-50094646D01*
X116916891Y-50094646D01*
X116960033Y-50012645D01*
X116986206Y-49962899D01*
X117078045Y-49702832D01*
X117084525Y-49669955D01*
X117130511Y-49436643D01*
X117130512Y-49436638D01*
X117131380Y-49432232D01*
X117140439Y-49250265D01*
X117144871Y-49161252D01*
X117144871Y-49161248D01*
X117145094Y-49156767D01*
X117144667Y-49152291D01*
X117119325Y-48886680D01*
X117119324Y-48886676D01*
X117118898Y-48882208D01*
X117097115Y-48793187D01*
X117054411Y-48618669D01*
X117054409Y-48618664D01*
X117053343Y-48614306D01*
X117033873Y-48566236D01*
X116951486Y-48362833D01*
X116951484Y-48362828D01*
X116949801Y-48358674D01*
X116810442Y-48120665D01*
X116638184Y-47905268D01*
X116436636Y-47716992D01*
X116279807Y-47608196D01*
X116213719Y-47562349D01*
X116213715Y-47562347D01*
X116210021Y-47559784D01*
X116007718Y-47459139D01*
X115967113Y-47438938D01*
X115967108Y-47438936D01*
X115963086Y-47436935D01*
X115701002Y-47351020D01*
X115620051Y-47336965D01*
X115432996Y-47304486D01*
X115432991Y-47304485D01*
X115429262Y-47303838D01*
X115391627Y-47301964D01*
X115343660Y-47299576D01*
X115343641Y-47299576D01*
X115342124Y-47299500D01*
X115169930Y-47299500D01*
X114964917Y-47314375D01*
X114960536Y-47315342D01*
X114960531Y-47315343D01*
X114848907Y-47339988D01*
X114695597Y-47373836D01*
X114691406Y-47375424D01*
X114691402Y-47375425D01*
X114644924Y-47393034D01*
X114437681Y-47471551D01*
X114196572Y-47605475D01*
X114193007Y-47608196D01*
X113980888Y-47770080D01*
X113980884Y-47770084D01*
X113977322Y-47772802D01*
X113784523Y-47970026D01*
X113781881Y-47973655D01*
X113781879Y-47973658D01*
X113725206Y-48051519D01*
X113622213Y-48193016D01*
X113620128Y-48196979D01*
X113620123Y-48196987D01*
X113552724Y-48325093D01*
X113493794Y-48437101D01*
X113401955Y-48697168D01*
X113401088Y-48701569D01*
X113401087Y-48701571D01*
X113350196Y-48959773D01*
X113348620Y-48967768D01*
X113342537Y-49089947D01*
X113337240Y-49196359D01*
X113334906Y-49243233D01*
X100300500Y-49243233D01*
X100300500Y-47459139D01*
X100302384Y-47437606D01*
X100305136Y-47422000D01*
X100303253Y-47411319D01*
X100303253Y-47409214D01*
X100304314Y-47393034D01*
X100314094Y-47318742D01*
X100322472Y-47287473D01*
X100356082Y-47206331D01*
X100372268Y-47178297D01*
X100425733Y-47108621D01*
X100448621Y-47085733D01*
X100518297Y-47032268D01*
X100546329Y-47016083D01*
X100627474Y-46982472D01*
X100658742Y-46974094D01*
X100733034Y-46964314D01*
X100749214Y-46963253D01*
X100751319Y-46963253D01*
X100762000Y-46965136D01*
X100777609Y-46962384D01*
X100799139Y-46960500D01*
X163324167Y-46960500D01*
X163391206Y-46980185D01*
G37*
%TD.AperFunction*%
%TD*%
M02*
