%TF.GenerationSoftware,KiCad,Pcbnew,(6.0.11)*%
%TF.CreationDate,2023-04-06T20:22:21+02:00*%
%TF.ProjectId,ProjetCapteur,50726f6a-6574-4436-9170-746575722e6b,rev?*%
%TF.SameCoordinates,Original*%
%TF.FileFunction,Legend,Top*%
%TF.FilePolarity,Positive*%
%FSLAX46Y46*%
G04 Gerber Fmt 4.6, Leading zero omitted, Abs format (unit mm)*
G04 Created by KiCad (PCBNEW (6.0.11)) date 2023-04-06 20:22:21*
%MOMM*%
%LPD*%
G01*
G04 APERTURE LIST*
%ADD10C,0.150000*%
%ADD11C,0.120000*%
G04 APERTURE END LIST*
D10*
%TO.C,R4*%
X130678380Y-71464666D02*
X130202190Y-71798000D01*
X130678380Y-72036095D02*
X129678380Y-72036095D01*
X129678380Y-71655142D01*
X129726000Y-71559904D01*
X129773619Y-71512285D01*
X129868857Y-71464666D01*
X130011714Y-71464666D01*
X130106952Y-71512285D01*
X130154571Y-71559904D01*
X130202190Y-71655142D01*
X130202190Y-72036095D01*
X130011714Y-70607523D02*
X130678380Y-70607523D01*
X129630761Y-70845619D02*
X130345047Y-71083714D01*
X130345047Y-70464666D01*
%TO.C,C3*%
X121703142Y-69686666D02*
X121750761Y-69734285D01*
X121798380Y-69877142D01*
X121798380Y-69972380D01*
X121750761Y-70115238D01*
X121655523Y-70210476D01*
X121560285Y-70258095D01*
X121369809Y-70305714D01*
X121226952Y-70305714D01*
X121036476Y-70258095D01*
X120941238Y-70210476D01*
X120846000Y-70115238D01*
X120798380Y-69972380D01*
X120798380Y-69877142D01*
X120846000Y-69734285D01*
X120893619Y-69686666D01*
X120798380Y-69353333D02*
X120798380Y-68734285D01*
X121179333Y-69067619D01*
X121179333Y-68924761D01*
X121226952Y-68829523D01*
X121274571Y-68781904D01*
X121369809Y-68734285D01*
X121607904Y-68734285D01*
X121703142Y-68781904D01*
X121750761Y-68829523D01*
X121798380Y-68924761D01*
X121798380Y-69210476D01*
X121750761Y-69305714D01*
X121703142Y-69353333D01*
%TO.C,R6*%
X121169333Y-64976380D02*
X120836000Y-64500190D01*
X120597904Y-64976380D02*
X120597904Y-63976380D01*
X120978857Y-63976380D01*
X121074095Y-64024000D01*
X121121714Y-64071619D01*
X121169333Y-64166857D01*
X121169333Y-64309714D01*
X121121714Y-64404952D01*
X121074095Y-64452571D01*
X120978857Y-64500190D01*
X120597904Y-64500190D01*
X122026476Y-63976380D02*
X121836000Y-63976380D01*
X121740761Y-64024000D01*
X121693142Y-64071619D01*
X121597904Y-64214476D01*
X121550285Y-64404952D01*
X121550285Y-64785904D01*
X121597904Y-64881142D01*
X121645523Y-64928761D01*
X121740761Y-64976380D01*
X121931238Y-64976380D01*
X122026476Y-64928761D01*
X122074095Y-64881142D01*
X122121714Y-64785904D01*
X122121714Y-64547809D01*
X122074095Y-64452571D01*
X122026476Y-64404952D01*
X121931238Y-64357333D01*
X121740761Y-64357333D01*
X121645523Y-64404952D01*
X121597904Y-64452571D01*
X121550285Y-64547809D01*
%TO.C,C4*%
X132909142Y-82894666D02*
X132956761Y-82942285D01*
X133004380Y-83085142D01*
X133004380Y-83180380D01*
X132956761Y-83323238D01*
X132861523Y-83418476D01*
X132766285Y-83466095D01*
X132575809Y-83513714D01*
X132432952Y-83513714D01*
X132242476Y-83466095D01*
X132147238Y-83418476D01*
X132052000Y-83323238D01*
X132004380Y-83180380D01*
X132004380Y-83085142D01*
X132052000Y-82942285D01*
X132099619Y-82894666D01*
X132337714Y-82037523D02*
X133004380Y-82037523D01*
X131956761Y-82275619D02*
X132671047Y-82513714D01*
X132671047Y-81894666D01*
%TO.C,U2*%
X149530095Y-86340380D02*
X149530095Y-87149904D01*
X149577714Y-87245142D01*
X149625333Y-87292761D01*
X149720571Y-87340380D01*
X149911047Y-87340380D01*
X150006285Y-87292761D01*
X150053904Y-87245142D01*
X150101523Y-87149904D01*
X150101523Y-86340380D01*
X150530095Y-86435619D02*
X150577714Y-86388000D01*
X150672952Y-86340380D01*
X150911047Y-86340380D01*
X151006285Y-86388000D01*
X151053904Y-86435619D01*
X151101523Y-86530857D01*
X151101523Y-86626095D01*
X151053904Y-86768952D01*
X150482476Y-87340380D01*
X151101523Y-87340380D01*
X154252761Y-84038285D02*
X154300380Y-83895428D01*
X154300380Y-83657333D01*
X154252761Y-83562095D01*
X154205142Y-83514476D01*
X154109904Y-83466857D01*
X154014666Y-83466857D01*
X153919428Y-83514476D01*
X153871809Y-83562095D01*
X153824190Y-83657333D01*
X153776571Y-83847809D01*
X153728952Y-83943047D01*
X153681333Y-83990666D01*
X153586095Y-84038285D01*
X153490857Y-84038285D01*
X153395619Y-83990666D01*
X153348000Y-83943047D01*
X153300380Y-83847809D01*
X153300380Y-83609714D01*
X153348000Y-83466857D01*
X154300380Y-83038285D02*
X153300380Y-83038285D01*
X153300380Y-82800190D01*
X153348000Y-82657333D01*
X153443238Y-82562095D01*
X153538476Y-82514476D01*
X153728952Y-82466857D01*
X153871809Y-82466857D01*
X154062285Y-82514476D01*
X154157523Y-82562095D01*
X154252761Y-82657333D01*
X154300380Y-82800190D01*
X154300380Y-83038285D01*
X154014666Y-82085904D02*
X154014666Y-81609714D01*
X154300380Y-82181142D02*
X153300380Y-81847809D01*
X154300380Y-81514476D01*
X145728000Y-83585904D02*
X145680380Y-83681142D01*
X145680380Y-83824000D01*
X145728000Y-83966857D01*
X145823238Y-84062095D01*
X145918476Y-84109714D01*
X146108952Y-84157333D01*
X146251809Y-84157333D01*
X146442285Y-84109714D01*
X146537523Y-84062095D01*
X146632761Y-83966857D01*
X146680380Y-83824000D01*
X146680380Y-83728761D01*
X146632761Y-83585904D01*
X146585142Y-83538285D01*
X146251809Y-83538285D01*
X146251809Y-83728761D01*
X146680380Y-83109714D02*
X145680380Y-83109714D01*
X146680380Y-82538285D01*
X145680380Y-82538285D01*
X146680380Y-82062095D02*
X145680380Y-82062095D01*
X145680380Y-81824000D01*
X145728000Y-81681142D01*
X145823238Y-81585904D01*
X145918476Y-81538285D01*
X146108952Y-81490666D01*
X146251809Y-81490666D01*
X146442285Y-81538285D01*
X146537523Y-81585904D01*
X146632761Y-81681142D01*
X146680380Y-81824000D01*
X146680380Y-82062095D01*
X151712761Y-84109714D02*
X151760380Y-83966857D01*
X151760380Y-83728761D01*
X151712761Y-83633523D01*
X151665142Y-83585904D01*
X151569904Y-83538285D01*
X151474666Y-83538285D01*
X151379428Y-83585904D01*
X151331809Y-83633523D01*
X151284190Y-83728761D01*
X151236571Y-83919238D01*
X151188952Y-84014476D01*
X151141333Y-84062095D01*
X151046095Y-84109714D01*
X150950857Y-84109714D01*
X150855619Y-84062095D01*
X150808000Y-84014476D01*
X150760380Y-83919238D01*
X150760380Y-83681142D01*
X150808000Y-83538285D01*
X151665142Y-82538285D02*
X151712761Y-82585904D01*
X151760380Y-82728761D01*
X151760380Y-82824000D01*
X151712761Y-82966857D01*
X151617523Y-83062095D01*
X151522285Y-83109714D01*
X151331809Y-83157333D01*
X151188952Y-83157333D01*
X150998476Y-83109714D01*
X150903238Y-83062095D01*
X150808000Y-82966857D01*
X150760380Y-82824000D01*
X150760380Y-82728761D01*
X150808000Y-82585904D01*
X150855619Y-82538285D01*
X151760380Y-82109714D02*
X150760380Y-82109714D01*
X151760380Y-81538285D02*
X151188952Y-81966857D01*
X150760380Y-81538285D02*
X151331809Y-82109714D01*
X148220380Y-84157333D02*
X149220380Y-83824000D01*
X148220380Y-83490666D01*
X149125142Y-82585904D02*
X149172761Y-82633523D01*
X149220380Y-82776380D01*
X149220380Y-82871619D01*
X149172761Y-83014476D01*
X149077523Y-83109714D01*
X148982285Y-83157333D01*
X148791809Y-83204952D01*
X148648952Y-83204952D01*
X148458476Y-83157333D01*
X148363238Y-83109714D01*
X148268000Y-83014476D01*
X148220380Y-82871619D01*
X148220380Y-82776380D01*
X148268000Y-82633523D01*
X148315619Y-82585904D01*
X149125142Y-81585904D02*
X149172761Y-81633523D01*
X149220380Y-81776380D01*
X149220380Y-81871619D01*
X149172761Y-82014476D01*
X149077523Y-82109714D01*
X148982285Y-82157333D01*
X148791809Y-82204952D01*
X148648952Y-82204952D01*
X148458476Y-82157333D01*
X148363238Y-82109714D01*
X148268000Y-82014476D01*
X148220380Y-81871619D01*
X148220380Y-81776380D01*
X148268000Y-81633523D01*
X148315619Y-81585904D01*
%TO.C,R2*%
X124725333Y-83772380D02*
X124392000Y-83296190D01*
X124153904Y-83772380D02*
X124153904Y-82772380D01*
X124534857Y-82772380D01*
X124630095Y-82820000D01*
X124677714Y-82867619D01*
X124725333Y-82962857D01*
X124725333Y-83105714D01*
X124677714Y-83200952D01*
X124630095Y-83248571D01*
X124534857Y-83296190D01*
X124153904Y-83296190D01*
X125106285Y-82867619D02*
X125153904Y-82820000D01*
X125249142Y-82772380D01*
X125487238Y-82772380D01*
X125582476Y-82820000D01*
X125630095Y-82867619D01*
X125677714Y-82962857D01*
X125677714Y-83058095D01*
X125630095Y-83200952D01*
X125058666Y-83772380D01*
X125677714Y-83772380D01*
%TO.C,R3*%
X124725333Y-86906380D02*
X124392000Y-86430190D01*
X124153904Y-86906380D02*
X124153904Y-85906380D01*
X124534857Y-85906380D01*
X124630095Y-85954000D01*
X124677714Y-86001619D01*
X124725333Y-86096857D01*
X124725333Y-86239714D01*
X124677714Y-86334952D01*
X124630095Y-86382571D01*
X124534857Y-86430190D01*
X124153904Y-86430190D01*
X125058666Y-85906380D02*
X125677714Y-85906380D01*
X125344380Y-86287333D01*
X125487238Y-86287333D01*
X125582476Y-86334952D01*
X125630095Y-86382571D01*
X125677714Y-86477809D01*
X125677714Y-86715904D01*
X125630095Y-86811142D01*
X125582476Y-86858761D01*
X125487238Y-86906380D01*
X125201523Y-86906380D01*
X125106285Y-86858761D01*
X125058666Y-86811142D01*
%TO.C,U1*%
X136576095Y-44842380D02*
X136576095Y-45651904D01*
X136623714Y-45747142D01*
X136671333Y-45794761D01*
X136766571Y-45842380D01*
X136957047Y-45842380D01*
X137052285Y-45794761D01*
X137099904Y-45747142D01*
X137147523Y-45651904D01*
X137147523Y-44842380D01*
X138147523Y-45842380D02*
X137576095Y-45842380D01*
X137861809Y-45842380D02*
X137861809Y-44842380D01*
X137766571Y-44985238D01*
X137671333Y-45080476D01*
X137576095Y-45128095D01*
X138568380Y-51549333D02*
X139568380Y-51216000D01*
X138568380Y-50882666D01*
X139473142Y-49977904D02*
X139520761Y-50025523D01*
X139568380Y-50168380D01*
X139568380Y-50263619D01*
X139520761Y-50406476D01*
X139425523Y-50501714D01*
X139330285Y-50549333D01*
X139139809Y-50596952D01*
X138996952Y-50596952D01*
X138806476Y-50549333D01*
X138711238Y-50501714D01*
X138616000Y-50406476D01*
X138568380Y-50263619D01*
X138568380Y-50168380D01*
X138616000Y-50025523D01*
X138663619Y-49977904D01*
X139473142Y-48977904D02*
X139520761Y-49025523D01*
X139568380Y-49168380D01*
X139568380Y-49263619D01*
X139520761Y-49406476D01*
X139425523Y-49501714D01*
X139330285Y-49549333D01*
X139139809Y-49596952D01*
X138996952Y-49596952D01*
X138806476Y-49549333D01*
X138711238Y-49501714D01*
X138616000Y-49406476D01*
X138568380Y-49263619D01*
X138568380Y-49168380D01*
X138616000Y-49025523D01*
X138663619Y-48977904D01*
X133488380Y-51699428D02*
X133488380Y-51128000D01*
X134488380Y-51413714D02*
X133488380Y-51413714D01*
X133488380Y-50889904D02*
X134488380Y-50223238D01*
X133488380Y-50223238D02*
X134488380Y-50889904D01*
X134583619Y-50080380D02*
X134583619Y-49318476D01*
X133821714Y-49223238D02*
X133821714Y-48842285D01*
X133488380Y-49080380D02*
X134345523Y-49080380D01*
X134440761Y-49032761D01*
X134488380Y-48937523D01*
X134488380Y-48842285D01*
X134488380Y-48366095D02*
X134440761Y-48461333D01*
X134393142Y-48508952D01*
X134297904Y-48556571D01*
X134012190Y-48556571D01*
X133916952Y-48508952D01*
X133869333Y-48461333D01*
X133821714Y-48366095D01*
X133821714Y-48223238D01*
X133869333Y-48128000D01*
X133916952Y-48080380D01*
X134012190Y-48032761D01*
X134297904Y-48032761D01*
X134393142Y-48080380D01*
X134440761Y-48128000D01*
X134488380Y-48223238D01*
X134488380Y-48366095D01*
X134583619Y-47842285D02*
X134583619Y-47080380D01*
X134488380Y-46270857D02*
X134012190Y-46604190D01*
X134488380Y-46842285D02*
X133488380Y-46842285D01*
X133488380Y-46461333D01*
X133536000Y-46366095D01*
X133583619Y-46318476D01*
X133678857Y-46270857D01*
X133821714Y-46270857D01*
X133916952Y-46318476D01*
X133964571Y-46366095D01*
X134012190Y-46461333D01*
X134012190Y-46842285D01*
X133488380Y-45937523D02*
X134488380Y-45270857D01*
X133488380Y-45270857D02*
X134488380Y-45937523D01*
X134583619Y-45128000D02*
X134583619Y-44366095D01*
X134869333Y-43842285D02*
X134821714Y-43889904D01*
X134678857Y-43985142D01*
X134583619Y-44032761D01*
X134440761Y-44080380D01*
X134202666Y-44128000D01*
X134012190Y-44128000D01*
X133774095Y-44080380D01*
X133631238Y-44032761D01*
X133536000Y-43985142D01*
X133393142Y-43889904D01*
X133345523Y-43842285D01*
X134202666Y-43508952D02*
X134202666Y-43032761D01*
X134488380Y-43604190D02*
X133488380Y-43270857D01*
X134488380Y-42937523D01*
X134488380Y-42604190D02*
X133821714Y-42604190D01*
X134012190Y-42604190D02*
X133916952Y-42556571D01*
X133869333Y-42508952D01*
X133821714Y-42413714D01*
X133821714Y-42318476D01*
X134488380Y-41556571D02*
X133488380Y-41556571D01*
X134440761Y-41556571D02*
X134488380Y-41651809D01*
X134488380Y-41842285D01*
X134440761Y-41937523D01*
X134393142Y-41985142D01*
X134297904Y-42032761D01*
X134012190Y-42032761D01*
X133916952Y-41985142D01*
X133869333Y-41937523D01*
X133821714Y-41842285D01*
X133821714Y-41651809D01*
X133869333Y-41556571D01*
X133821714Y-40651809D02*
X134488380Y-40651809D01*
X133821714Y-41080380D02*
X134345523Y-41080380D01*
X134440761Y-41032761D01*
X134488380Y-40937523D01*
X134488380Y-40794666D01*
X134440761Y-40699428D01*
X134393142Y-40651809D01*
X134488380Y-40175619D02*
X133821714Y-40175619D01*
X133488380Y-40175619D02*
X133536000Y-40223238D01*
X133583619Y-40175619D01*
X133536000Y-40128000D01*
X133488380Y-40175619D01*
X133583619Y-40175619D01*
X133821714Y-39699428D02*
X134488380Y-39699428D01*
X133916952Y-39699428D02*
X133869333Y-39651809D01*
X133821714Y-39556571D01*
X133821714Y-39413714D01*
X133869333Y-39318476D01*
X133964571Y-39270857D01*
X134488380Y-39270857D01*
X134488380Y-38651809D02*
X134440761Y-38747047D01*
X134393142Y-38794666D01*
X134297904Y-38842285D01*
X134012190Y-38842285D01*
X133916952Y-38794666D01*
X133869333Y-38747047D01*
X133821714Y-38651809D01*
X133821714Y-38508952D01*
X133869333Y-38413714D01*
X133916952Y-38366095D01*
X134012190Y-38318476D01*
X134297904Y-38318476D01*
X134393142Y-38366095D01*
X134440761Y-38413714D01*
X134488380Y-38508952D01*
X134488380Y-38651809D01*
X134869333Y-37985142D02*
X134821714Y-37937523D01*
X134678857Y-37842285D01*
X134583619Y-37794666D01*
X134440761Y-37747047D01*
X134202666Y-37699428D01*
X134012190Y-37699428D01*
X133774095Y-37747047D01*
X133631238Y-37794666D01*
X133536000Y-37842285D01*
X133393142Y-37937523D01*
X133345523Y-37985142D01*
X136076000Y-50723904D02*
X136028380Y-50819142D01*
X136028380Y-50962000D01*
X136076000Y-51104857D01*
X136171238Y-51200095D01*
X136266476Y-51247714D01*
X136456952Y-51295333D01*
X136599809Y-51295333D01*
X136790285Y-51247714D01*
X136885523Y-51200095D01*
X136980761Y-51104857D01*
X137028380Y-50962000D01*
X137028380Y-50866761D01*
X136980761Y-50723904D01*
X136933142Y-50676285D01*
X136599809Y-50676285D01*
X136599809Y-50866761D01*
X137028380Y-50247714D02*
X136028380Y-50247714D01*
X137028380Y-49676285D01*
X136028380Y-49676285D01*
X137028380Y-49200095D02*
X136028380Y-49200095D01*
X136028380Y-48962000D01*
X136076000Y-48819142D01*
X136171238Y-48723904D01*
X136266476Y-48676285D01*
X136456952Y-48628666D01*
X136599809Y-48628666D01*
X136790285Y-48676285D01*
X136885523Y-48723904D01*
X136980761Y-48819142D01*
X137028380Y-48962000D01*
X137028380Y-49200095D01*
X131948380Y-50985142D02*
X131472190Y-51318476D01*
X131948380Y-51556571D02*
X130948380Y-51556571D01*
X130948380Y-51175619D01*
X130996000Y-51080380D01*
X131043619Y-51032761D01*
X131138857Y-50985142D01*
X131281714Y-50985142D01*
X131376952Y-51032761D01*
X131424571Y-51080380D01*
X131472190Y-51175619D01*
X131472190Y-51556571D01*
X130948380Y-50651809D02*
X131948380Y-49985142D01*
X130948380Y-49985142D02*
X131948380Y-50651809D01*
X132043619Y-49842285D02*
X132043619Y-49080380D01*
X131281714Y-48985142D02*
X131281714Y-48604190D01*
X130948380Y-48842285D02*
X131805523Y-48842285D01*
X131900761Y-48794666D01*
X131948380Y-48699428D01*
X131948380Y-48604190D01*
X131948380Y-48128000D02*
X131900761Y-48223238D01*
X131853142Y-48270857D01*
X131757904Y-48318476D01*
X131472190Y-48318476D01*
X131376952Y-48270857D01*
X131329333Y-48223238D01*
X131281714Y-48128000D01*
X131281714Y-47985142D01*
X131329333Y-47889904D01*
X131376952Y-47842285D01*
X131472190Y-47794666D01*
X131757904Y-47794666D01*
X131853142Y-47842285D01*
X131900761Y-47889904D01*
X131948380Y-47985142D01*
X131948380Y-48128000D01*
X132043619Y-47604190D02*
X132043619Y-46842285D01*
X130948380Y-46747047D02*
X130948380Y-46175619D01*
X131948380Y-46461333D02*
X130948380Y-46461333D01*
X130948380Y-45937523D02*
X131948380Y-45270857D01*
X130948380Y-45270857D02*
X131948380Y-45937523D01*
X132043619Y-45128000D02*
X132043619Y-44366095D01*
X132329333Y-43842285D02*
X132281714Y-43889904D01*
X132138857Y-43985142D01*
X132043619Y-44032761D01*
X131900761Y-44080380D01*
X131662666Y-44128000D01*
X131472190Y-44128000D01*
X131234095Y-44080380D01*
X131091238Y-44032761D01*
X130996000Y-43985142D01*
X130853142Y-43889904D01*
X130805523Y-43842285D01*
X131662666Y-43508952D02*
X131662666Y-43032761D01*
X131948380Y-43604190D02*
X130948380Y-43270857D01*
X131948380Y-42937523D01*
X131948380Y-42604190D02*
X131281714Y-42604190D01*
X131472190Y-42604190D02*
X131376952Y-42556571D01*
X131329333Y-42508952D01*
X131281714Y-42413714D01*
X131281714Y-42318476D01*
X131948380Y-41556571D02*
X130948380Y-41556571D01*
X131900761Y-41556571D02*
X131948380Y-41651809D01*
X131948380Y-41842285D01*
X131900761Y-41937523D01*
X131853142Y-41985142D01*
X131757904Y-42032761D01*
X131472190Y-42032761D01*
X131376952Y-41985142D01*
X131329333Y-41937523D01*
X131281714Y-41842285D01*
X131281714Y-41651809D01*
X131329333Y-41556571D01*
X131281714Y-40651809D02*
X131948380Y-40651809D01*
X131281714Y-41080380D02*
X131805523Y-41080380D01*
X131900761Y-41032761D01*
X131948380Y-40937523D01*
X131948380Y-40794666D01*
X131900761Y-40699428D01*
X131853142Y-40651809D01*
X131948380Y-40175619D02*
X131281714Y-40175619D01*
X130948380Y-40175619D02*
X130996000Y-40223238D01*
X131043619Y-40175619D01*
X130996000Y-40128000D01*
X130948380Y-40175619D01*
X131043619Y-40175619D01*
X131281714Y-39699428D02*
X131948380Y-39699428D01*
X131376952Y-39699428D02*
X131329333Y-39651809D01*
X131281714Y-39556571D01*
X131281714Y-39413714D01*
X131329333Y-39318476D01*
X131424571Y-39270857D01*
X131948380Y-39270857D01*
X131948380Y-38651809D02*
X131900761Y-38747047D01*
X131853142Y-38794666D01*
X131757904Y-38842285D01*
X131472190Y-38842285D01*
X131376952Y-38794666D01*
X131329333Y-38747047D01*
X131281714Y-38651809D01*
X131281714Y-38508952D01*
X131329333Y-38413714D01*
X131376952Y-38366095D01*
X131472190Y-38318476D01*
X131757904Y-38318476D01*
X131853142Y-38366095D01*
X131900761Y-38413714D01*
X131948380Y-38508952D01*
X131948380Y-38651809D01*
X132329333Y-37985142D02*
X132281714Y-37937523D01*
X132138857Y-37842285D01*
X132043619Y-37794666D01*
X131900761Y-37747047D01*
X131662666Y-37699428D01*
X131472190Y-37699428D01*
X131234095Y-37747047D01*
X131091238Y-37794666D01*
X130996000Y-37842285D01*
X130853142Y-37937523D01*
X130805523Y-37985142D01*
%TO.C,R5*%
X121169333Y-79200380D02*
X120836000Y-78724190D01*
X120597904Y-79200380D02*
X120597904Y-78200380D01*
X120978857Y-78200380D01*
X121074095Y-78248000D01*
X121121714Y-78295619D01*
X121169333Y-78390857D01*
X121169333Y-78533714D01*
X121121714Y-78628952D01*
X121074095Y-78676571D01*
X120978857Y-78724190D01*
X120597904Y-78724190D01*
X122074095Y-78200380D02*
X121597904Y-78200380D01*
X121550285Y-78676571D01*
X121597904Y-78628952D01*
X121693142Y-78581333D01*
X121931238Y-78581333D01*
X122026476Y-78628952D01*
X122074095Y-78676571D01*
X122121714Y-78771809D01*
X122121714Y-79009904D01*
X122074095Y-79105142D01*
X122026476Y-79152761D01*
X121931238Y-79200380D01*
X121693142Y-79200380D01*
X121597904Y-79152761D01*
X121550285Y-79105142D01*
%TO.C,R1*%
X134318380Y-88736666D02*
X133842190Y-89070000D01*
X134318380Y-89308095D02*
X133318380Y-89308095D01*
X133318380Y-88927142D01*
X133366000Y-88831904D01*
X133413619Y-88784285D01*
X133508857Y-88736666D01*
X133651714Y-88736666D01*
X133746952Y-88784285D01*
X133794571Y-88831904D01*
X133842190Y-88927142D01*
X133842190Y-89308095D01*
X134318380Y-87784285D02*
X134318380Y-88355714D01*
X134318380Y-88070000D02*
X133318380Y-88070000D01*
X133461238Y-88165238D01*
X133556476Y-88260476D01*
X133604095Y-88355714D01*
%TO.C,U3*%
X142700380Y-70789904D02*
X143509904Y-70789904D01*
X143605142Y-70742285D01*
X143652761Y-70694666D01*
X143700380Y-70599428D01*
X143700380Y-70408952D01*
X143652761Y-70313714D01*
X143605142Y-70266095D01*
X143509904Y-70218476D01*
X142700380Y-70218476D01*
X142700380Y-69837523D02*
X142700380Y-69218476D01*
X143081333Y-69551809D01*
X143081333Y-69408952D01*
X143128952Y-69313714D01*
X143176571Y-69266095D01*
X143271809Y-69218476D01*
X143509904Y-69218476D01*
X143605142Y-69266095D01*
X143652761Y-69313714D01*
X143700380Y-69408952D01*
X143700380Y-69694666D01*
X143652761Y-69789904D01*
X143605142Y-69837523D01*
X138060380Y-72758380D02*
X139060380Y-72425047D01*
X138060380Y-72091714D01*
X138679428Y-71758380D02*
X138679428Y-70996476D01*
X139060380Y-71377428D02*
X138298476Y-71377428D01*
X138679428Y-69392857D02*
X138679428Y-68630952D01*
X139060380Y-68154761D02*
X138060380Y-68154761D01*
X139060380Y-67678571D02*
X138060380Y-67678571D01*
X139060380Y-67107142D01*
X138060380Y-67107142D01*
X129392571Y-79115809D02*
X129392571Y-78782476D01*
X129916380Y-78639619D02*
X129916380Y-79115809D01*
X128916380Y-79115809D01*
X128916380Y-78639619D01*
X128916380Y-78306285D02*
X129916380Y-77639619D01*
X128916380Y-77639619D02*
X129916380Y-78306285D01*
X128916380Y-77401523D02*
X128916380Y-76830095D01*
X129916380Y-77115809D02*
X128916380Y-77115809D01*
X130011619Y-76734857D02*
X130011619Y-75972952D01*
X129821142Y-75163428D02*
X129868761Y-75211047D01*
X129916380Y-75353904D01*
X129916380Y-75449142D01*
X129868761Y-75592000D01*
X129773523Y-75687238D01*
X129678285Y-75734857D01*
X129487809Y-75782476D01*
X129344952Y-75782476D01*
X129154476Y-75734857D01*
X129059238Y-75687238D01*
X128964000Y-75592000D01*
X128916380Y-75449142D01*
X128916380Y-75353904D01*
X128964000Y-75211047D01*
X129011619Y-75163428D01*
X129916380Y-74258666D02*
X129916380Y-74734857D01*
X128916380Y-74734857D01*
X128916380Y-73734857D02*
X128916380Y-73544380D01*
X128964000Y-73449142D01*
X129059238Y-73353904D01*
X129249714Y-73306285D01*
X129583047Y-73306285D01*
X129773523Y-73353904D01*
X129868761Y-73449142D01*
X129916380Y-73544380D01*
X129916380Y-73734857D01*
X129868761Y-73830095D01*
X129773523Y-73925333D01*
X129583047Y-73972952D01*
X129249714Y-73972952D01*
X129059238Y-73925333D01*
X128964000Y-73830095D01*
X128916380Y-73734857D01*
X129821142Y-72306285D02*
X129868761Y-72353904D01*
X129916380Y-72496761D01*
X129916380Y-72592000D01*
X129868761Y-72734857D01*
X129773523Y-72830095D01*
X129678285Y-72877714D01*
X129487809Y-72925333D01*
X129344952Y-72925333D01*
X129154476Y-72877714D01*
X129059238Y-72830095D01*
X128964000Y-72734857D01*
X128916380Y-72592000D01*
X128916380Y-72496761D01*
X128964000Y-72353904D01*
X129011619Y-72306285D01*
X129916380Y-71877714D02*
X128916380Y-71877714D01*
X129916380Y-71306285D02*
X129344952Y-71734857D01*
X128916380Y-71306285D02*
X129487809Y-71877714D01*
X130011619Y-71115809D02*
X130011619Y-70353904D01*
X129916380Y-70115809D02*
X128916380Y-70115809D01*
X129916380Y-69639619D02*
X128916380Y-69639619D01*
X129916380Y-69068190D01*
X128916380Y-69068190D01*
X141346380Y-73956857D02*
X140346380Y-73956857D01*
X141346380Y-73385428D01*
X140346380Y-73385428D01*
X141251142Y-72337809D02*
X141298761Y-72385428D01*
X141346380Y-72528285D01*
X141346380Y-72623523D01*
X141298761Y-72766380D01*
X141203523Y-72861619D01*
X141108285Y-72909238D01*
X140917809Y-72956857D01*
X140774952Y-72956857D01*
X140584476Y-72909238D01*
X140489238Y-72861619D01*
X140394000Y-72766380D01*
X140346380Y-72623523D01*
X140346380Y-72528285D01*
X140394000Y-72385428D01*
X140441619Y-72337809D01*
X141441619Y-72147333D02*
X141441619Y-71385428D01*
X140441619Y-71194952D02*
X140394000Y-71147333D01*
X140346380Y-71052095D01*
X140346380Y-70814000D01*
X140394000Y-70718761D01*
X140441619Y-70671142D01*
X140536857Y-70623523D01*
X140632095Y-70623523D01*
X140774952Y-70671142D01*
X141346380Y-71242571D01*
X141346380Y-70623523D01*
X136139428Y-69392857D02*
X136139428Y-68630952D01*
X136520380Y-69011904D02*
X135758476Y-69011904D01*
X136520380Y-68154761D02*
X135520380Y-68154761D01*
X136520380Y-67678571D02*
X135520380Y-67678571D01*
X136520380Y-67107142D01*
X135520380Y-67107142D01*
X141346380Y-69638857D02*
X140346380Y-69638857D01*
X141346380Y-69067428D01*
X140346380Y-69067428D01*
X141251142Y-68019809D02*
X141298761Y-68067428D01*
X141346380Y-68210285D01*
X141346380Y-68305523D01*
X141298761Y-68448380D01*
X141203523Y-68543619D01*
X141108285Y-68591238D01*
X140917809Y-68638857D01*
X140774952Y-68638857D01*
X140584476Y-68591238D01*
X140489238Y-68543619D01*
X140394000Y-68448380D01*
X140346380Y-68305523D01*
X140346380Y-68210285D01*
X140394000Y-68067428D01*
X140441619Y-68019809D01*
X141441619Y-67829333D02*
X141441619Y-67067428D01*
X141346380Y-66305523D02*
X141346380Y-66876952D01*
X141346380Y-66591238D02*
X140346380Y-66591238D01*
X140489238Y-66686476D01*
X140584476Y-66781714D01*
X140632095Y-66876952D01*
X132980380Y-68948380D02*
X133980380Y-68615047D01*
X132980380Y-68281714D01*
X133599428Y-67948380D02*
X133599428Y-67186476D01*
X135520380Y-73060000D02*
X135520380Y-72869523D01*
X135568000Y-72774285D01*
X135663238Y-72679047D01*
X135853714Y-72631428D01*
X136187047Y-72631428D01*
X136377523Y-72679047D01*
X136472761Y-72774285D01*
X136520380Y-72869523D01*
X136520380Y-73060000D01*
X136472761Y-73155238D01*
X136377523Y-73250476D01*
X136187047Y-73298095D01*
X135853714Y-73298095D01*
X135663238Y-73250476D01*
X135568000Y-73155238D01*
X135520380Y-73060000D01*
X135520380Y-72202857D02*
X136329904Y-72202857D01*
X136425142Y-72155238D01*
X136472761Y-72107619D01*
X136520380Y-72012380D01*
X136520380Y-71821904D01*
X136472761Y-71726666D01*
X136425142Y-71679047D01*
X136329904Y-71631428D01*
X135520380Y-71631428D01*
X135520380Y-71298095D02*
X135520380Y-70726666D01*
X136520380Y-71012380D02*
X135520380Y-71012380D01*
%TO.C,C2*%
X126249333Y-95237142D02*
X126201714Y-95284761D01*
X126058857Y-95332380D01*
X125963619Y-95332380D01*
X125820761Y-95284761D01*
X125725523Y-95189523D01*
X125677904Y-95094285D01*
X125630285Y-94903809D01*
X125630285Y-94760952D01*
X125677904Y-94570476D01*
X125725523Y-94475238D01*
X125820761Y-94380000D01*
X125963619Y-94332380D01*
X126058857Y-94332380D01*
X126201714Y-94380000D01*
X126249333Y-94427619D01*
X126630285Y-94427619D02*
X126677904Y-94380000D01*
X126773142Y-94332380D01*
X127011238Y-94332380D01*
X127106476Y-94380000D01*
X127154095Y-94427619D01*
X127201714Y-94522857D01*
X127201714Y-94618095D01*
X127154095Y-94760952D01*
X126582666Y-95332380D01*
X127201714Y-95332380D01*
%TO.C,C1*%
X123415333Y-82617142D02*
X123367714Y-82664761D01*
X123224857Y-82712380D01*
X123129619Y-82712380D01*
X122986761Y-82664761D01*
X122891523Y-82569523D01*
X122843904Y-82474285D01*
X122796285Y-82283809D01*
X122796285Y-82140952D01*
X122843904Y-81950476D01*
X122891523Y-81855238D01*
X122986761Y-81760000D01*
X123129619Y-81712380D01*
X123224857Y-81712380D01*
X123367714Y-81760000D01*
X123415333Y-81807619D01*
X124367714Y-82712380D02*
X123796285Y-82712380D01*
X124082000Y-82712380D02*
X124082000Y-81712380D01*
X123986761Y-81855238D01*
X123891523Y-81950476D01*
X123796285Y-81998095D01*
D11*
%TO.C,R4*%
X128856000Y-66250000D02*
X129186000Y-66250000D01*
X129186000Y-72790000D02*
X128856000Y-72790000D01*
X131266000Y-72790000D02*
X131596000Y-72790000D01*
X131596000Y-72790000D02*
X131596000Y-66250000D01*
X128856000Y-72790000D02*
X128856000Y-66250000D01*
X131596000Y-66250000D02*
X131266000Y-66250000D01*
%TO.C,C3*%
X122476000Y-74140000D02*
X122476000Y-64900000D01*
X125811000Y-64900000D02*
X127816000Y-64900000D01*
X122476000Y-74140000D02*
X124481000Y-74140000D01*
X127816000Y-74140000D02*
X127816000Y-64900000D01*
X122476000Y-64900000D02*
X124481000Y-64900000D01*
X125811000Y-74140000D02*
X127816000Y-74140000D01*
%TO.C,R6*%
X118066000Y-63524000D02*
X118066000Y-63194000D01*
X124606000Y-63194000D02*
X124606000Y-63524000D01*
X124606000Y-61114000D02*
X124606000Y-60784000D01*
X124606000Y-60784000D02*
X118066000Y-60784000D01*
X124606000Y-63524000D02*
X118066000Y-63524000D01*
X118066000Y-60784000D02*
X118066000Y-61114000D01*
%TO.C,C4*%
X116156000Y-71378000D02*
X116471000Y-71378000D01*
X118581000Y-71378000D02*
X118896000Y-71378000D01*
X116156000Y-66138000D02*
X116471000Y-66138000D01*
X118896000Y-71378000D02*
X118896000Y-66138000D01*
X116156000Y-71378000D02*
X116156000Y-66138000D01*
X118581000Y-66138000D02*
X118896000Y-66138000D01*
%TO.C,U2*%
X154948000Y-80768000D02*
X145128000Y-80768000D01*
X154948000Y-77768000D02*
X154948000Y-80768000D01*
X138038000Y-92768000D02*
X162038000Y-92768000D01*
X162038000Y-77768000D02*
X162038000Y-92768000D01*
X145128000Y-77768000D02*
X154948000Y-77768000D01*
X138038000Y-77768000D02*
X162038000Y-77768000D01*
X138038000Y-77768000D02*
X138038000Y-92768000D01*
X147498000Y-77768000D02*
X147498000Y-80768000D01*
X145128000Y-80768000D02*
X145128000Y-77768000D01*
%TO.C,J1*%
X126610000Y-96130000D02*
X127940000Y-96130000D01*
X129210000Y-98790000D02*
X129210000Y-96130000D01*
X129210000Y-96130000D02*
X147050000Y-96130000D01*
X147050000Y-98790000D02*
X147050000Y-96130000D01*
X129210000Y-98790000D02*
X147050000Y-98790000D01*
X126610000Y-97460000D02*
X126610000Y-96130000D01*
%TO.C,J3*%
X164830000Y-98790000D02*
X164830000Y-96130000D01*
X152070000Y-98790000D02*
X164830000Y-98790000D01*
X149470000Y-96130000D02*
X150800000Y-96130000D01*
X152070000Y-96130000D02*
X164830000Y-96130000D01*
X152070000Y-98790000D02*
X152070000Y-96130000D01*
X149470000Y-97460000D02*
X149470000Y-96130000D01*
%TO.C,J2*%
X117466000Y-47870000D02*
X118796000Y-47870000D01*
X120066000Y-50530000D02*
X120066000Y-47870000D01*
X120066000Y-47870000D02*
X142986000Y-47870000D01*
X117466000Y-49200000D02*
X117466000Y-47870000D01*
X142986000Y-50530000D02*
X142986000Y-47870000D01*
X120066000Y-50530000D02*
X142986000Y-50530000D01*
%TO.C,J4*%
X144390000Y-47870000D02*
X145720000Y-47870000D01*
X146990000Y-50530000D02*
X146990000Y-47870000D01*
X146990000Y-47870000D02*
X164830000Y-47870000D01*
X164830000Y-50530000D02*
X164830000Y-47870000D01*
X146990000Y-50530000D02*
X164830000Y-50530000D01*
X144390000Y-49200000D02*
X144390000Y-47870000D01*
%TO.C,R2*%
X121622000Y-82320000D02*
X121622000Y-81990000D01*
X128162000Y-81990000D02*
X128162000Y-82320000D01*
X128162000Y-79910000D02*
X128162000Y-79580000D01*
X128162000Y-79580000D02*
X121622000Y-79580000D01*
X128162000Y-82320000D02*
X121622000Y-82320000D01*
X121622000Y-79580000D02*
X121622000Y-79910000D01*
%TO.C,R3*%
X128162000Y-87454000D02*
X128162000Y-87784000D01*
X121622000Y-87784000D02*
X121622000Y-87454000D01*
X121622000Y-89864000D02*
X121622000Y-90194000D01*
X121622000Y-90194000D02*
X128162000Y-90194000D01*
X121622000Y-87454000D02*
X128162000Y-87454000D01*
X128162000Y-90194000D02*
X128162000Y-89864000D01*
%TO.C,U1*%
X127856000Y-55018000D02*
X127856000Y-52018000D01*
X140386000Y-55018000D02*
X140386000Y-52018000D01*
X142756000Y-55018000D02*
X127856000Y-55018000D01*
X127856000Y-52018000D02*
X142756000Y-52018000D01*
X142756000Y-52018000D02*
X142756000Y-55018000D01*
%TO.C,R5*%
X118066000Y-77748000D02*
X118066000Y-77418000D01*
X124606000Y-77418000D02*
X124606000Y-77748000D01*
X124606000Y-75338000D02*
X124606000Y-75008000D01*
X124606000Y-75008000D02*
X118066000Y-75008000D01*
X124606000Y-77748000D02*
X118066000Y-77748000D01*
X118066000Y-75008000D02*
X118066000Y-75338000D01*
%TO.C,R1*%
X132866000Y-91840000D02*
X132536000Y-91840000D01*
X132536000Y-85300000D02*
X132866000Y-85300000D01*
X130456000Y-85300000D02*
X130126000Y-85300000D01*
X130126000Y-85300000D02*
X130126000Y-91840000D01*
X132866000Y-85300000D02*
X132866000Y-91840000D01*
X130126000Y-91840000D02*
X130456000Y-91840000D01*
%TO.C,U3*%
X142248000Y-68274667D02*
X142248000Y-64768000D01*
X142248000Y-64768000D02*
X132428000Y-64768000D01*
X142248000Y-75288000D02*
X142248000Y-71781333D01*
X142248000Y-71781333D02*
X141888000Y-71781333D01*
X132428000Y-75288000D02*
X142248000Y-75288000D01*
X141888000Y-71781333D02*
X141888000Y-68274667D01*
X132428000Y-64768000D02*
X132428000Y-75288000D01*
X141888000Y-68274667D02*
X142248000Y-68274667D01*
%TO.C,C2*%
X129036000Y-93750000D02*
X129036000Y-93435000D01*
X129036000Y-91325000D02*
X129036000Y-91010000D01*
X123796000Y-93750000D02*
X123796000Y-93435000D01*
X129036000Y-91010000D02*
X123796000Y-91010000D01*
X129036000Y-93750000D02*
X123796000Y-93750000D01*
X123796000Y-91325000D02*
X123796000Y-91010000D01*
%TO.C,C1*%
X120962000Y-83390000D02*
X120962000Y-83705000D01*
X120962000Y-85815000D02*
X120962000Y-86130000D01*
X126202000Y-83390000D02*
X126202000Y-83705000D01*
X120962000Y-86130000D02*
X126202000Y-86130000D01*
X120962000Y-83390000D02*
X126202000Y-83390000D01*
X126202000Y-85815000D02*
X126202000Y-86130000D01*
%TD*%
M02*
