%TF.GenerationSoftware,KiCad,Pcbnew,(6.0.11)*%
%TF.CreationDate,2023-04-06T20:22:21+02:00*%
%TF.ProjectId,ProjetCapteur,50726f6a-6574-4436-9170-746575722e6b,rev?*%
%TF.SameCoordinates,Original*%
%TF.FileFunction,Soldermask,Top*%
%TF.FilePolarity,Negative*%
%FSLAX46Y46*%
G04 Gerber Fmt 4.6, Leading zero omitted, Abs format (unit mm)*
G04 Created by KiCad (PCBNEW (6.0.11)) date 2023-04-06 20:22:21*
%MOMM*%
%LPD*%
G01*
G04 APERTURE LIST*
%ADD10C,2.000000*%
%ADD11R,1.700000X1.700000*%
%ADD12O,1.700000X1.700000*%
%ADD13C,3.200000*%
%ADD14R,2.000000X2.000000*%
G04 APERTURE END LIST*
D10*
%TO.C,R4*%
X130226000Y-65710000D03*
X130226000Y-73330000D03*
%TD*%
%TO.C,C3*%
X125146000Y-65770000D03*
X125146000Y-73270000D03*
%TD*%
%TO.C,R6*%
X117526000Y-62154000D03*
X125146000Y-62154000D03*
%TD*%
%TO.C,C4*%
X117526000Y-66258000D03*
X117526000Y-71258000D03*
%TD*%
%TO.C,U2*%
X153848000Y-79268000D03*
X151308000Y-79268000D03*
X148768000Y-79268000D03*
X146228000Y-79268000D03*
%TD*%
D11*
%TO.C,J1*%
X127940000Y-97460000D03*
D12*
X130480000Y-97460000D03*
X133020000Y-97460000D03*
X135560000Y-97460000D03*
X138100000Y-97460000D03*
X140640000Y-97460000D03*
X143180000Y-97460000D03*
X145720000Y-97460000D03*
%TD*%
D11*
%TO.C,J3*%
X150800000Y-97460000D03*
D12*
X153340000Y-97460000D03*
X155880000Y-97460000D03*
X158420000Y-97460000D03*
X160960000Y-97460000D03*
X163500000Y-97460000D03*
%TD*%
D11*
%TO.C,J2*%
X118796000Y-49200000D03*
D12*
X121336000Y-49200000D03*
X123876000Y-49200000D03*
X126416000Y-49200000D03*
X128956000Y-49200000D03*
X131496000Y-49200000D03*
X134036000Y-49200000D03*
X136576000Y-49200000D03*
X139116000Y-49200000D03*
X141656000Y-49200000D03*
%TD*%
D11*
%TO.C,J4*%
X145720000Y-49200000D03*
D12*
X148260000Y-49200000D03*
X150800000Y-49200000D03*
X153340000Y-49200000D03*
X155880000Y-49200000D03*
X158420000Y-49200000D03*
X160960000Y-49200000D03*
X163500000Y-49200000D03*
%TD*%
D10*
%TO.C,R2*%
X121082000Y-80950000D03*
X128702000Y-80950000D03*
%TD*%
%TO.C,R3*%
X128702000Y-88824000D03*
X121082000Y-88824000D03*
%TD*%
%TO.C,U4*%
X155880000Y-53518000D03*
X153340000Y-53518000D03*
X150800000Y-53518000D03*
X148260000Y-53518000D03*
X145720000Y-53518000D03*
%TD*%
D13*
%TO.C,MH1*%
X115240000Y-49200000D03*
%TD*%
D10*
%TO.C,U1*%
X141656000Y-53518000D03*
X139116000Y-53518000D03*
X136576000Y-53518000D03*
X134036000Y-53518000D03*
X131496000Y-53518000D03*
X128956000Y-53518000D03*
%TD*%
%TO.C,R5*%
X117526000Y-76378000D03*
X125146000Y-76378000D03*
%TD*%
%TO.C,R1*%
X131496000Y-92380000D03*
X131496000Y-84760000D03*
%TD*%
D14*
%TO.C,U3*%
X141148000Y-66268000D03*
D10*
X138608000Y-66268000D03*
X136068000Y-66268000D03*
X133528000Y-66268000D03*
X133528000Y-73788000D03*
X136068000Y-73788000D03*
X138608000Y-73788000D03*
X141148000Y-73788000D03*
%TD*%
%TO.C,C2*%
X123916000Y-92380000D03*
X128916000Y-92380000D03*
%TD*%
%TO.C,C1*%
X126082000Y-84760000D03*
X121082000Y-84760000D03*
%TD*%
D13*
%TO.C,MH2*%
X113970000Y-97460000D03*
%TD*%
%TO.C,MH3*%
X166040000Y-64440000D03*
%TD*%
%TO.C,MH4*%
X166040000Y-92380000D03*
%TD*%
M02*
