M48
; DRILL file {KiCad (6.0.11)} date Thu Apr  6 20:22:13 2023
; FORMAT={-:-/ absolute / metric / decimal}
; #@! TF.CreationDate,2023-04-06T20:22:13+02:00
; #@! TF.GenerationSoftware,Kicad,Pcbnew,(6.0.11)
; #@! TF.FileFunction,MixedPlating,1,2
FMAT,2
METRIC
; #@! TA.AperFunction,Plated,PTH,ComponentDrill
T1C0.800
; #@! TA.AperFunction,Plated,PTH,ComponentDrill
T2C1.000
; #@! TA.AperFunction,NonPlated,NPTH,ComponentDrill
T3C3.200
%
G90
G05
T1
X117.526Y-62.154
X117.526Y-66.258
X117.526Y-71.258
X117.526Y-76.378
X121.082Y-80.95
X121.082Y-84.76
X121.082Y-88.824
X123.916Y-92.38
X125.146Y-62.154
X125.146Y-65.77
X125.146Y-73.27
X125.146Y-76.378
X126.082Y-84.76
X128.702Y-80.95
X128.702Y-88.824
X128.916Y-92.38
X128.956Y-53.518
X130.226Y-65.71
X130.226Y-73.33
X131.496Y-53.518
X131.496Y-84.76
X131.496Y-92.38
X133.528Y-66.268
X133.528Y-73.788
X134.036Y-53.518
X136.068Y-66.268
X136.068Y-73.788
X136.576Y-53.518
X138.608Y-66.268
X138.608Y-73.788
X139.116Y-53.518
X141.148Y-73.788
X141.656Y-53.518
X145.72Y-53.518
X146.228Y-79.268
X148.26Y-53.518
X148.768Y-79.268
X150.8Y-53.518
X151.308Y-79.268
X153.34Y-53.518
X153.848Y-79.268
X155.88Y-53.518
T2
X118.796Y-49.2
X121.336Y-49.2
X123.876Y-49.2
X126.416Y-49.2
X127.94Y-97.46
X128.956Y-49.2
X130.48Y-97.46
X131.496Y-49.2
X133.02Y-97.46
X134.036Y-49.2
X135.56Y-97.46
X136.576Y-49.2
X138.1Y-97.46
X139.116Y-49.2
X140.64Y-97.46
X141.148Y-66.268
X141.656Y-49.2
X143.18Y-97.46
X145.72Y-49.2
X145.72Y-97.46
X148.26Y-49.2
X150.8Y-49.2
X150.8Y-97.46
X153.34Y-49.2
X153.34Y-97.46
X155.88Y-49.2
X155.88Y-97.46
X158.42Y-49.2
X158.42Y-97.46
X160.96Y-49.2
X160.96Y-97.46
X163.5Y-49.2
X163.5Y-97.46
T3
X113.97Y-97.46
X115.24Y-49.2
X166.04Y-64.44
X166.04Y-92.38
T0
M30
