%TF.GenerationSoftware,KiCad,Pcbnew,(6.0.11)*%
%TF.CreationDate,2023-04-06T20:22:20+02:00*%
%TF.ProjectId,ProjetCapteur,50726f6a-6574-4436-9170-746575722e6b,rev?*%
%TF.SameCoordinates,Original*%
%TF.FileFunction,Copper,L1,Top*%
%TF.FilePolarity,Positive*%
%FSLAX46Y46*%
G04 Gerber Fmt 4.6, Leading zero omitted, Abs format (unit mm)*
G04 Created by KiCad (PCBNEW (6.0.11)) date 2023-04-06 20:22:20*
%MOMM*%
%LPD*%
G01*
G04 APERTURE LIST*
%TA.AperFunction,ComponentPad*%
%ADD10C,2.000000*%
%TD*%
%TA.AperFunction,ComponentPad*%
%ADD11R,1.700000X1.700000*%
%TD*%
%TA.AperFunction,ComponentPad*%
%ADD12O,1.700000X1.700000*%
%TD*%
%TA.AperFunction,ComponentPad*%
%ADD13R,2.000000X2.000000*%
%TD*%
%TA.AperFunction,Conductor*%
%ADD14C,1.000000*%
%TD*%
%TA.AperFunction,Conductor*%
%ADD15C,0.400000*%
%TD*%
G04 APERTURE END LIST*
D10*
%TO.P,R4,2*%
%TO.N,IN-*%
X130226000Y-65710000D03*
%TO.P,R4,1*%
%TO.N,Net-(C3-Pad1)*%
X130226000Y-73330000D03*
%TD*%
%TO.P,C3,2*%
%TO.N,IN-*%
X125146000Y-65770000D03*
%TO.P,C3,1*%
%TO.N,Net-(C3-Pad1)*%
X125146000Y-73270000D03*
%TD*%
%TO.P,R6,2*%
%TO.N,GND*%
X117526000Y-62154000D03*
%TO.P,R6,1*%
%TO.N,IN-*%
X125146000Y-62154000D03*
%TD*%
%TO.P,C4,2*%
%TO.N,GND*%
X117526000Y-66258000D03*
%TO.P,C4,1*%
%TO.N,ADC*%
X117526000Y-71258000D03*
%TD*%
%TO.P,U2,4,SDA*%
%TO.N,SDA*%
X153848000Y-79268000D03*
%TO.P,U2,3,SCL*%
%TO.N,SCL*%
X151308000Y-79268000D03*
%TO.P,U2,2,VCC*%
%TO.N,VCC*%
X148768000Y-79268000D03*
%TO.P,U2,1,GND*%
%TO.N,GND*%
X146228000Y-79268000D03*
%TD*%
D11*
%TO.P,J1,1,Pin_1*%
%TO.N,unconnected-(J1-Pad1)*%
X127940000Y-97460000D03*
D12*
%TO.P,J1,2,Pin_2*%
%TO.N,/IOREF*%
X130480000Y-97460000D03*
%TO.P,J1,3,Pin_3*%
%TO.N,/~{RESET}*%
X133020000Y-97460000D03*
%TO.P,J1,4,Pin_4*%
%TO.N,+3V3*%
X135560000Y-97460000D03*
%TO.P,J1,5,Pin_5*%
%TO.N,+5V*%
X138100000Y-97460000D03*
%TO.P,J1,6,Pin_6*%
%TO.N,GND*%
X140640000Y-97460000D03*
%TO.P,J1,7,Pin_7*%
X143180000Y-97460000D03*
%TO.P,J1,8,Pin_8*%
%TO.N,VCC*%
X145720000Y-97460000D03*
%TD*%
D11*
%TO.P,J3,1,Pin_1*%
%TO.N,ADC*%
X150800000Y-97460000D03*
D12*
%TO.P,J3,2,Pin_2*%
%TO.N,/A1*%
X153340000Y-97460000D03*
%TO.P,J3,3,Pin_3*%
%TO.N,/A2*%
X155880000Y-97460000D03*
%TO.P,J3,4,Pin_4*%
%TO.N,/A3*%
X158420000Y-97460000D03*
%TO.P,J3,5,Pin_5*%
%TO.N,SDA*%
X160960000Y-97460000D03*
%TO.P,J3,6,Pin_6*%
%TO.N,SCL*%
X163500000Y-97460000D03*
%TD*%
D11*
%TO.P,J2,1,Pin_1*%
%TO.N,SCL*%
X118796000Y-49200000D03*
D12*
%TO.P,J2,2,Pin_2*%
%TO.N,SDA*%
X121336000Y-49200000D03*
%TO.P,J2,3,Pin_3*%
%TO.N,/AREF*%
X123876000Y-49200000D03*
%TO.P,J2,4,Pin_4*%
%TO.N,GND*%
X126416000Y-49200000D03*
%TO.P,J2,5,Pin_5*%
%TO.N,/13*%
X128956000Y-49200000D03*
%TO.P,J2,6,Pin_6*%
%TO.N,/12*%
X131496000Y-49200000D03*
%TO.P,J2,7,Pin_7*%
%TO.N,RX_TX*%
X134036000Y-49200000D03*
%TO.P,J2,8,Pin_8*%
%TO.N,TX_RX*%
X136576000Y-49200000D03*
%TO.P,J2,9,Pin_9*%
%TO.N,RX_TX*%
X139116000Y-49200000D03*
%TO.P,J2,10,Pin_10*%
%TO.N,/8*%
X141656000Y-49200000D03*
%TD*%
D11*
%TO.P,J4,1,Pin_1*%
%TO.N,/7*%
X145720000Y-49200000D03*
D12*
%TO.P,J4,2,Pin_2*%
%TO.N,/\u002A6*%
X148260000Y-49200000D03*
%TO.P,J4,3,Pin_3*%
%TO.N,SWITCH*%
X150800000Y-49200000D03*
%TO.P,J4,4,Pin_4*%
%TO.N,DATA*%
X153340000Y-49200000D03*
%TO.P,J4,5,Pin_5*%
%TO.N,CLK*%
X155880000Y-49200000D03*
%TO.P,J4,6,Pin_6*%
%TO.N,/2*%
X158420000Y-49200000D03*
%TO.P,J4,7,Pin_7*%
%TO.N,/TX{slash}1*%
X160960000Y-49200000D03*
%TO.P,J4,8,Pin_8*%
%TO.N,/RX{slash}0*%
X163500000Y-49200000D03*
%TD*%
D10*
%TO.P,R2,2*%
%TO.N,IN+*%
X121082000Y-80950000D03*
%TO.P,R2,1*%
%TO.N,Net-(R1-Pad1)*%
X128702000Y-80950000D03*
%TD*%
%TO.P,R3,2*%
%TO.N,GND*%
X128702000Y-88824000D03*
%TO.P,R3,1*%
%TO.N,IN+*%
X121082000Y-88824000D03*
%TD*%
%TO.P,U4,1,CLK*%
%TO.N,CLK*%
X155880000Y-53518000D03*
%TO.P,U4,2,DATA*%
%TO.N,DATA*%
X153340000Y-53518000D03*
%TO.P,U4,3,SWITCH*%
%TO.N,SWITCH*%
X150800000Y-53518000D03*
%TO.P,U4,4,VCC*%
%TO.N,VCC*%
X148260000Y-53518000D03*
%TO.P,U4,5,GND*%
%TO.N,GND*%
X145720000Y-53518000D03*
%TD*%
%TO.P,U1,1,KEY*%
%TO.N,unconnected-(U1-Pad1)*%
X141656000Y-53518000D03*
%TO.P,U1,2,VCC*%
%TO.N,VCC*%
X139116000Y-53518000D03*
%TO.P,U1,3,GND*%
%TO.N,GND*%
X136576000Y-53518000D03*
%TO.P,U1,4,TX_RX*%
%TO.N,TX_RX*%
X134036000Y-53518000D03*
%TO.P,U1,5,RX_TX*%
%TO.N,RX_TX*%
X131496000Y-53518000D03*
%TO.P,U1,6,STATE*%
%TO.N,unconnected-(U1-Pad6)*%
X128956000Y-53518000D03*
%TD*%
%TO.P,R5,2*%
%TO.N,ADC*%
X117526000Y-76378000D03*
%TO.P,R5,1*%
%TO.N,Net-(C3-Pad1)*%
X125146000Y-76378000D03*
%TD*%
%TO.P,R1,2*%
%TO.N,+5V*%
X131496000Y-92380000D03*
%TO.P,R1,1*%
%TO.N,Net-(R1-Pad1)*%
X131496000Y-84760000D03*
%TD*%
D13*
%TO.P,U3,1,NC_2*%
%TO.N,unconnected-(U3-Pad1)*%
X141148000Y-66268000D03*
D10*
%TO.P,U3,2,IN-*%
%TO.N,IN-*%
X138608000Y-66268000D03*
%TO.P,U3,3,IN+*%
%TO.N,IN+*%
X136068000Y-66268000D03*
%TO.P,U3,4,V-*%
%TO.N,GND*%
X133528000Y-66268000D03*
%TO.P,U3,5,CLOCK*%
%TO.N,unconnected-(U3-Pad5)*%
X133528000Y-73788000D03*
%TO.P,U3,6,OUT*%
%TO.N,Net-(C3-Pad1)*%
X136068000Y-73788000D03*
%TO.P,U3,7,V+*%
%TO.N,+5V*%
X138608000Y-73788000D03*
%TO.P,U3,8,NC*%
%TO.N,unconnected-(U3-Pad8)*%
X141148000Y-73788000D03*
%TD*%
%TO.P,C2,2*%
%TO.N,GND*%
X123916000Y-92380000D03*
%TO.P,C2,1*%
%TO.N,+5V*%
X128916000Y-92380000D03*
%TD*%
%TO.P,C1,2*%
%TO.N,GND*%
X126082000Y-84760000D03*
%TO.P,C1,1*%
%TO.N,IN+*%
X121082000Y-84760000D03*
%TD*%
D14*
%TO.N,Net-(C3-Pad1)*%
X136068000Y-76886000D02*
X136068000Y-73280000D01*
X134036000Y-77140000D02*
X135814000Y-77140000D01*
X130226000Y-73330000D02*
X134036000Y-77140000D01*
D15*
X135814000Y-77140000D02*
X136068000Y-76886000D01*
D14*
%TO.N,+5V*%
X136068000Y-92380000D02*
X138100000Y-94412000D01*
X138100000Y-94412000D02*
X138100000Y-97460000D01*
X138608000Y-89840000D02*
X136068000Y-92380000D01*
X138608000Y-73788000D02*
X138608000Y-89840000D01*
X131496000Y-92380000D02*
X136068000Y-92380000D01*
%TO.N,VCC*%
X148768000Y-60122000D02*
X148768000Y-79268000D01*
X148260000Y-53518000D02*
X148260000Y-59614000D01*
X148260000Y-59614000D02*
X148768000Y-60122000D01*
X140640000Y-60122000D02*
X148768000Y-60122000D01*
X139116000Y-58598000D02*
X140640000Y-60122000D01*
X139116000Y-53518000D02*
X139116000Y-58598000D01*
%TO.N,IN+*%
X121082000Y-88824000D02*
X121082000Y-80950000D01*
D15*
X136068000Y-66980000D02*
X136068000Y-65760000D01*
D14*
%TO.N,Net-(C3-Pad1)*%
X130226000Y-73330000D02*
X125206000Y-73330000D01*
D15*
X125206000Y-73330000D02*
X125146000Y-73270000D01*
D14*
%TO.N,IN-*%
X125146000Y-65770000D02*
X130166000Y-65770000D01*
D15*
X130166000Y-65770000D02*
X130226000Y-65710000D01*
D14*
X137084000Y-63678000D02*
X138608000Y-65202000D01*
X130226000Y-65710000D02*
X132258000Y-63678000D01*
X132258000Y-63678000D02*
X137084000Y-63678000D01*
X138608000Y-65202000D02*
X138608000Y-65760000D01*
%TO.N,DATA*%
X153340000Y-49200000D02*
X153340000Y-53924000D01*
%TD*%
M02*
